<svg width="1440" height="5000" viewBox="0 0 1440 5000" fill="none" xmlns="http://www.w3.org/2000/svg">
<g clip-path="url(#clip0_1196_14)">
<rect width="1440" height="5000" fill="url(#paint0_linear_1196_14)"/>
<path d="M460 -0.5H303.5L-141.5 1246L-0.5 1267.5L460 -0.5Z" fill="url(#paint1_linear_1196_14)" fill-opacity="0.3"/>
<path d="M1267 -0.5H1110.5L771 995H920L1267 -0.5Z" fill="url(#paint2_linear_1196_14)" fill-opacity="0.3"/>
<path d="M1349 -1H1311.12L953.5 1029L988.5 1053.5L1349 -1Z" fill="url(#paint3_linear_1196_14)" fill-opacity="0.3"/>
<path d="M608.785 4820.57C716.675 4794.12 786.187 4783.52 925.494 4771.57C1044.97 4770.73 1112.59 4769.26 1239.85 4755.97C1308.37 4723.81 1353.42 4713.91 1440 4704V5000H504L608.785 4820.57Z" fill="#326696"/>
<path d="M1315.29 4717.66C1318.17 4721.4 1320.06 4723.26 1324.08 4726H1341.65C1341.65 4726 1365.29 4712.48 1366.26 4698.9C1366.68 4693 1363.42 4689.94 1363.04 4684.05C1362.67 4678.34 1365.1 4675.11 1364.21 4669.45C1364 4668.17 1363.61 4666.83 1363.09 4665.47C1361.96 4667.06 1360.64 4668.53 1359.28 4669.97C1361.28 4677.21 1356.46 4682.15 1357.76 4689.52C1358.51 4693.72 1362.53 4695.84 1361.28 4699.94C1357.99 4710.69 1347.8 4717.78 1338.72 4722.61C1336.7 4723.69 1332.86 4723.92 1332.86 4723.92C1332.86 4723.92 1333.34 4721.36 1334.33 4720.01C1336.45 4717.1 1340.3 4718.44 1343.41 4716.36C1349.43 4712.34 1350.99 4707.8 1352.49 4701.24C1354.01 4694.64 1349.89 4690.75 1350.73 4684.05C1351.51 4677.86 1355.52 4673.98 1359.28 4669.97C1358.63 4667.61 1357.4 4666.06 1356.15 4664.59C1351.94 4671.47 1345.31 4676.82 1345.46 4686.13C1345.53 4690.55 1347.4 4692.92 1347.22 4697.34L1347.21 4697.52C1346.99 4702.77 1346.85 4706.3 1343.41 4710.63C1340.44 4714.36 1332.86 4717.66 1332.86 4717.66C1332.86 4717.66 1338.16 4710.55 1338.72 4705.15C1339.19 4700.67 1336.4 4699.64 1337.55 4695.25C1338.42 4691.92 1341.71 4691.28 1343.41 4688.21C1346.67 4682.34 1345.8 4678.08 1345.46 4671.54C1344.99 4662.49 1336.68 4658 1338.72 4649.13C1339.91 4644 1343.91 4642.19 1345.46 4637.14C1347.54 4630.37 1346.36 4626.14 1345.46 4619.16C1343.74 4605.89 1333.49 4600.19 1332.86 4586.85C1332.48 4578.64 1336.09 4566 1336.09 4566C1336.09 4566 1324.14 4574.69 1327.59 4585.54C1331.05 4596.4 1340.82 4624.83 1338.72 4631.15C1336.62 4637.47 1334.21 4637.01 1332.86 4641.31C1331.94 4644.28 1331.92 4646.05 1331.69 4649.13C1330.8 4661.26 1341.39 4667.69 1338.72 4679.62C1337.34 4685.79 1331.59 4688.18 1331.69 4694.47C1331.75 4698.15 1334.25 4699.91 1334.33 4703.59C1334.46 4709.45 1328.47 4717.66 1328.47 4717.66C1328.47 4717.66 1324.41 4709.29 1324.08 4703.59C1323.87 4700.02 1324.48 4698.02 1324.96 4694.47C1325.55 4690.07 1327.33 4687.69 1327.01 4683.26C1326.59 4677.51 1321.15 4669.45 1321.15 4669.45C1321.15 4669.45 1327.1 4657.9 1326.42 4650.17C1325.91 4644.3 1321.57 4641.71 1321.15 4635.84C1320.74 4630.16 1326.17 4626.88 1324.08 4621.5C1323.2 4619.26 1320.56 4616.29 1320.56 4616.29C1320.56 4616.29 1321.25 4620.42 1321.15 4623.07C1320.94 4628.77 1316.6 4631.44 1316.75 4637.14C1316.89 4642 1319.92 4644.3 1320.56 4649.13C1321.68 4657.52 1315.57 4662.11 1316.75 4670.5C1317.48 4675.67 1320.16 4678.12 1321.15 4683.26C1322.65 4691.09 1319.22 4695.74 1320.56 4703.59C1321.79 4710.78 1327.01 4721.31 1327.01 4721.31C1327.01 4721.31 1322.22 4718.92 1320.56 4716.36C1318.77 4713.59 1319.93 4711.39 1319.1 4708.28C1317.67 4702.99 1314.05 4700.67 1313.53 4695.25C1313.11 4690.85 1316.11 4688.4 1315.29 4684.05C1314.49 4679.78 1310.71 4678.38 1309.72 4674.14C1308.63 4669.44 1310.89 4661.9 1310.89 4661.9C1310.89 4661.9 1305.48 4668.96 1305.04 4674.14C1304.5 4680.47 1310.1 4683.22 1310.89 4689.52C1311.59 4694.99 1308.21 4698.25 1309.72 4703.59C1310.86 4707.61 1315.29 4710.1 1315.29 4712.97V4717.66Z" fill="#326696"/>
<path d="M1359.28 4669.97C1360.64 4668.53 1361.96 4667.06 1363.09 4665.47C1362.08 4662.86 1360.59 4660.2 1359.05 4657.8C1358.47 4660.3 1357.42 4662.52 1356.15 4664.59C1357.4 4666.06 1358.63 4667.61 1359.28 4669.97Z" fill="#326696"/>
<path d="M1352.49 4649.13C1352.49 4649.13 1351.74 4654.75 1352.49 4658.25C1353.11 4661.13 1354.65 4662.81 1356.15 4664.59C1357.42 4662.52 1358.47 4660.3 1359.05 4657.8C1355.89 4652.91 1352.49 4649.13 1352.49 4649.13Z" fill="#326696"/>
<path d="M1357.76 4640.27C1356.95 4645.65 1359.67 4648.65 1359.52 4654.08C1359.48 4655.39 1359.32 4656.63 1359.05 4657.8C1360.59 4660.2 1362.08 4662.86 1363.09 4665.47C1364.8 4663.06 1366.04 4660.35 1366.26 4656.94C1366.68 4650.35 1361.22 4646.68 1363.04 4640.27C1364.15 4636.34 1367.51 4635.08 1368.6 4631.15C1371.02 4622.39 1361.69 4618.32 1359.52 4609.52C1357.16 4599.96 1357.76 4584.5 1357.76 4584.5C1357.76 4584.5 1352.08 4599.8 1353.96 4609.52C1355.45 4617.29 1363.6 4620.15 1363.04 4628.02C1362.67 4633.13 1358.53 4635.19 1357.76 4640.27Z" fill="#326696"/>
<path d="M0 4535.27C0 4535.27 16 4527.91 21 4535.27C26 4542.64 36 4586.28 36 4586.28C46.7476 4603.45 52.1131 4613.86 59 4635.59C92.8787 4642.73 107.309 4652.9 129.5 4675.83C136.64 4745.57 167.354 4740.52 245.5 4692.83C255.88 4656.83 270.9 4651.93 306.5 4657.69C410.534 4686.41 475.477 4689.55 592.5 4692.83L662 4697.93L797 4713.23C827.239 4724.82 836.803 4738.05 856 4759.7C887.303 4806.42 911.406 4820.77 960 4836.21V5000H0V4535.27Z" fill="#2E5B84"/>
<path d="M0 4826.74L58.5 4791C127.381 4796.46 185.533 4852.42 211.5 4836.67C237.467 4820.92 338.765 4801.74 392.5 4836.67C421.129 4852.67 437.568 4854.62 467.5 4847.1C512.663 4832.52 537.151 4821.49 586.5 4821.28L649.5 4836.67C699.245 4799.18 758.252 4807.98 888 4847.1C976.544 4852.08 1045.5 4809.37 1057 4807.38C1068.5 4805.4 1216.57 4780.49 1292.5 4821.28C1318.44 4842.12 1341.5 4849.78 1364.5 4847.1C1387.5 4844.42 1390.37 4816.72 1440 4821.28V5000H0V4826.74Z" fill="#113D66"/>
<path d="M254.571 4788.51C258.27 4793.07 282.579 4826 282.579 4826H333.31C333.31 4826 342.821 4814.85 344.935 4808.77C347.049 4802.69 352.333 4783.44 353.919 4772.8C355.504 4762.16 333.31 4767.23 333.31 4777.87C333.31 4788.51 332.253 4802.19 331.196 4807.25C330.139 4812.32 323.797 4812.32 323.797 4808.77V4756.08C323.797 4747.47 306.359 4750.51 306.887 4760.64C307.415 4770.78 308.473 4783.44 309.529 4800.16C310.586 4816.88 302.659 4816.88 301.074 4798.64C299.489 4780.4 295.79 4734.81 295.261 4728.22C294.733 4721.63 274.124 4730.75 276.237 4741.9C278.351 4753.04 288.392 4792.06 288.392 4792.06C290.184 4798.85 289.111 4800.01 285.749 4800.16C285.749 4800.16 279.408 4793.58 277.294 4790.54C275.181 4787.5 274.652 4783.95 270.424 4776.86C266.197 4769.76 250.872 4783.95 254.571 4788.51Z" fill="#113D66"/>
<path d="M627.008 4823.64C632.189 4825.37 644.733 4829.63 645.429 4841H657.517C657.517 4841 657.519 4836.37 657.517 4833.48C657.516 4830.58 659.246 4830.58 662.122 4827.69C664.999 4824.79 666.728 4826.53 673.635 4826.53C680.543 4826.53 677.666 4820.74 673.635 4821.32C669.605 4821.9 671.331 4821.9 669.03 4821.9C666.729 4821.9 666.729 4820.74 669.03 4819.01C671.331 4817.27 683.422 4812.64 687.451 4810.32C691.479 4808.01 686.497 4803.82 684.572 4805.69C682.648 4807.57 683.42 4806.85 682.846 4807.43C682.271 4808.01 679.393 4808.01 680.543 4804.54C681.693 4801.06 685.149 4797.59 688.026 4794.12C690.903 4790.64 686.874 4784.86 682.846 4791.22C678.817 4797.59 674.785 4806.27 674.211 4808.01C673.637 4809.75 670.181 4810.9 670.181 4807.43C670.181 4803.96 670.183 4806.85 670.181 4804.54C670.18 4802.22 666.726 4801.06 666.152 4804.54C665.578 4808.01 665.576 4807.43 665.001 4809.74C664.425 4812.06 662.121 4816.11 660.396 4818.43C658.67 4820.74 654.64 4822.48 654.639 4818.43C654.638 4814.37 655.216 4808.59 655.215 4805.11C655.214 4801.64 666.152 4797.01 667.879 4795.85C669.606 4794.7 670.18 4792.38 667.303 4794.12C664.426 4795.85 665.576 4795.27 664.425 4795.85C663.274 4796.43 661.548 4794.12 663.274 4792.96C664.999 4791.8 666.152 4791.8 670.181 4788.33C674.211 4784.86 670.181 4781.96 667.303 4784.86C664.425 4787.75 662.121 4790.64 660.971 4791.8C659.821 4792.96 655.792 4794.12 657.517 4791.8C659.243 4789.49 669.607 4768.65 672.484 4764.02C675.361 4759.39 671.331 4755.92 669.03 4760.55C666.729 4765.18 667.302 4766.33 666.152 4768.07C665.002 4769.81 662.699 4770.97 663.274 4768.07C663.848 4765.18 663.274 4747.81 663.274 4744.34C663.274 4740.87 659.819 4738.55 659.82 4745.5C659.821 4752.44 658.667 4779.65 657.517 4783.12C656.367 4786.59 654.062 4789.49 652.912 4791.8C651.762 4794.12 650.035 4793.54 650.034 4790.64C650.033 4787.75 651.762 4763.44 652.912 4753.6C654.062 4743.76 647.731 4746.66 647.731 4753.6V4768.07C647.731 4772.12 644.279 4772.7 643.126 4769.23C641.974 4765.76 641.401 4764.02 640.248 4758.81C639.096 4753.6 632.764 4755.34 636.219 4764.02C639.674 4772.7 643.701 4781.96 645.429 4788.33C647.157 4794.7 643.126 4797.01 640.248 4792.96C637.37 4788.91 630.462 4776.17 628.735 4772.7C627.008 4769.23 622.978 4773.86 624.706 4776.17C626.434 4778.49 629.885 4783.7 630.462 4784.86C631.039 4786.01 631.615 4787.75 629.887 4787.17C628.162 4786.59 628.161 4786.59 624.728 4783.14L624.706 4783.12C621.251 4779.65 620.675 4786.01 622.979 4787.17C625.283 4788.33 631.037 4792.96 632.189 4794.7C633.342 4796.43 639.671 4802.22 643.126 4809.74C646.581 4817.27 642.552 4819.01 640.248 4817.27C637.944 4815.53 630.463 4809.17 629.887 4808.01C629.31 4806.85 629.888 4802.22 629.887 4798.75C629.885 4795.27 625.856 4796.43 625.857 4798.75C625.858 4801.06 625.857 4802.8 625.857 4802.8C625.857 4802.8 622.98 4800.48 621.828 4798.75C620.675 4797.01 617.221 4798.75 618.949 4801.06C620.678 4803.38 627.008 4809.74 627.008 4809.74H618.949C616.646 4809.74 616.07 4812.64 618.949 4812.64C621.828 4812.64 627.584 4812.06 629.887 4814.38C632.189 4816.69 636.219 4821.9 636.219 4821.9C636.219 4821.9 632.765 4820.16 628.735 4819.01C624.706 4817.85 621.828 4821.9 627.008 4823.64Z" fill="#113D66"/>
<path d="M58.5025 4723.68C57.1131 4721.94 51.985 4725.21 51.5533 4729.75C46.5047 4730.37 44.6041 4734.51 45.0674 4735.81C45.5307 4737.12 51.09 4738.85 52.9427 4739.28C54.7954 4739.72 58.0388 4739.72 58.0388 4739.72C48.3302 4743.03 60.356 4752.72 61.7455 4752.72C63.1349 4752.72 67.8883 4752.96 71.0106 4753.15C72.4864 4762.18 76.5897 4760.09 83.9829 4759.66C94.3251 4761.74 100.532 4763.67 107.61 4759.66L106.684 4757.92H109C106.671 4747.88 103.423 4744.1 97.418 4737.55C97.418 4737.55 98.3441 4735.38 98.3446 4733.21C98.345 4731.05 87.2263 4724.54 85.3727 4726.28C83.5192 4728.01 80.2766 4731.05 80.2766 4731.05C80.2766 4731.05 77.9598 4724.98 76.5704 4722.38C75.181 4719.78 64.0614 4731.48 64.0614 4731.48C64.0614 4731.48 59.8919 4725.41 58.5025 4723.68Z" fill="#0F3057"/>
<path d="M1005.53 4785.7C1003.46 4784.89 1000.65 4790.29 1002.55 4794.43C998.488 4797.5 998.914 4802.04 999.966 4802.93C1001.02 4803.82 1006.7 4802.55 1008.52 4802C1010.34 4801.44 1013.15 4799.82 1013.15 4799.82C1006.4 4807.55 1021.66 4809.93 1022.86 4809.23C1024.07 4808.54 1028.3 4806.36 1031.1 4804.97C1036.89 4812.05 1039.4 4808.19 1045.59 4804.12C1055.59 4800.76 1061.93 4799.33 1066.05 4792.31L1064.38 4791.27L1066.39 4790.11C1059.35 4782.58 1054.64 4780.93 1046.17 4778.26C1046.17 4778.26 1045.89 4775.92 1044.8 4774.04C1043.72 4772.16 1030.84 4772.09 1030.1 4774.52C1029.36 4776.95 1028.07 4781.2 1028.07 4781.2C1028.07 4781.2 1023.03 4777.1 1020.53 4775.54C1018.03 4773.98 1014.25 4789.68 1014.25 4789.68C1014.25 4789.68 1007.6 4786.51 1005.53 4785.7Z" fill="#0F3057"/>
<path d="M953.441 4765.1C951.845 4764.42 949.821 4768.6 951.355 4771.91C948.325 4774.23 948.749 4777.82 949.57 4778.55C950.391 4779.27 954.695 4778.39 956.072 4777.99C957.448 4777.6 959.555 4776.38 959.555 4776.38C954.576 4782.32 966.262 4784.53 967.165 4784C968.067 4783.48 971.248 4781.86 973.356 4780.83C977.923 4786.53 979.753 4783.54 984.382 4780.47C991.934 4778.04 996.739 4777.05 999.729 4771.61L998.433 4770.76L999.938 4769.89C994.409 4763.8 990.786 4762.4 984.266 4760.12C984.266 4760.12 984.001 4758.27 983.134 4756.77C982.267 4755.26 972.445 4754.93 971.934 4756.82C971.424 4758.72 970.531 4762.04 970.531 4762.04C970.531 4762.04 966.599 4758.7 964.656 4757.42C962.714 4756.14 960.173 4768.42 960.173 4768.42C960.173 4768.42 955.037 4765.78 953.441 4765.1Z" fill="#0F3057"/>
<path d="M0 4900C81.3022 4914.91 132 4872.5 183.5 4872C235 4871.5 374 4923 374 4923C374 4923 501 4923 545 4923C589 4923 720 4931 720 4931C777.431 4908 811.264 4902.33 876 4911C983.424 4870.78 1036.31 4885.11 1129 4919C1196.99 4925.88 1229.95 4923.11 1283 4911C1351.9 4899.04 1384.51 4904.3 1440 4919V5000H0V4900Z" fill="#0F3057"/>
<path d="M1187.69 4877.01C1192.12 4882.48 1221.29 4922 1221.29 4922H1282.17C1282.17 4922 1293.59 4908.63 1296.12 4901.33C1298.66 4894.03 1305 4870.93 1306.9 4858.16C1308.81 4845.4 1282.17 4851.48 1282.17 4864.24C1282.17 4877.01 1280.9 4893.42 1279.63 4899.51C1278.37 4905.59 1270.76 4905.59 1270.76 4901.33V4838.1C1270.76 4827.76 1249.83 4831.41 1250.46 4843.57C1251.1 4855.73 1252.37 4870.93 1253.64 4890.99C1254.9 4911.06 1245.39 4911.06 1243.49 4889.17C1241.59 4867.28 1237.15 4812.57 1236.51 4804.66C1235.88 4796.76 1211.15 4807.7 1213.68 4821.08C1216.22 4834.45 1228.27 4881.27 1228.27 4881.27C1230.42 4889.42 1229.13 4890.81 1225.1 4890.99C1225.1 4890.99 1217.49 4883.09 1214.95 4879.44C1212.42 4875.79 1211.78 4871.54 1206.71 4863.03C1201.64 4854.52 1183.25 4871.54 1187.69 4877.01Z" fill="#0F3057"/>
<path d="M133.901 4853.73C141.096 4856.06 158.518 4861.77 159.485 4877H176.274C176.274 4877 176.276 4870.8 176.274 4866.92C176.272 4863.04 178.674 4863.04 182.67 4859.16C186.666 4855.28 189.066 4857.61 198.66 4857.61C208.254 4857.61 204.258 4849.85 198.66 4850.63C193.062 4851.4 195.46 4851.4 192.264 4851.41C189.068 4851.41 189.068 4849.85 192.264 4847.53C195.46 4845.2 212.253 4839 217.848 4835.89C223.443 4832.79 216.523 4827.18 213.851 4829.69C211.178 4832.2 212.25 4831.24 211.452 4832.02C210.654 4832.79 206.657 4832.79 208.254 4828.14C209.851 4823.48 214.652 4818.83 218.648 4814.18C222.643 4809.52 217.047 4801.77 211.452 4810.3C205.857 4818.83 200.257 4830.46 199.46 4832.79C198.662 4835.12 193.863 4836.67 193.863 4832.02C193.863 4827.36 193.865 4831.24 193.863 4828.14C193.861 4825.03 189.064 4823.48 188.267 4828.14C187.469 4832.79 187.467 4832.01 186.668 4835.12C185.868 4838.22 182.668 4843.65 180.272 4846.75C177.875 4849.85 172.278 4852.18 172.277 4846.75C172.275 4841.32 173.078 4833.57 173.076 4828.91C173.074 4824.26 188.267 4818.06 190.665 4816.5C193.064 4814.95 193.861 4811.85 189.866 4814.18C185.87 4816.5 187.467 4815.73 185.868 4816.5C184.269 4817.28 181.872 4814.18 184.269 4812.63C186.666 4811.07 188.267 4811.07 193.863 4806.42C199.46 4801.77 193.863 4797.89 189.866 4801.77C185.868 4805.65 182.668 4809.52 181.071 4811.07C179.474 4812.63 173.877 4814.18 176.274 4811.07C178.671 4807.97 193.065 4780.05 197.061 4773.85C201.057 4767.64 195.46 4762.99 192.264 4769.19C189.068 4775.4 189.864 4776.95 188.267 4779.28C186.669 4781.6 183.471 4783.15 184.269 4779.28C185.067 4775.4 184.269 4752.13 184.269 4747.48C184.269 4742.82 179.47 4739.72 179.472 4749.03C179.474 4758.33 177.871 4794.79 176.274 4799.44C174.677 4804.09 171.475 4807.97 169.878 4811.07C168.281 4814.18 165.882 4813.4 165.881 4809.52C165.879 4805.65 168.281 4773.07 169.878 4759.89C171.475 4746.7 162.683 4750.58 162.683 4759.89V4779.28C162.683 4784.7 157.887 4785.48 156.287 4780.83C154.686 4776.17 153.89 4773.85 152.289 4766.87C150.688 4759.89 141.894 4762.21 146.693 4773.85C151.491 4785.48 157.084 4797.89 159.485 4806.42C161.885 4814.95 156.287 4818.05 152.289 4812.63C148.292 4807.2 138.698 4790.13 136.299 4785.48C133.901 4780.83 128.302 4787.03 130.703 4790.13C133.103 4793.24 137.896 4800.22 138.698 4801.77C139.499 4803.32 140.298 4805.65 137.898 4804.87C135.503 4804.1 135.501 4804.09 130.734 4799.47L130.703 4799.44C125.904 4794.79 125.104 4803.32 128.304 4804.87C131.504 4806.42 139.495 4812.63 141.096 4814.95C142.697 4817.28 151.488 4825.04 156.287 4835.12C161.085 4845.2 155.489 4847.53 152.289 4845.2C149.089 4842.87 138.699 4834.34 137.898 4832.79C137.097 4831.24 137.9 4825.04 137.898 4820.38C137.896 4815.73 132.3 4817.28 132.302 4820.38C132.303 4823.48 132.302 4825.81 132.302 4825.81C132.302 4825.81 128.306 4822.71 126.705 4820.38C125.104 4818.05 120.307 4820.38 122.708 4823.48C125.108 4826.59 133.901 4835.12 133.901 4835.12H122.708C119.508 4835.12 118.709 4839 122.708 4839C126.706 4839 134.7 4838.22 137.898 4841.32C141.096 4844.43 146.693 4851.41 146.693 4851.41C146.693 4851.41 141.896 4849.08 136.299 4847.53C130.703 4845.98 126.705 4851.41 133.901 4853.73Z" fill="#0F3057"/>
<path d="M728.364 4921.99L727.31 4932H721.511C721.511 4932 723.094 4923.19 722.565 4921.99C722.037 4920.79 718.349 4918.39 713.604 4915.99C708.858 4913.59 708.86 4911.98 706.75 4907.58C704.64 4903.18 707.278 4901.58 710.968 4905.18C714.658 4908.78 718.875 4911.58 719.402 4912.38C719.93 4913.18 722.038 4912.78 721.511 4911.18C720.984 4909.58 716.239 4899.57 714.658 4895.97C713.076 4892.37 714.658 4884.36 714.429 4881.16C714.201 4877.96 719.93 4873.95 720.457 4881.16C720.984 4888.37 720.984 4896.37 721.511 4898.77C722.038 4901.18 724.674 4903.18 724.674 4903.18L729.946 4873.95C729.946 4873.95 722.567 4867.55 719.93 4865.55C717.292 4863.55 715.186 4859.94 714.131 4857.14C713.075 4854.34 712.023 4852.34 712.549 4848.73C713.075 4845.13 717.82 4846.33 718.348 4848.73C718.877 4851.14 719.928 4855.54 720.457 4856.74C720.985 4857.94 725.201 4862.34 725.728 4863.14C726.256 4863.95 728.366 4863.95 727.837 4861.94C727.309 4859.94 726.256 4856.34 725.728 4851.94C725.201 4847.53 726.257 4844.73 726.256 4841.53C726.254 4838.33 731.526 4837.92 731.527 4841.53C731.529 4845.13 732.054 4858.74 732.054 4858.74H733.109C733.109 4858.74 737.327 4830.72 735.218 4831.12C733.108 4831.52 723.621 4826.32 721.511 4823.91C719.401 4821.51 715.714 4817.91 713.604 4814.71C711.494 4811.5 715.711 4810.7 718.348 4812.7C720.985 4814.71 729.945 4821.51 730.473 4822.31C731.001 4823.11 732.056 4822.31 731.527 4821.51C730.999 4820.71 724.675 4812.3 724.147 4811.5C723.618 4810.7 723.621 4810.3 723.093 4806.7C722.564 4803.1 725.73 4802.7 728.366 4805.5C731.001 4808.3 731 4809.1 731.529 4809.5C732.057 4809.9 735.218 4819.51 735.218 4819.51C735.218 4819.51 733.637 4797.89 733.109 4797.09C732.58 4796.29 724.147 4793.89 721.511 4792.29C718.875 4790.69 717.295 4788.69 715.185 4785.88C713.075 4783.08 718.348 4781.88 719.93 4783.88C721.511 4785.88 721.511 4786.68 723.62 4787.88C725.728 4789.09 728.891 4790.69 728.891 4790.69C728.891 4790.69 722.567 4777.88 720.984 4775.07C719.401 4772.27 724.673 4770.67 725.728 4773.47C726.784 4776.28 733.109 4789.49 733.109 4789.49C733.109 4789.49 735.219 4782.28 735.218 4779.88C735.216 4777.48 734.692 4777.88 734.163 4774.27C733.635 4770.67 738.908 4771.87 739.435 4774.27C739.958 4776.66 739.961 4779.04 739.962 4780.25L739.962 4780.28C739.963 4781.48 737.853 4789.89 737.853 4789.89C737.853 4789.89 742.072 4784.68 743.125 4782.28C744.178 4779.88 744.181 4779.88 745.234 4777.48C746.287 4775.07 751.559 4775.07 749.451 4777.88C747.344 4780.68 746.814 4781.48 746.288 4785.08C745.762 4788.69 736.799 4797.89 736.799 4797.89L739.435 4820.71C739.435 4820.71 742.599 4806.7 743.125 4804.3C743.651 4801.9 748.397 4799.89 748.397 4804.3C748.397 4808.7 746.288 4820.71 746.288 4820.71C746.288 4820.71 750.507 4815.51 751.033 4813.51C751.559 4811.5 754.196 4806.7 754.196 4803.5C754.196 4800.29 759.466 4801.9 759.467 4804.3C759.469 4806.7 759.467 4807.9 758.413 4810.3C757.359 4812.7 754.196 4818.31 752.614 4820.71C751.033 4823.11 747.344 4826.72 744.707 4829.12C742.069 4831.52 739.435 4831.92 739.435 4831.92L738.381 4858.74C738.381 4858.74 746.289 4846.73 748.397 4842.73C750.504 4838.73 756.303 4840.73 754.196 4844.33C752.098 4847.92 751.565 4848.73 750.001 4851.1L749.978 4851.14C748.397 4853.54 742.598 4862.74 742.598 4862.74C742.598 4862.74 748.395 4859.94 749.978 4858.74C751.561 4857.54 754.723 4851.94 757.359 4849.53C759.995 4847.13 763.158 4851.14 761.576 4853.14C759.995 4855.14 757.359 4858.74 755.25 4861.14C753.141 4863.55 745.762 4869.55 742.598 4871.15C739.434 4872.75 735.218 4873.95 735.218 4873.95L730.473 4905.58C730.473 4905.58 734.163 4898.37 735.218 4895.57C736.272 4892.77 737.326 4889.97 737.326 4885.96C737.326 4881.96 742.071 4881.56 742.598 4885.96C743.125 4890.37 743.125 4889.17 742.598 4891.17C742.071 4893.17 739.962 4897.17 739.435 4898.77C738.908 4900.37 735.218 4911.18 735.218 4911.18C735.218 4911.18 742.071 4904.38 744.179 4901.98C746.288 4899.57 752.614 4888.37 753.141 4885.96C753.668 4883.56 753.668 4882.36 753.141 4879.96C752.614 4877.56 759.467 4875.96 759.995 4879.96C760.522 4883.96 760.522 4888.37 759.995 4889.97C759.467 4891.57 741.544 4915.99 739.435 4917.59C737.326 4919.19 733.087 4920.81 728.364 4921.99Z" fill="#0F3057"/>
<path d="M893.753 4920C893.753 4920 917.927 4897.4 921.196 4894.58C924.466 4891.75 927.729 4884.69 930.344 4881.16C932.96 4877.63 927.079 4875.51 924.463 4878.34C921.848 4881.16 915.971 4891.75 913.355 4894.58C910.739 4897.4 904.863 4900.93 902.9 4902.35C900.938 4903.76 898.324 4901.64 900.287 4899.52C902.249 4897.4 912.7 4885.4 915.316 4881.16C917.931 4876.92 924.463 4867.04 926.424 4861.39C928.384 4855.74 926.424 4837.38 926.424 4833.14C926.424 4828.91 921.196 4829.61 921.196 4833.14C921.196 4836.68 920.545 4847.97 919.89 4852.21C919.234 4856.45 896.805 4897.35 895.059 4897.4C893.314 4897.46 891.79 4897.4 893.753 4894.58C895.715 4891.75 905.918 4875.91 909.435 4861.39C912.952 4846.87 906.166 4813.37 904.207 4809.13C902.249 4804.9 893.755 4804.9 895.059 4812.67C896.364 4820.43 898.329 4839.5 898.326 4845.85C898.324 4852.21 895.061 4866.33 893.753 4869.86C892.444 4873.4 884.605 4899.52 884.605 4899.52C884.605 4899.52 891.137 4845.15 891.139 4838.09C891.141 4831.02 889.176 4821.85 888.525 4817.61C887.874 4813.37 882.646 4816.19 882.644 4819.02C882.642 4821.85 878.724 4902.35 878.724 4902.35C878.724 4902.35 876.108 4861.39 876.11 4857.86C876.112 4854.33 868.92 4826.08 867.613 4823.26C866.307 4820.43 858.466 4802.78 856.507 4800.66C854.549 4798.54 849.516 4801.26 851.28 4812.67C851.28 4812.67 863.697 4847.27 865.002 4854.33C866.307 4861.39 871.536 4897.4 871.536 4897.4C871.536 4897.4 859.772 4871.98 858.468 4868.45C857.163 4864.92 853.238 4847.27 852.587 4842.32C851.935 4837.38 846.055 4838.09 846.053 4842.32C846.05 4846.56 847.028 4860.43 851.28 4874.1C855.932 4885.5 859.171 4891.56 865.002 4902.35C864.103 4903.41 840.137 4880.57 836.251 4876.22C832.365 4871.86 829.065 4876.92 832.331 4881.16C835.596 4885.4 843.439 4894.58 844.746 4895.99C846.053 4897.4 865.671 4911.15 866.962 4912.94C868.254 4914.72 868.269 4917.18 866.962 4916.47C865.655 4915.76 848.666 4905.88 844.746 4902.35C840.825 4898.82 835.598 4901.64 839.518 4905.88C843.439 4910.11 847.339 4913.99 856.507 4920H893.753Z" fill="#0F3057"/>
<path d="M767.576 4911.55L766.813 4920H762.617C762.617 4920 763.762 4912.57 763.38 4911.55C762.997 4910.54 760.191 4908.58 757.657 4906.1C755.123 4903.61 754.352 4903.26 751.925 4899.64C749.498 4896.02 752.316 4894.32 754.986 4897.36C757.657 4900.4 760.709 4902.77 761.091 4903.44C761.472 4904.12 762.998 4903.78 762.617 4902.43C762.235 4901.08 758.324 4893.19 757.657 4889.59C756.99 4885.99 757.657 4879.79 757.492 4877.08C757.326 4874.38 761.472 4871 761.854 4877.08C762.235 4883.17 762.235 4889.92 762.617 4891.95C762.998 4893.98 764.906 4895.67 764.906 4895.67L768.721 4871C768.721 4871 763.381 4865.59 761.472 4863.9C759.564 4862.21 758.039 4859.17 757.276 4856.81C756.512 4854.44 755.75 4852.75 756.131 4849.71C756.512 4846.67 759.945 4847.68 760.328 4849.71C760.71 4851.74 760.99 4854.69 762.056 4856.81C763.123 4858.92 765.287 4861.2 765.669 4861.88C766.05 4862.55 767.577 4862.55 767.195 4860.86C766.812 4859.17 766.05 4856.13 765.669 4852.41C765.287 4848.7 766.051 4846.33 766.05 4843.63C766.049 4840.92 769.864 4840.59 769.865 4843.63C769.866 4846.67 770.247 4858.16 770.247 4858.16H771.01C771.01 4858.16 774.063 4834.5 772.536 4834.84C771.009 4835.18 765.288 4831.16 763.761 4829.13C762.234 4827.1 758.421 4823.69 756.894 4820.99C755.367 4818.28 758.419 4817.61 760.328 4819.3C762.236 4820.99 768.72 4826.73 769.102 4827.41C769.485 4828.08 770.248 4827.41 769.865 4826.73C769.483 4826.05 765.638 4819.38 765.256 4818.7C764.873 4818.02 764.144 4817.27 763.761 4814.23C763.379 4811.19 765.67 4810.85 767.577 4813.21C769.485 4815.58 769.144 4815.48 769.866 4816.59C770.588 4817.71 774.321 4826.65 774.321 4826.65C774.321 4826.65 777.878 4814.23 778.259 4812.2C778.639 4810.17 782.074 4808.48 782.074 4812.2C782.074 4815.92 780.548 4826.05 780.548 4826.05C780.548 4826.05 783.218 4821.66 783.599 4819.97C783.98 4818.28 784.986 4814.73 785.519 4812.25C786.053 4809.76 789.852 4810.17 790.085 4812.2C790.319 4814.23 789.926 4814.84 789.322 4817.27C788.721 4819.69 786.286 4824 785.137 4826.03L785.126 4826.05C783.981 4828.08 781.312 4831.12 779.403 4833.15C777.495 4835.18 775.588 4835.52 775.588 4835.52L774.825 4858.16C774.825 4858.16 780.549 4848.02 782.074 4844.64C783.599 4841.26 787.795 4842.95 786.27 4845.99C784.753 4849.02 784.367 4849.7 783.235 4851.71L783.218 4851.74C782.074 4853.76 777.877 4861.54 777.877 4861.54C777.877 4861.54 783.021 4859.69 784.986 4857.43C786.951 4855.18 786.652 4852.41 788.559 4850.39C790.467 4848.36 791.385 4850.98 790.848 4853.16C790.312 4855.34 788.874 4858.83 787.348 4860.86C785.822 4862.89 780.167 4867.28 777.877 4868.63C775.587 4869.99 772.536 4871 772.536 4871L769.102 4897.7C769.102 4897.7 770.588 4892.69 772.536 4889.25C774.484 4885.81 774.062 4884.52 774.062 4881.14C774.062 4877.76 777.877 4877.04 777.877 4881.14C777.877 4885.24 778.054 4882.76 777.877 4885.53C777.7 4888.3 777.114 4889.23 775.588 4891.95C774.062 4894.67 772.536 4902.43 772.536 4902.43C772.536 4902.43 776.355 4897.63 778.587 4894.18C780.819 4890.72 782.853 4886.73 784.453 4883.75C786.053 4880.77 785.889 4878.1 785.507 4876.07C785.126 4874.04 790.467 4872.36 790.467 4876.07C790.467 4879.78 790.699 4880.77 789.252 4884.25C787.805 4887.72 779.121 4906.1 775.588 4907.83C772.056 4909.57 770.994 4910.56 767.576 4911.55Z" fill="#0F3057"/>
</g>
<defs>
<linearGradient id="paint0_linear_1196_14" x1="720" y1="0" x2="720.001" y2="5000" gradientUnits="userSpaceOnUse">
<stop stop-color="#64BBF9"/>
<stop offset="1" stop-color="#106AAB"/>
</linearGradient>
<linearGradient id="paint1_linear_1196_14" x1="159.25" y1="-0.5" x2="159.25" y2="1267.5" gradientUnits="userSpaceOnUse">
<stop stop-color="white" stop-opacity="0.75"/>
<stop offset="1" stop-color="white" stop-opacity="0"/>
</linearGradient>
<linearGradient id="paint2_linear_1196_14" x1="634.25" y1="-0.5" x2="634.25" y2="3374" gradientUnits="userSpaceOnUse">
<stop stop-color="white" stop-opacity="0.7"/>
<stop offset="1" stop-color="white" stop-opacity="0"/>
</linearGradient>
<linearGradient id="paint3_linear_1196_14" x1="1195.86" y1="-1" x2="1195.86" y2="3373.5" gradientUnits="userSpaceOnUse">
<stop stop-color="white"/>
<stop offset="1" stop-color="white" stop-opacity="0"/>
</linearGradient>
<clipPath id="clip0_1196_14">
<rect width="1440" height="5000" fill="white"/>
</clipPath>
</defs>
</svg>
