<svg width="1440" height="3222" viewBox="0 0 1440 3222" fill="none" xmlns="http://www.w3.org/2000/svg">
<g clip-path="url(#clip0_1196_14)">
<rect width="1440" height="3222" fill="url(#paint0_linear_1196_14)"/>
<path d="M460 -0.5H303.5L-141.5 1246L-0.5 1267.5L460 -0.5Z" fill="url(#paint1_linear_1196_14)" fill-opacity="0.3"/>
<path d="M1267 -0.5H1110.5L771 995H920L1267 -0.5Z" fill="url(#paint2_linear_1196_14)" fill-opacity="0.3"/>
<path d="M1349 -1H1311.12L953.5 1029L988.5 1053.5L1349 -1Z" fill="url(#paint3_linear_1196_14)" fill-opacity="0.3"/>
<path d="M608.785 3042.57C716.675 3016.12 786.187 3005.52 925.494 2993.57C1044.97 2992.73 1112.59 2991.26 1239.85 2977.97C1308.37 2945.81 1353.42 2935.91 1440 2926V3222H504L608.785 3042.57Z" fill="#326696"/>
<path d="M1315.29 2939.66C1318.17 2943.4 1320.06 2945.26 1324.08 2948H1341.65C1341.65 2948 1365.29 2934.48 1366.26 2920.9C1366.68 2915 1363.42 2911.94 1363.04 2906.05C1362.67 2900.34 1365.1 2897.11 1364.21 2891.45C1364 2890.17 1363.61 2888.83 1363.09 2887.47C1361.96 2889.06 1360.64 2890.53 1359.28 2891.97C1361.28 2899.21 1356.46 2904.15 1357.76 2911.52C1358.51 2915.72 1362.53 2917.84 1361.28 2921.94C1357.99 2932.69 1347.8 2939.78 1338.72 2944.61C1336.7 2945.69 1332.86 2945.92 1332.86 2945.92C1332.86 2945.92 1333.34 2943.36 1334.33 2942.01C1336.45 2939.1 1340.3 2940.44 1343.41 2938.36C1349.43 2934.34 1350.99 2929.8 1352.49 2923.24C1354.01 2916.64 1349.89 2912.75 1350.73 2906.05C1351.51 2899.86 1355.52 2895.98 1359.28 2891.97C1358.63 2889.61 1357.4 2888.06 1356.15 2886.59C1351.94 2893.47 1345.31 2898.82 1345.46 2908.13C1345.53 2912.55 1347.4 2914.92 1347.22 2919.34L1347.21 2919.52C1346.99 2924.77 1346.85 2928.3 1343.41 2932.63C1340.44 2936.36 1332.86 2939.66 1332.86 2939.66C1332.86 2939.66 1338.16 2932.55 1338.72 2927.15C1339.19 2922.67 1336.4 2921.64 1337.55 2917.25C1338.42 2913.92 1341.71 2913.28 1343.41 2910.21C1346.67 2904.34 1345.8 2900.08 1345.46 2893.54C1344.99 2884.49 1336.68 2880 1338.72 2871.13C1339.91 2866 1343.91 2864.19 1345.46 2859.14C1347.54 2852.37 1346.36 2848.14 1345.46 2841.16C1343.74 2827.89 1333.49 2822.19 1332.86 2808.85C1332.48 2800.64 1336.09 2788 1336.09 2788C1336.09 2788 1324.14 2796.69 1327.59 2807.54C1331.05 2818.4 1340.82 2846.83 1338.72 2853.15C1336.62 2859.47 1334.21 2859.01 1332.86 2863.31C1331.94 2866.28 1331.92 2868.05 1331.69 2871.13C1330.8 2883.26 1341.39 2889.69 1338.72 2901.62C1337.34 2907.79 1331.59 2910.18 1331.69 2916.47C1331.75 2920.15 1334.25 2921.91 1334.33 2925.59C1334.46 2931.45 1328.47 2939.66 1328.47 2939.66C1328.47 2939.66 1324.41 2931.29 1324.08 2925.59C1323.87 2922.02 1324.48 2920.02 1324.96 2916.47C1325.55 2912.07 1327.33 2909.69 1327.01 2905.26C1326.59 2899.51 1321.15 2891.45 1321.15 2891.45C1321.15 2891.45 1327.1 2879.9 1326.42 2872.17C1325.91 2866.3 1321.57 2863.71 1321.15 2857.84C1320.74 2852.16 1326.17 2848.88 1324.08 2843.5C1323.2 2841.26 1320.56 2838.29 1320.56 2838.29C1320.56 2838.29 1321.25 2842.42 1321.15 2845.07C1320.94 2850.77 1316.6 2853.44 1316.75 2859.14C1316.89 2864 1319.92 2866.3 1320.56 2871.13C1321.68 2879.52 1315.57 2884.11 1316.75 2892.5C1317.48 2897.67 1320.16 2900.12 1321.15 2905.26C1322.65 2913.09 1319.22 2917.74 1320.56 2925.59C1321.79 2932.78 1327.01 2943.31 1327.01 2943.31C1327.01 2943.31 1322.22 2940.92 1320.56 2938.36C1318.77 2935.59 1319.93 2933.39 1319.1 2930.28C1317.67 2924.99 1314.05 2922.67 1313.53 2917.25C1313.11 2912.85 1316.11 2910.4 1315.29 2906.05C1314.49 2901.78 1310.71 2900.38 1309.72 2896.14C1308.63 2891.44 1310.89 2883.9 1310.89 2883.9C1310.89 2883.9 1305.48 2890.96 1305.04 2896.14C1304.5 2902.47 1310.1 2905.22 1310.89 2911.52C1311.59 2916.99 1308.21 2920.25 1309.72 2925.59C1310.86 2929.61 1315.29 2932.1 1315.29 2934.97V2939.66Z" fill="#326696"/>
<path d="M1359.28 2891.97C1360.64 2890.53 1361.96 2889.06 1363.09 2887.47C1362.08 2884.86 1360.59 2882.2 1359.05 2879.8C1358.47 2882.3 1357.42 2884.52 1356.15 2886.59C1357.4 2888.06 1358.63 2889.61 1359.28 2891.97Z" fill="#326696"/>
<path d="M1352.49 2871.13C1352.49 2871.13 1351.74 2876.75 1352.49 2880.25C1353.11 2883.13 1354.65 2884.81 1356.15 2886.59C1357.42 2884.52 1358.47 2882.3 1359.05 2879.8C1355.89 2874.91 1352.49 2871.13 1352.49 2871.13Z" fill="#326696"/>
<path d="M1357.76 2862.27C1356.95 2867.65 1359.67 2870.65 1359.52 2876.08C1359.48 2877.39 1359.32 2878.63 1359.05 2879.8C1360.59 2882.2 1362.08 2884.86 1363.09 2887.47C1364.8 2885.06 1366.04 2882.35 1366.26 2878.94C1366.68 2872.35 1361.22 2868.68 1363.04 2862.27C1364.15 2858.34 1367.51 2857.08 1368.6 2853.15C1371.02 2844.39 1361.69 2840.32 1359.52 2831.52C1357.16 2821.96 1357.76 2806.5 1357.76 2806.5C1357.76 2806.5 1352.08 2821.8 1353.96 2831.52C1355.45 2839.29 1363.6 2842.15 1363.04 2850.02C1362.67 2855.13 1358.53 2857.19 1357.76 2862.27Z" fill="#326696"/>
<path d="M0 2757.27C0 2757.27 16 2749.91 21 2757.27C26 2764.64 36 2808.28 36 2808.28C46.7476 2825.45 52.1131 2835.86 59 2857.59C92.8787 2864.73 107.309 2874.9 129.5 2897.83C136.64 2967.57 167.354 2962.52 245.5 2914.83C255.88 2878.83 270.9 2873.93 306.5 2879.69C410.534 2908.41 475.477 2911.55 592.5 2914.83L662 2919.93L797 2935.23C827.239 2946.82 836.803 2960.05 856 2981.7C887.303 3028.42 911.406 3042.77 960 3058.21V3222H0V2757.27Z" fill="#2E5B84"/>
<path d="M0 3048.74L58.5 3013C127.381 3018.46 185.533 3074.42 211.5 3058.67C237.467 3042.92 338.765 3023.74 392.5 3058.67C421.129 3074.67 437.568 3076.62 467.5 3069.1C512.663 3054.52 537.151 3043.49 586.5 3043.28L649.5 3058.67C699.245 3021.18 758.252 3029.98 888 3069.1C976.544 3074.08 1045.5 3031.37 1057 3029.38C1068.5 3027.4 1216.57 3002.49 1292.5 3043.28C1318.44 3064.12 1341.5 3071.78 1364.5 3069.1C1387.5 3066.42 1390.37 3038.72 1440 3043.28V3222H0V3048.74Z" fill="#113D66"/>
<path d="M254.571 3010.51C258.27 3015.07 282.579 3048 282.579 3048H333.31C333.31 3048 342.821 3036.85 344.935 3030.77C347.049 3024.69 352.333 3005.44 353.919 2994.8C355.504 2984.16 333.31 2989.23 333.31 2999.87C333.31 3010.51 332.253 3024.19 331.196 3029.25C330.139 3034.32 323.797 3034.32 323.797 3030.77V2978.08C323.797 2969.47 306.359 2972.51 306.887 2982.64C307.415 2992.78 308.473 3005.44 309.529 3022.16C310.586 3038.88 302.659 3038.88 301.074 3020.64C299.489 3002.4 295.79 2956.81 295.261 2950.22C294.733 2943.63 274.124 2952.75 276.237 2963.9C278.351 2975.04 288.392 3014.06 288.392 3014.06C290.184 3020.85 289.111 3022.01 285.749 3022.16C285.749 3022.16 279.408 3015.58 277.294 3012.54C275.181 3009.5 274.652 3005.95 270.424 2998.86C266.197 2991.76 250.872 3005.95 254.571 3010.51Z" fill="#113D66"/>
<path d="M627.008 3045.64C632.189 3047.37 644.733 3051.63 645.429 3063H657.517C657.517 3063 657.519 3058.37 657.517 3055.48C657.516 3052.58 659.246 3052.58 662.122 3049.69C664.999 3046.79 666.728 3048.53 673.635 3048.53C680.543 3048.53 677.666 3042.74 673.635 3043.32C669.605 3043.9 671.331 3043.9 669.03 3043.9C666.729 3043.9 666.729 3042.74 669.03 3041.01C671.331 3039.27 683.422 3034.64 687.451 3032.32C691.479 3030.01 686.497 3025.82 684.572 3027.69C682.648 3029.57 683.42 3028.85 682.846 3029.43C682.271 3030.01 679.393 3030.01 680.543 3026.54C681.693 3023.06 685.149 3019.59 688.026 3016.12C690.903 3012.64 686.874 3006.86 682.846 3013.22C678.817 3019.59 674.785 3028.27 674.211 3030.01C673.637 3031.75 670.181 3032.9 670.181 3029.43C670.181 3025.96 670.183 3028.85 670.181 3026.54C670.18 3024.22 666.726 3023.06 666.152 3026.54C665.578 3030.01 665.576 3029.43 665.001 3031.74C664.425 3034.06 662.121 3038.11 660.396 3040.43C658.67 3042.74 654.64 3044.48 654.639 3040.43C654.638 3036.37 655.216 3030.59 655.215 3027.11C655.214 3023.64 666.152 3019.01 667.879 3017.85C669.606 3016.7 670.18 3014.38 667.303 3016.12C664.426 3017.85 665.576 3017.27 664.425 3017.85C663.274 3018.43 661.548 3016.12 663.274 3014.96C664.999 3013.8 666.152 3013.8 670.181 3010.33C674.211 3006.86 670.181 3003.96 667.303 3006.86C664.425 3009.75 662.121 3012.64 660.971 3013.8C659.821 3014.96 655.792 3016.12 657.517 3013.8C659.243 3011.49 669.607 2990.65 672.484 2986.02C675.361 2981.39 671.331 2977.92 669.03 2982.55C666.729 2987.18 667.302 2988.33 666.152 2990.07C665.002 2991.81 662.699 2992.97 663.274 2990.07C663.848 2987.18 663.274 2969.81 663.274 2966.34C663.274 2962.87 659.819 2960.55 659.82 2967.5C659.821 2974.44 658.667 3001.65 657.517 3005.12C656.367 3008.59 654.062 3011.49 652.912 3013.8C651.762 3016.12 650.035 3015.54 650.034 3012.64C650.033 3009.75 651.762 2985.44 652.912 2975.6C654.062 2965.76 647.731 2968.66 647.731 2975.6V2990.07C647.731 2994.12 644.279 2994.7 643.126 2991.23C641.974 2987.76 641.401 2986.02 640.248 2980.81C639.096 2975.6 632.764 2977.34 636.219 2986.02C639.674 2994.7 643.701 3003.96 645.429 3010.33C647.157 3016.7 643.126 3019.01 640.248 3014.96C637.37 3010.91 630.462 2998.17 628.735 2994.7C627.008 2991.23 622.978 2995.86 624.706 2998.17C626.434 3000.49 629.885 3005.7 630.462 3006.86C631.039 3008.01 631.615 3009.75 629.887 3009.17C628.162 3008.59 628.161 3008.59 624.728 3005.14L624.706 3005.12C621.251 3001.65 620.675 3008.01 622.979 3009.17C625.283 3010.33 631.037 3014.96 632.189 3016.7C633.342 3018.43 639.671 3024.22 643.126 3031.74C646.581 3039.27 642.552 3041.01 640.248 3039.27C637.944 3037.53 630.463 3031.17 629.887 3030.01C629.31 3028.85 629.888 3024.22 629.887 3020.75C629.885 3017.27 625.856 3018.43 625.857 3020.75C625.858 3023.06 625.857 3024.8 625.857 3024.8C625.857 3024.8 622.98 3022.48 621.828 3020.75C620.675 3019.01 617.221 3020.75 618.949 3023.06C620.678 3025.38 627.008 3031.74 627.008 3031.74H618.949C616.646 3031.74 616.07 3034.64 618.949 3034.64C621.828 3034.64 627.584 3034.06 629.887 3036.38C632.189 3038.69 636.219 3043.9 636.219 3043.9C636.219 3043.9 632.765 3042.16 628.735 3041.01C624.706 3039.85 621.828 3043.9 627.008 3045.64Z" fill="#113D66"/>
<path d="M58.5025 2945.68C57.1131 2943.94 51.985 2947.21 51.5533 2951.75C46.5047 2952.37 44.6041 2956.51 45.0674 2957.81C45.5307 2959.12 51.09 2960.85 52.9427 2961.28C54.7954 2961.72 58.0388 2961.72 58.0388 2961.72C48.3302 2965.03 60.356 2974.72 61.7455 2974.72C63.1349 2974.72 67.8883 2974.96 71.0106 2975.15C72.4864 2984.18 76.5897 2982.09 83.9829 2981.66C94.3251 2983.74 100.532 2985.67 107.61 2981.66L106.684 2979.92H109C106.671 2969.88 103.423 2966.1 97.418 2959.55C97.418 2959.55 98.3441 2957.38 98.3446 2955.21C98.345 2953.05 87.2263 2946.54 85.3727 2948.28C83.5192 2950.01 80.2766 2953.05 80.2766 2953.05C80.2766 2953.05 77.9598 2946.98 76.5704 2944.38C75.181 2941.78 64.0614 2953.48 64.0614 2953.48C64.0614 2953.48 59.8919 2947.41 58.5025 2945.68Z" fill="#0F3057"/>
<path d="M1005.53 3007.7C1003.46 3006.89 1000.65 3012.29 1002.55 3016.43C998.488 3019.5 998.914 3024.04 999.966 3024.93C1001.02 3025.82 1006.7 3024.55 1008.52 3024C1010.34 3023.44 1013.15 3021.82 1013.15 3021.82C1006.4 3029.55 1021.66 3031.93 1022.86 3031.23C1024.07 3030.54 1028.3 3028.36 1031.1 3026.97C1036.89 3034.05 1039.4 3030.19 1045.59 3026.12C1055.59 3022.76 1061.93 3021.33 1066.05 3014.31L1064.38 3013.27L1066.39 3012.11C1059.35 3004.58 1054.64 3002.93 1046.17 3000.26C1046.17 3000.26 1045.89 2997.92 1044.8 2996.04C1043.72 2994.16 1030.84 2994.09 1030.1 2996.52C1029.36 2998.95 1028.07 3003.2 1028.07 3003.2C1028.07 3003.2 1023.03 2999.1 1020.53 2997.54C1018.03 2995.98 1014.25 3011.68 1014.25 3011.68C1014.25 3011.68 1007.6 3008.51 1005.53 3007.7Z" fill="#0F3057"/>
<path d="M953.441 2987.1C951.845 2986.42 949.821 2990.6 951.355 2993.91C948.325 2996.23 948.749 2999.82 949.57 3000.55C950.391 3001.27 954.695 3000.39 956.072 2999.99C957.448 2999.6 959.555 2998.38 959.555 2998.38C954.576 3004.32 966.262 3006.53 967.165 3006C968.067 3005.48 971.248 3003.86 973.356 3002.83C977.923 3008.53 979.753 3005.54 984.382 3002.47C991.934 3000.04 996.739 2999.05 999.729 2993.61L998.433 2992.76L999.938 2991.89C994.409 2985.8 990.786 2984.4 984.266 2982.12C984.266 2982.12 984.001 2980.27 983.134 2978.77C982.267 2977.26 972.445 2976.93 971.934 2978.82C971.424 2980.72 970.531 2984.04 970.531 2984.04C970.531 2984.04 966.599 2980.7 964.656 2979.42C962.714 2978.14 960.173 2990.42 960.173 2990.42C960.173 2990.42 955.037 2987.78 953.441 2987.1Z" fill="#0F3057"/>
<path d="M0 3122C81.3022 3136.91 132 3094.5 183.5 3094C235 3093.5 374 3145 374 3145C374 3145 501 3145 545 3145C589 3145 720 3153 720 3153C777.431 3130 811.264 3124.33 876 3133C983.424 3092.78 1036.31 3107.11 1129 3141C1196.99 3147.88 1229.95 3145.11 1283 3133C1351.9 3121.04 1384.51 3126.3 1440 3141V3222H0V3122Z" fill="#0F3057"/>
<path d="M1187.69 3099.01C1192.12 3104.48 1221.29 3144 1221.29 3144H1282.17C1282.17 3144 1293.59 3130.63 1296.12 3123.33C1298.66 3116.03 1305 3092.93 1306.9 3080.16C1308.81 3067.4 1282.17 3073.48 1282.17 3086.24C1282.17 3099.01 1280.9 3115.42 1279.63 3121.51C1278.37 3127.59 1270.76 3127.59 1270.76 3123.33V3060.1C1270.76 3049.76 1249.83 3053.41 1250.46 3065.57C1251.1 3077.73 1252.37 3092.93 1253.64 3112.99C1254.9 3133.06 1245.39 3133.06 1243.49 3111.17C1241.59 3089.28 1237.15 3034.57 1236.51 3026.66C1235.88 3018.76 1211.15 3029.7 1213.68 3043.08C1216.22 3056.45 1228.27 3103.27 1228.27 3103.27C1230.42 3111.42 1229.13 3112.81 1225.1 3112.99C1225.1 3112.99 1217.49 3105.09 1214.95 3101.44C1212.42 3097.79 1211.78 3093.54 1206.71 3085.03C1201.64 3076.52 1183.25 3093.54 1187.69 3099.01Z" fill="#0F3057"/>
<path d="M133.901 3075.73C141.096 3078.06 158.518 3083.77 159.485 3099H176.274C176.274 3099 176.276 3092.8 176.274 3088.92C176.272 3085.04 178.674 3085.04 182.67 3081.16C186.666 3077.28 189.066 3079.61 198.66 3079.61C208.254 3079.61 204.258 3071.85 198.66 3072.63C193.062 3073.4 195.46 3073.4 192.264 3073.41C189.068 3073.41 189.068 3071.85 192.264 3069.53C195.46 3067.2 212.253 3061 217.848 3057.89C223.443 3054.79 216.523 3049.18 213.851 3051.69C211.178 3054.2 212.25 3053.24 211.452 3054.02C210.654 3054.79 206.657 3054.79 208.254 3050.14C209.851 3045.48 214.652 3040.83 218.648 3036.18C222.643 3031.52 217.047 3023.77 211.452 3032.3C205.857 3040.83 200.257 3052.46 199.46 3054.79C198.662 3057.12 193.863 3058.67 193.863 3054.02C193.863 3049.36 193.865 3053.24 193.863 3050.14C193.861 3047.03 189.064 3045.48 188.267 3050.14C187.469 3054.79 187.467 3054.01 186.668 3057.12C185.868 3060.22 182.668 3065.65 180.272 3068.75C177.875 3071.85 172.278 3074.18 172.277 3068.75C172.275 3063.32 173.078 3055.57 173.076 3050.91C173.074 3046.26 188.267 3040.06 190.665 3038.5C193.064 3036.95 193.861 3033.85 189.866 3036.18C185.87 3038.5 187.467 3037.73 185.868 3038.5C184.269 3039.28 181.872 3036.18 184.269 3034.63C186.666 3033.07 188.267 3033.07 193.863 3028.42C199.46 3023.77 193.863 3019.89 189.866 3023.77C185.868 3027.65 182.668 3031.52 181.071 3033.07C179.474 3034.63 173.877 3036.18 176.274 3033.07C178.671 3029.97 193.065 3002.05 197.061 2995.85C201.057 2989.64 195.46 2984.99 192.264 2991.19C189.068 2997.4 189.864 2998.95 188.267 3001.28C186.669 3003.6 183.471 3005.15 184.269 3001.28C185.067 2997.4 184.269 2974.13 184.269 2969.48C184.269 2964.82 179.47 2961.72 179.472 2971.03C179.474 2980.33 177.871 3016.79 176.274 3021.44C174.677 3026.09 171.475 3029.97 169.878 3033.07C168.281 3036.18 165.882 3035.4 165.881 3031.52C165.879 3027.65 168.281 2995.07 169.878 2981.89C171.475 2968.7 162.683 2972.58 162.683 2981.89V3001.28C162.683 3006.7 157.887 3007.48 156.287 3002.83C154.686 2998.17 153.89 2995.85 152.289 2988.87C150.688 2981.89 141.894 2984.21 146.693 2995.85C151.491 3007.48 157.084 3019.89 159.485 3028.42C161.885 3036.95 156.287 3040.05 152.289 3034.63C148.292 3029.2 138.698 3012.13 136.299 3007.48C133.901 3002.83 128.302 3009.03 130.703 3012.13C133.103 3015.24 137.896 3022.22 138.698 3023.77C139.499 3025.32 140.298 3027.65 137.898 3026.87C135.503 3026.1 135.501 3026.09 130.734 3021.47L130.703 3021.44C125.904 3016.79 125.104 3025.32 128.304 3026.87C131.504 3028.42 139.495 3034.63 141.096 3036.95C142.697 3039.28 151.488 3047.04 156.287 3057.12C161.085 3067.2 155.489 3069.53 152.289 3067.2C149.089 3064.87 138.699 3056.34 137.898 3054.79C137.097 3053.24 137.9 3047.04 137.898 3042.38C137.896 3037.73 132.3 3039.28 132.302 3042.38C132.303 3045.48 132.302 3047.81 132.302 3047.81C132.302 3047.81 128.306 3044.71 126.705 3042.38C125.104 3040.05 120.307 3042.38 122.708 3045.48C125.108 3048.59 133.901 3057.12 133.901 3057.12H122.708C119.508 3057.12 118.709 3061 122.708 3061C126.706 3061 134.7 3060.22 137.898 3063.32C141.096 3066.43 146.693 3073.41 146.693 3073.41C146.693 3073.41 141.896 3071.08 136.299 3069.53C130.703 3067.98 126.705 3073.41 133.901 3075.73Z" fill="#0F3057"/>
<path d="M728.364 3143.99L727.31 3154H721.511C721.511 3154 723.094 3145.19 722.565 3143.99C722.037 3142.79 718.349 3140.39 713.604 3137.99C708.858 3135.59 708.86 3133.98 706.75 3129.58C704.64 3125.18 707.278 3123.58 710.968 3127.18C714.658 3130.78 718.875 3133.58 719.402 3134.38C719.93 3135.18 722.038 3134.78 721.511 3133.18C720.984 3131.58 716.239 3121.57 714.658 3117.97C713.076 3114.37 714.658 3106.36 714.429 3103.16C714.201 3099.96 719.93 3095.95 720.457 3103.16C720.984 3110.37 720.984 3118.37 721.511 3120.77C722.038 3123.18 724.674 3125.18 724.674 3125.18L729.946 3095.95C729.946 3095.95 722.567 3089.55 719.93 3087.55C717.292 3085.55 715.186 3081.94 714.131 3079.14C713.075 3076.34 712.023 3074.34 712.549 3070.73C713.075 3067.13 717.82 3068.33 718.348 3070.73C718.877 3073.14 719.928 3077.54 720.457 3078.74C720.985 3079.94 725.201 3084.34 725.728 3085.14C726.256 3085.95 728.366 3085.95 727.837 3083.94C727.309 3081.94 726.256 3078.34 725.728 3073.94C725.201 3069.53 726.257 3066.73 726.256 3063.53C726.254 3060.33 731.526 3059.92 731.527 3063.53C731.529 3067.13 732.054 3080.74 732.054 3080.74H733.109C733.109 3080.74 737.327 3052.72 735.218 3053.12C733.108 3053.52 723.621 3048.32 721.511 3045.91C719.401 3043.51 715.714 3039.91 713.604 3036.71C711.494 3033.5 715.711 3032.7 718.348 3034.7C720.985 3036.71 729.945 3043.51 730.473 3044.31C731.001 3045.11 732.056 3044.31 731.527 3043.51C730.999 3042.71 724.675 3034.3 724.147 3033.5C723.618 3032.7 723.621 3032.3 723.093 3028.7C722.564 3025.1 725.73 3024.7 728.366 3027.5C731.001 3030.3 731 3031.1 731.529 3031.5C732.057 3031.9 735.218 3041.51 735.218 3041.51C735.218 3041.51 733.637 3019.89 733.109 3019.09C732.58 3018.29 724.147 3015.89 721.511 3014.29C718.875 3012.69 717.295 3010.69 715.185 3007.88C713.075 3005.08 718.348 3003.88 719.93 3005.88C721.511 3007.88 721.511 3008.68 723.62 3009.88C725.728 3011.09 728.891 3012.69 728.891 3012.69C728.891 3012.69 722.567 2999.88 720.984 2997.07C719.401 2994.27 724.673 2992.67 725.728 2995.47C726.784 2998.28 733.109 3011.49 733.109 3011.49C733.109 3011.49 735.219 3004.28 735.218 3001.88C735.216 2999.48 734.692 2999.88 734.163 2996.27C733.635 2992.67 738.908 2993.87 739.435 2996.27C739.958 2998.66 739.961 3001.04 739.962 3002.25L739.962 3002.28C739.963 3003.48 737.853 3011.89 737.853 3011.89C737.853 3011.89 742.072 3006.68 743.125 3004.28C744.178 3001.88 744.181 3001.88 745.234 2999.48C746.287 2997.07 751.559 2997.07 749.451 2999.88C747.344 3002.68 746.814 3003.48 746.288 3007.08C745.762 3010.69 736.799 3019.89 736.799 3019.89L739.435 3042.71C739.435 3042.71 742.599 3028.7 743.125 3026.3C743.651 3023.9 748.397 3021.89 748.397 3026.3C748.397 3030.7 746.288 3042.71 746.288 3042.71C746.288 3042.71 750.507 3037.51 751.033 3035.51C751.559 3033.5 754.196 3028.7 754.196 3025.5C754.196 3022.29 759.466 3023.9 759.467 3026.3C759.469 3028.7 759.467 3029.9 758.413 3032.3C757.359 3034.7 754.196 3040.31 752.614 3042.71C751.033 3045.11 747.344 3048.72 744.707 3051.12C742.069 3053.52 739.435 3053.92 739.435 3053.92L738.381 3080.74C738.381 3080.74 746.289 3068.73 748.397 3064.73C750.504 3060.73 756.303 3062.73 754.196 3066.33C752.098 3069.92 751.565 3070.73 750.001 3073.1L749.978 3073.14C748.397 3075.54 742.598 3084.74 742.598 3084.74C742.598 3084.74 748.395 3081.94 749.978 3080.74C751.561 3079.54 754.723 3073.94 757.359 3071.53C759.995 3069.13 763.158 3073.14 761.576 3075.14C759.995 3077.14 757.359 3080.74 755.25 3083.14C753.141 3085.55 745.762 3091.55 742.598 3093.15C739.434 3094.75 735.218 3095.95 735.218 3095.95L730.473 3127.58C730.473 3127.58 734.163 3120.37 735.218 3117.57C736.272 3114.77 737.326 3111.97 737.326 3107.96C737.326 3103.96 742.071 3103.56 742.598 3107.96C743.125 3112.37 743.125 3111.17 742.598 3113.17C742.071 3115.17 739.962 3119.17 739.435 3120.77C738.908 3122.37 735.218 3133.18 735.218 3133.18C735.218 3133.18 742.071 3126.38 744.179 3123.98C746.288 3121.57 752.614 3110.37 753.141 3107.96C753.668 3105.56 753.668 3104.36 753.141 3101.96C752.614 3099.56 759.467 3097.96 759.995 3101.96C760.522 3105.96 760.522 3110.37 759.995 3111.97C759.467 3113.57 741.544 3137.99 739.435 3139.59C737.326 3141.19 733.087 3142.81 728.364 3143.99Z" fill="#0F3057"/>
<path d="M893.753 3142C893.753 3142 917.927 3119.4 921.196 3116.58C924.466 3113.75 927.729 3106.69 930.344 3103.16C932.96 3099.63 927.079 3097.51 924.463 3100.34C921.848 3103.16 915.971 3113.75 913.355 3116.58C910.739 3119.4 904.863 3122.93 902.9 3124.35C900.938 3125.76 898.324 3123.64 900.287 3121.52C902.249 3119.4 912.7 3107.4 915.316 3103.16C917.931 3098.92 924.463 3089.04 926.424 3083.39C928.384 3077.74 926.424 3059.38 926.424 3055.14C926.424 3050.91 921.196 3051.61 921.196 3055.14C921.196 3058.68 920.545 3069.97 919.89 3074.21C919.234 3078.45 896.805 3119.35 895.059 3119.4C893.314 3119.46 891.79 3119.4 893.753 3116.58C895.715 3113.75 905.918 3097.91 909.435 3083.39C912.952 3068.87 906.166 3035.37 904.207 3031.13C902.249 3026.9 893.755 3026.9 895.059 3034.67C896.364 3042.43 898.329 3061.5 898.326 3067.85C898.324 3074.21 895.061 3088.33 893.753 3091.86C892.444 3095.4 884.605 3121.52 884.605 3121.52C884.605 3121.52 891.137 3067.15 891.139 3060.09C891.141 3053.02 889.176 3043.85 888.525 3039.61C887.874 3035.37 882.646 3038.19 882.644 3041.02C882.642 3043.85 878.724 3124.35 878.724 3124.35C878.724 3124.35 876.108 3083.39 876.11 3079.86C876.112 3076.33 868.92 3048.08 867.613 3045.26C866.307 3042.43 858.466 3024.78 856.507 3022.66C854.549 3020.54 849.516 3023.26 851.28 3034.67C851.28 3034.67 863.697 3069.27 865.002 3076.33C866.307 3083.39 871.536 3119.4 871.536 3119.4C871.536 3119.4 859.772 3093.98 858.468 3090.45C857.163 3086.92 853.238 3069.27 852.587 3064.32C851.935 3059.38 846.055 3060.09 846.053 3064.32C846.05 3068.56 847.028 3082.43 851.28 3096.1C855.932 3107.5 859.171 3113.56 865.002 3124.35C864.103 3125.41 840.137 3102.57 836.251 3098.22C832.365 3093.86 829.065 3098.92 832.331 3103.16C835.596 3107.4 843.439 3116.58 844.746 3117.99C846.053 3119.4 865.671 3133.15 866.962 3134.94C868.254 3136.72 868.269 3139.18 866.962 3138.47C865.655 3137.76 848.666 3127.88 844.746 3124.35C840.825 3120.82 835.598 3123.64 839.518 3127.88C843.439 3132.11 847.339 3135.99 856.507 3142H893.753Z" fill="#0F3057"/>
<path d="M767.576 3133.55L766.813 3142H762.617C762.617 3142 763.762 3134.57 763.38 3133.55C762.997 3132.54 760.191 3130.58 757.657 3128.1C755.123 3125.61 754.352 3125.26 751.925 3121.64C749.498 3118.02 752.316 3116.32 754.986 3119.36C757.657 3122.4 760.709 3124.77 761.091 3125.44C761.472 3126.12 762.998 3125.78 762.617 3124.43C762.235 3123.08 758.324 3115.19 757.657 3111.59C756.99 3107.99 757.657 3101.79 757.492 3099.08C757.326 3096.38 761.472 3093 761.854 3099.08C762.235 3105.17 762.235 3111.92 762.617 3113.95C762.998 3115.98 764.906 3117.67 764.906 3117.67L768.721 3093C768.721 3093 763.381 3087.59 761.472 3085.9C759.564 3084.21 758.039 3081.17 757.276 3078.81C756.512 3076.44 755.75 3074.75 756.131 3071.71C756.512 3068.67 759.945 3069.68 760.328 3071.71C760.71 3073.74 760.99 3076.69 762.056 3078.81C763.123 3080.92 765.287 3083.2 765.669 3083.88C766.05 3084.55 767.577 3084.55 767.195 3082.86C766.812 3081.17 766.05 3078.13 765.669 3074.41C765.287 3070.7 766.051 3068.33 766.05 3065.63C766.049 3062.92 769.864 3062.59 769.865 3065.63C769.866 3068.67 770.247 3080.16 770.247 3080.16H771.01C771.01 3080.16 774.063 3056.5 772.536 3056.84C771.009 3057.18 765.288 3053.16 763.761 3051.13C762.234 3049.1 758.421 3045.69 756.894 3042.99C755.367 3040.28 758.419 3039.61 760.328 3041.3C762.236 3042.99 768.72 3048.73 769.102 3049.41C769.485 3050.08 770.248 3049.41 769.865 3048.73C769.483 3048.05 765.638 3041.38 765.256 3040.7C764.873 3040.02 764.144 3039.27 763.761 3036.23C763.379 3033.19 765.67 3032.85 767.577 3035.21C769.485 3037.58 769.144 3037.48 769.866 3038.59C770.588 3039.71 774.321 3048.65 774.321 3048.65C774.321 3048.65 777.878 3036.23 778.259 3034.2C778.639 3032.17 782.074 3030.48 782.074 3034.2C782.074 3037.92 780.548 3048.05 780.548 3048.05C780.548 3048.05 783.218 3043.66 783.599 3041.97C783.98 3040.28 784.986 3036.73 785.519 3034.25C786.053 3031.76 789.852 3032.17 790.085 3034.2C790.319 3036.23 789.926 3036.84 789.322 3039.27C788.721 3041.69 786.286 3046 785.137 3048.03L785.126 3048.05C783.981 3050.08 781.312 3053.12 779.403 3055.15C777.495 3057.18 775.588 3057.52 775.588 3057.52L774.825 3080.16C774.825 3080.16 780.549 3070.02 782.074 3066.64C783.599 3063.26 787.795 3064.95 786.27 3067.99C784.753 3071.02 784.367 3071.7 783.235 3073.71L783.218 3073.74C782.074 3075.76 777.877 3083.54 777.877 3083.54C777.877 3083.54 783.021 3081.69 784.986 3079.43C786.951 3077.18 786.652 3074.41 788.559 3072.39C790.467 3070.36 791.385 3072.98 790.848 3075.16C790.312 3077.34 788.874 3080.83 787.348 3082.86C785.822 3084.89 780.167 3089.28 777.877 3090.63C775.587 3091.99 772.536 3093 772.536 3093L769.102 3119.7C769.102 3119.7 770.588 3114.69 772.536 3111.25C774.484 3107.81 774.062 3106.52 774.062 3103.14C774.062 3099.76 777.877 3099.04 777.877 3103.14C777.877 3107.24 778.054 3104.76 777.877 3107.53C777.7 3110.3 777.114 3111.23 775.588 3113.95C774.062 3116.67 772.536 3124.43 772.536 3124.43C772.536 3124.43 776.355 3119.63 778.587 3116.18C780.819 3112.72 782.853 3108.73 784.453 3105.75C786.053 3102.77 785.889 3100.1 785.507 3098.07C785.126 3096.04 790.467 3094.36 790.467 3098.07C790.467 3101.78 790.699 3102.77 789.252 3106.25C787.805 3109.72 779.121 3128.1 775.588 3129.83C772.056 3131.57 770.994 3132.56 767.576 3133.55Z" fill="#0F3057"/>
</g>
<defs>
<linearGradient id="paint0_linear_1196_14" x1="720" y1="0" x2="720.001" y2="3222" gradientUnits="userSpaceOnUse">
<stop stop-color="#64BBF9"/>
<stop offset="1" stop-color="#106AAB"/>
</linearGradient>
<linearGradient id="paint1_linear_1196_14" x1="159.25" y1="-0.5" x2="159.25" y2="1267.5" gradientUnits="userSpaceOnUse">
<stop stop-color="white" stop-opacity="0.75"/>
<stop offset="1" stop-color="white" stop-opacity="0"/>
</linearGradient>
<linearGradient id="paint2_linear_1196_14" x1="634.25" y1="-0.5" x2="634.25" y2="3374" gradientUnits="userSpaceOnUse">
<stop stop-color="white" stop-opacity="0.7"/>
<stop offset="1" stop-color="white" stop-opacity="0"/>
</linearGradient>
<linearGradient id="paint3_linear_1196_14" x1="1195.86" y1="-1" x2="1195.86" y2="3373.5" gradientUnits="userSpaceOnUse">
<stop stop-color="white"/>
<stop offset="1" stop-color="white" stop-opacity="0"/>
</linearGradient>
<clipPath id="clip0_1196_14">
<rect width="1440" height="3222" fill="white"/>
</clipPath>
</defs>
</svg>
