<svg width="12" height="12" viewBox="0 0 12 12" fill="none" xmlns="http://www.w3.org/2000/svg">
<mask id="path-1-inside-1_469_127" fill="white">
<path d="M3.4038 0C3.51519 0 3.62202 0.0442499 3.70079 0.123015C3.77955 0.20178 3.8238 0.308609 3.8238 0.42V1.2054H8.334V0.4254C8.334 0.314009 8.37825 0.20718 8.45702 0.128415C8.53578 0.0496499 8.64261 0.0054 8.754 0.0054C8.86539 0.0054 8.97222 0.0496499 9.05099 0.128415C9.12975 0.20718 9.174 0.314009 9.174 0.4254V1.2054H10.8C11.1182 1.2054 11.4233 1.33175 11.6483 1.55666C11.8733 1.78157 11.9998 2.08664 12 2.4048V10.8006C11.9998 11.1188 11.8733 11.4238 11.6483 11.6487C11.4233 11.8737 11.1182 12 10.8 12H1.2C0.881844 12 0.57671 11.8737 0.351684 11.6487C0.126658 11.4238 0.000159078 11.1188 0 10.8006L0 2.4048C0.000159078 2.08664 0.126658 1.78157 0.351684 1.55666C0.57671 1.33175 0.881844 1.2054 1.2 1.2054H2.9838V0.4194C2.98396 0.308113 3.02828 0.201439 3.10703 0.122803C3.18578 0.0441674 3.29251 -1.13558e-07 3.4038 0ZM0.84 4.6452V10.8006C0.84 10.8479 0.849312 10.8947 0.867403 10.9384C0.885495 10.982 0.912013 11.0217 0.945442 11.0552C0.978871 11.0886 1.01856 11.1151 1.06223 11.1332C1.10591 11.1513 1.15272 11.1606 1.2 11.1606H10.8C10.8473 11.1606 10.8941 11.1513 10.9378 11.1332C10.9814 11.1151 11.0211 11.0886 11.0546 11.0552C11.088 11.0217 11.1145 10.982 11.1326 10.9384C11.1507 10.8947 11.16 10.8479 11.16 10.8006V4.6536L0.84 4.6452ZM4.0002 8.7714V9.771H3V8.7714H4.0002ZM6.4998 8.7714V9.771H5.5002V8.7714H6.4998ZM9 8.7714V9.771H7.9998V8.7714H9ZM4.0002 6.3852V7.3848H3V6.3852H4.0002ZM6.4998 6.3852V7.3848H5.5002V6.3852H6.4998ZM9 6.3852V7.3848H7.9998V6.3852H9ZM2.9838 2.0448H1.2C1.15272 2.0448 1.10591 2.05411 1.06223 2.0722C1.01856 2.0903 0.978871 2.11681 0.945442 2.15024C0.912013 2.18367 0.885495 2.22336 0.867403 2.26703C0.849312 2.31071 0.84 2.35752 0.84 2.4048V3.8058L11.16 3.8142V2.4048C11.16 2.35752 11.1507 2.31071 11.1326 2.26703C11.1145 2.22336 11.088 2.18367 11.0546 2.15024C11.0211 2.11681 10.9814 2.0903 10.9378 2.0722C10.8941 2.05411 10.8473 2.0448 10.8 2.0448H9.174V2.6022C9.174 2.71359 9.12975 2.82042 9.05099 2.89919C8.97222 2.97795 8.86539 3.0222 8.754 3.0222C8.64261 3.0222 8.53578 2.97795 8.45702 2.89919C8.37825 2.82042 8.334 2.71359 8.334 2.6022V2.0448H3.8238V2.5968C3.8238 2.70819 3.77955 2.81502 3.70079 2.89378C3.62202 2.97255 3.51519 3.0168 3.4038 3.0168C3.29241 3.0168 3.18558 2.97255 3.10682 2.89378C3.02805 2.81502 2.9838 2.70819 2.9838 2.5968V2.0448Z"/>
</mask>
<path d="M3.4038 0C3.51519 0 3.62202 0.0442499 3.70079 0.123015C3.77955 0.20178 3.8238 0.308609 3.8238 0.42V1.2054H8.334V0.4254C8.334 0.314009 8.37825 0.20718 8.45702 0.128415C8.53578 0.0496499 8.64261 0.0054 8.754 0.0054C8.86539 0.0054 8.97222 0.0496499 9.05099 0.128415C9.12975 0.20718 9.174 0.314009 9.174 0.4254V1.2054H10.8C11.1182 1.2054 11.4233 1.33175 11.6483 1.55666C11.8733 1.78157 11.9998 2.08664 12 2.4048V10.8006C11.9998 11.1188 11.8733 11.4238 11.6483 11.6487C11.4233 11.8737 11.1182 12 10.8 12H1.2C0.881844 12 0.57671 11.8737 0.351684 11.6487C0.126658 11.4238 0.000159078 11.1188 0 10.8006L0 2.4048C0.000159078 2.08664 0.126658 1.78157 0.351684 1.55666C0.57671 1.33175 0.881844 1.2054 1.2 1.2054H2.9838V0.4194C2.98396 0.308113 3.02828 0.201439 3.10703 0.122803C3.18578 0.0441674 3.29251 -1.13558e-07 3.4038 0ZM0.84 4.6452V10.8006C0.84 10.8479 0.849312 10.8947 0.867403 10.9384C0.885495 10.982 0.912013 11.0217 0.945442 11.0552C0.978871 11.0886 1.01856 11.1151 1.06223 11.1332C1.10591 11.1513 1.15272 11.1606 1.2 11.1606H10.8C10.8473 11.1606 10.8941 11.1513 10.9378 11.1332C10.9814 11.1151 11.0211 11.0886 11.0546 11.0552C11.088 11.0217 11.1145 10.982 11.1326 10.9384C11.1507 10.8947 11.16 10.8479 11.16 10.8006V4.6536L0.84 4.6452ZM4.0002 8.7714V9.771H3V8.7714H4.0002ZM6.4998 8.7714V9.771H5.5002V8.7714H6.4998ZM9 8.7714V9.771H7.9998V8.7714H9ZM4.0002 6.3852V7.3848H3V6.3852H4.0002ZM6.4998 6.3852V7.3848H5.5002V6.3852H6.4998ZM9 6.3852V7.3848H7.9998V6.3852H9ZM2.9838 2.0448H1.2C1.15272 2.0448 1.10591 2.05411 1.06223 2.0722C1.01856 2.0903 0.978871 2.11681 0.945442 2.15024C0.912013 2.18367 0.885495 2.22336 0.867403 2.26703C0.849312 2.31071 0.84 2.35752 0.84 2.4048V3.8058L11.16 3.8142V2.4048C11.16 2.35752 11.1507 2.31071 11.1326 2.26703C11.1145 2.22336 11.088 2.18367 11.0546 2.15024C11.0211 2.11681 10.9814 2.0903 10.9378 2.0722C10.8941 2.05411 10.8473 2.0448 10.8 2.0448H9.174V2.6022C9.174 2.71359 9.12975 2.82042 9.05099 2.89919C8.97222 2.97795 8.86539 3.0222 8.754 3.0222C8.64261 3.0222 8.53578 2.97795 8.45702 2.89919C8.37825 2.82042 8.334 2.71359 8.334 2.6022V2.0448H3.8238V2.5968C3.8238 2.70819 3.77955 2.81502 3.70079 2.89378C3.62202 2.97255 3.51519 3.0168 3.4038 3.0168C3.29241 3.0168 3.18558 2.97255 3.10682 2.89378C3.02805 2.81502 2.9838 2.70819 2.9838 2.5968V2.0448Z" fill="black"/>
<path d="M3.4038 0L3.4038 1H3.4038V0ZM3.8238 1.2054H2.8238V2.2054H3.8238V1.2054ZM8.334 1.2054V2.2054H9.334V1.2054H8.334ZM8.754 0.0054V-0.9946V0.0054ZM9.174 1.2054H8.174V2.2054H9.174V1.2054ZM10.8 1.2054V2.2054V1.2054ZM12 2.4048H13L13 2.4043L12 2.4048ZM12 10.8006L13 10.8011V10.8006H12ZM10.8 12V11V12ZM1.2 12V11L1.2 11L1.2 12ZM0 10.8006H-1L-1 10.8011L0 10.8006ZM0 2.4048L-1 2.4043V2.4048H0ZM1.2 1.2054L1.2 2.2054H1.2V1.2054ZM2.9838 1.2054V2.2054H3.9838V1.2054H2.9838ZM2.9838 0.4194L1.9838 0.417971V0.4194H2.9838ZM0.84 4.6452L0.840814 3.6452L-0.16 3.64439V4.6452H0.84ZM0.84 10.8006H1.84H0.84ZM1.2 11.1606V12.1606V11.1606ZM10.8 11.1606V12.1606V11.1606ZM11.16 4.6536H12.16V3.65441L11.1608 3.6536L11.16 4.6536ZM4.0002 8.7714H5.0002V7.7714H4.0002V8.7714ZM4.0002 9.771V10.771H5.0002V9.771H4.0002ZM3 9.771H2V10.771H3V9.771ZM3 8.7714V7.7714H2V8.7714H3ZM6.4998 8.7714H7.4998V7.7714H6.4998V8.7714ZM6.4998 9.771V10.771H7.4998V9.771H6.4998ZM5.5002 9.771H4.5002V10.771H5.5002V9.771ZM5.5002 8.7714V7.7714H4.5002V8.7714H5.5002ZM9 8.7714H10V7.7714H9V8.7714ZM9 9.771V10.771H10V9.771H9ZM7.9998 9.771H6.9998V10.771H7.9998V9.771ZM7.9998 8.7714V7.7714H6.9998V8.7714H7.9998ZM4.0002 6.3852H5.0002V5.3852H4.0002V6.3852ZM4.0002 7.3848V8.3848H5.0002V7.3848H4.0002ZM3 7.3848H2V8.3848H3V7.3848ZM3 6.3852V5.3852H2V6.3852H3ZM6.4998 6.3852H7.4998V5.3852H6.4998V6.3852ZM6.4998 7.3848V8.3848H7.4998V7.3848H6.4998ZM5.5002 7.3848H4.5002V8.3848H5.5002V7.3848ZM5.5002 6.3852V5.3852H4.5002V6.3852H5.5002ZM9 6.3852H10V5.3852H9V6.3852ZM9 7.3848V8.3848H10V7.3848H9ZM7.9998 7.3848H6.9998V8.3848H7.9998V7.3848ZM7.9998 6.3852V5.3852H6.9998V6.3852H7.9998ZM2.9838 2.0448H3.9838V1.0448H2.9838V2.0448ZM1.2 2.0448V3.0448V2.0448ZM0.84 3.8058H-0.16V4.80499L0.839186 4.8058L0.84 3.8058ZM11.16 3.8142L11.1592 4.8142L12.16 4.81501V3.8142H11.16ZM11.16 2.4048H12.16H11.16ZM10.8 2.0448V1.0448V2.0448ZM9.174 2.0448V1.0448H8.174V2.0448H9.174ZM8.334 2.0448H9.334V1.0448H8.334V2.0448ZM3.8238 2.0448V1.0448H2.8238V2.0448H3.8238ZM3.8238 2.5968H4.8238H3.8238ZM2.9838 2.5968H1.9838H2.9838ZM3.4038 1C3.24997 1 3.10245 0.938893 2.99368 0.830122L4.40789 -0.584092C4.14159 -0.850394 3.78041 -1 3.4038 -1V1ZM2.99368 0.830122C2.88491 0.721351 2.8238 0.573825 2.8238 0.42H4.8238C4.8238 0.0433928 4.67419 -0.31779 4.40789 -0.584092L2.99368 0.830122ZM2.8238 0.42V1.2054H4.8238V0.42H2.8238ZM3.8238 2.2054H8.334V0.2054H3.8238V2.2054ZM9.334 1.2054V0.4254H7.334V1.2054H9.334ZM9.334 0.4254C9.334 0.579224 9.27289 0.726749 9.16412 0.835522L7.74991 -0.578692C7.48361 -0.312389 7.334 0.0487945 7.334 0.4254H9.334ZM9.16412 0.835522C9.05535 0.944293 8.90783 1.0054 8.754 1.0054V-0.9946C8.37739 -0.9946 8.01621 -0.844994 7.74991 -0.578692L9.16412 0.835522ZM8.754 1.0054C8.60017 1.0054 8.45265 0.944292 8.34388 0.835522L9.75809 -0.578692C9.49179 -0.844993 9.13061 -0.9946 8.754 -0.9946V1.0054ZM8.34388 0.835522C8.23511 0.726752 8.174 0.579227 8.174 0.4254H10.174C10.174 0.048791 10.0244 -0.312391 9.75809 -0.578692L8.34388 0.835522ZM8.174 0.4254V1.2054H10.174V0.4254H8.174ZM9.174 2.2054H10.8V0.2054H9.174V2.2054ZM10.8 2.2054C10.853 2.2054 10.9039 2.22646 10.9414 2.26394L12.3552 0.849376C11.9427 0.437034 11.3833 0.2054 10.8 0.2054V2.2054ZM10.9414 2.26394C10.9789 2.30143 11 2.35227 11 2.4053L13 2.4043C12.9997 1.82101 12.7678 1.26172 12.3552 0.849376L10.9414 2.26394ZM11 2.4048V10.8006H13V2.4048H11ZM11 10.8001C11 10.8531 10.9789 10.904 10.9414 10.9415L12.3552 12.356C12.7678 11.9437 12.9997 11.3844 13 10.8011L11 10.8001ZM10.9414 10.9415C10.9039 10.9789 10.853 11 10.8 11V13C11.3833 13 11.9427 12.7684 12.3552 12.356L10.9414 10.9415ZM10.8 11H1.2V13H10.8V11ZM1.2 11C1.14697 11 1.09612 10.9789 1.05861 10.9415L-0.355246 12.356C0.0573031 12.7684 0.616715 13 1.2 13L1.2 11ZM1.05861 10.9415C1.02111 10.904 1.00003 10.8531 1 10.8001L-1 10.8011C-0.999708 11.3844 -0.767795 11.9437 -0.355246 12.356L1.05861 10.9415ZM1 10.8006V2.4048H-1V10.8006H1ZM1 2.4053C1.00003 2.35227 1.02111 2.30143 1.05861 2.26394L-0.355246 0.849376C-0.767794 1.26172 -0.999708 1.82101 -1 2.4043L1 2.4053ZM1.05861 2.26394C1.09612 2.22646 1.14697 2.2054 1.2 2.2054L1.2 0.2054C0.616714 0.2054 0.0573025 0.437034 -0.355246 0.849376L1.05861 2.26394ZM1.2 2.2054H2.9838V0.2054H1.2V2.2054ZM3.9838 1.2054V0.4194H1.9838V1.2054H3.9838ZM3.9838 0.420829C3.98358 0.574511 3.92238 0.721823 3.81363 0.830415L2.40043 -0.584809C2.13418 -0.318946 1.98434 0.0417154 1.9838 0.417971L3.9838 0.420829ZM3.81363 0.830415C3.70488 0.939007 3.55748 1 3.4038 1L3.4038 -1C3.02754 -1 2.66667 -0.850672 2.40043 -0.584809L3.81363 0.830415ZM-0.16 4.6452V10.8006H1.84V4.6452H-0.16ZM-0.16 10.8006C-0.16 10.9792 -0.124823 11.156 -0.0564761 11.321L1.79128 10.5557C1.82345 10.6333 1.84 10.7166 1.84 10.8006H-0.16ZM-0.0564761 11.321C0.0118694 11.4861 0.112046 11.636 0.238335 11.7623L1.65255 10.3481C1.71198 10.4075 1.75912 10.478 1.79128 10.5557L-0.0564761 11.321ZM0.238335 11.7623C0.364621 11.8886 0.514545 11.9887 0.679551 12.0571L1.44492 10.2093C1.52257 10.2415 1.59312 10.2886 1.65255 10.3481L0.238335 11.7623ZM0.679551 12.0571C0.84456 12.1254 1.02141 12.1606 1.2 12.1606V10.1606C1.28404 10.1606 1.36726 10.1772 1.44492 10.2093L0.679551 12.0571ZM1.2 12.1606H10.8V10.1606H1.2V12.1606ZM10.8 12.1606C10.9786 12.1606 11.1554 12.1254 11.3204 12.0571L10.5551 10.2093C10.6327 10.1772 10.716 10.1606 10.8 10.1606V12.1606ZM11.3204 12.0571C11.4855 11.9887 11.6354 11.8886 11.7617 11.7623L10.3475 10.3481C10.4069 10.2886 10.4774 10.2415 10.5551 10.2093L11.3204 12.0571ZM11.7617 11.7623C11.888 11.636 11.9881 11.486 12.0565 11.321L10.2087 10.5557C10.2409 10.478 10.288 10.4075 10.3475 10.3481L11.7617 11.7623ZM12.0565 11.321C12.1248 11.1561 12.16 10.9792 12.16 10.8006H10.16C10.16 10.7165 10.1766 10.6333 10.2087 10.5557L12.0565 11.321ZM12.16 10.8006V4.6536H10.16V10.8006H12.16ZM11.1608 3.6536L0.840814 3.6452L0.839186 5.6452L11.1592 5.6536L11.1608 3.6536ZM3.0002 8.7714V9.771H5.0002V8.7714H3.0002ZM4.0002 8.771H3V10.771H4.0002V8.771ZM4 9.771V8.7714H2V9.771H4ZM3 9.7714H4.0002V7.7714H3V9.7714ZM5.4998 8.7714V9.771H7.4998V8.7714H5.4998ZM6.4998 8.771H5.5002V10.771H6.4998V8.771ZM6.5002 9.771V8.7714H4.5002V9.771H6.5002ZM5.5002 9.7714H6.4998V7.7714H5.5002V9.7714ZM8 8.7714V9.771H10V8.7714H8ZM9 8.771H7.9998V10.771H9V8.771ZM8.9998 9.771V8.7714H6.9998V9.771H8.9998ZM7.9998 9.7714H9V7.7714H7.9998V9.7714ZM3.0002 6.3852V7.3848H5.0002V6.3852H3.0002ZM4.0002 6.3848H3V8.3848H4.0002V6.3848ZM4 7.3848V6.3852H2V7.3848H4ZM3 7.3852H4.0002V5.3852H3V7.3852ZM5.4998 6.3852V7.3848H7.4998V6.3852H5.4998ZM6.4998 6.3848H5.5002V8.3848H6.4998V6.3848ZM6.5002 7.3848V6.3852H4.5002V7.3848H6.5002ZM5.5002 7.3852H6.4998V5.3852H5.5002V7.3852ZM8 6.3852V7.3848H10V6.3852H8ZM9 6.3848H7.9998V8.3848H9V6.3848ZM8.9998 7.3848V6.3852H6.9998V7.3848H8.9998ZM7.9998 7.3852H9V5.3852H7.9998V7.3852ZM2.9838 1.0448H1.2V3.0448H2.9838V1.0448ZM1.2 1.0448C1.0214 1.0448 0.844554 1.07998 0.679551 1.14832L1.44492 2.99608C1.36727 3.02825 1.28405 3.0448 1.2 3.0448V1.0448ZM0.679551 1.14832C0.514547 1.21667 0.364622 1.31685 0.238335 1.44313L1.65255 2.85735C1.59312 2.91678 1.52257 2.96392 1.44492 2.99608L0.679551 1.14832ZM0.238335 1.44313C0.112047 1.56942 0.0118703 1.71935 -0.0564761 1.88435L1.79128 2.64972C1.75912 2.72737 1.71198 2.79792 1.65255 2.85735L0.238335 1.44313ZM-0.0564761 1.88435C-0.124822 2.04935 -0.16 2.2262 -0.16 2.4048H1.84C1.84 2.48885 1.82345 2.57207 1.79128 2.64972L-0.0564761 1.88435ZM-0.16 2.4048V3.8058H1.84V2.4048H-0.16ZM0.839186 4.8058L11.1592 4.8142L11.1608 2.8142L0.840814 2.8058L0.839186 4.8058ZM12.16 3.8142V2.4048H10.16V3.8142H12.16ZM12.16 2.4048C12.16 2.22619 12.1248 2.04934 12.0565 1.88435L10.2087 2.64972C10.1766 2.57208 10.16 2.48886 10.16 2.4048H12.16ZM12.0565 1.88435C11.9881 1.71936 11.888 1.56943 11.7617 1.44313L10.3475 2.85735C10.288 2.79791 10.2409 2.72736 10.2087 2.64972L12.0565 1.88435ZM11.7617 1.44313C11.6354 1.31685 11.4855 1.21667 11.3204 1.14832L10.5551 2.99608C10.4774 2.96392 10.4069 2.91678 10.3475 2.85735L11.7617 1.44313ZM11.3204 1.14832C11.1554 1.07998 10.9786 1.0448 10.8 1.0448V3.0448C10.716 3.0448 10.6327 3.02825 10.5551 2.99608L11.3204 1.14832ZM10.8 1.0448H9.174V3.0448H10.8V1.0448ZM8.174 2.0448V2.6022H10.174V2.0448H8.174ZM8.174 2.6022C8.174 2.44837 8.23511 2.30085 8.34388 2.19208L9.75809 3.60629C10.0244 3.33999 10.174 2.97881 10.174 2.6022H8.174ZM8.34388 2.19208C8.45265 2.08331 8.60017 2.0222 8.754 2.0222V4.0222C9.13061 4.0222 9.49179 3.87259 9.75809 3.60629L8.34388 2.19208ZM8.754 2.0222C8.90783 2.0222 9.05535 2.08331 9.16412 2.19208L7.74991 3.60629C8.01621 3.87259 8.37739 4.0222 8.754 4.0222V2.0222ZM9.16412 2.19208C9.27289 2.30085 9.334 2.44838 9.334 2.6022H7.334C7.334 2.97881 7.48361 3.33999 7.74991 3.60629L9.16412 2.19208ZM9.334 2.6022V2.0448H7.334V2.6022H9.334ZM8.334 1.0448H3.8238V3.0448H8.334V1.0448ZM2.8238 2.0448V2.5968H4.8238V2.0448H2.8238ZM2.8238 2.5968C2.8238 2.44297 2.88491 2.29545 2.99368 2.18668L4.40789 3.60089C4.67419 3.33459 4.8238 2.97341 4.8238 2.5968H2.8238ZM2.99368 2.18668C3.10245 2.07791 3.24998 2.0168 3.4038 2.0168V4.0168C3.78041 4.0168 4.14159 3.86719 4.40789 3.60089L2.99368 2.18668ZM3.4038 2.0168C3.55763 2.0168 3.70515 2.07791 3.81392 2.18668L2.39971 3.60089C2.66601 3.86719 3.02719 4.0168 3.4038 4.0168V2.0168ZM3.81392 2.18668C3.92269 2.29545 3.9838 2.44297 3.9838 2.5968H1.9838C1.9838 2.97341 2.13341 3.33459 2.39971 3.60089L3.81392 2.18668ZM3.9838 2.5968V2.0448H1.9838V2.5968H3.9838Z" fill="#505050" mask="url(#path-1-inside-1_469_127)"/>
</svg>
