<svg width="122" height="763" viewBox="0 0 122 763" fill="none" xmlns="http://www.w3.org/2000/svg">
<path d="M62.4701 762V763H63.4701V762H62.4701ZM62.4701 390V389H61.4701V390H62.4701ZM71 391C71.5523 391 72 390.552 72 390C72 389.448 71.5523 389 71 389V391ZM32 763H33.9044V761H32V763ZM37.7132 763H41.5219V761H37.7132V763ZM45.3307 763H49.1395V761H45.3307V763ZM52.9482 763H56.757V761H52.9482V763ZM60.5658 763H62.4701V761H60.5658V763ZM63.4701 762V760.021H61.4701V762H63.4701ZM63.4701 756.064V752.106H61.4701V756.064H63.4701ZM63.4701 748.149V744.192H61.4701V748.149H63.4701ZM63.4701 740.234V736.277H61.4701V740.234H63.4701ZM63.4701 732.319V728.362H61.4701V732.319H63.4701ZM63.4701 724.404V720.447H61.4701V724.404H63.4701ZM63.4701 716.489V712.532H61.4701V716.489H63.4701ZM63.4701 708.574V704.617H61.4701V708.574H63.4701ZM63.4701 700.66V696.702H61.4701V700.66H63.4701ZM63.4701 692.745V688.787H61.4701V692.745H63.4701ZM63.4701 684.83V680.872H61.4701V684.83H63.4701ZM63.4701 676.915V672.957H61.4701V676.915H63.4701ZM63.4701 669V665.043H61.4701V669H63.4701ZM63.4701 661.085V657.128H61.4701V661.085H63.4701ZM63.4701 653.17V649.213H61.4701V653.17H63.4701ZM63.4701 645.255V641.298H61.4701V645.255H63.4701ZM63.4701 637.34V633.383H61.4701V637.34H63.4701ZM63.4701 629.426V625.468H61.4701V629.426H63.4701ZM63.4701 621.511V617.553H61.4701V621.511H63.4701ZM63.4701 613.596V609.638H61.4701V613.596H63.4701ZM63.4701 605.681V601.723H61.4701V605.681H63.4701ZM63.4701 597.766V593.809H61.4701V597.766H63.4701ZM63.4701 589.851V585.894H61.4701V589.851H63.4701ZM63.4701 581.936V577.979H61.4701V581.936H63.4701ZM63.4701 574.021V570.064H61.4701V574.021H63.4701ZM63.4701 566.106V562.149H61.4701V566.106H63.4701ZM63.4701 558.192V554.234H61.4701V558.192H63.4701ZM63.4701 550.277V546.319H61.4701V550.277H63.4701ZM63.4701 542.362V538.404H61.4701V542.362H63.4701ZM63.4701 534.447V530.49H61.4701V534.447H63.4701ZM63.4701 526.532V522.575H61.4701V526.532H63.4701ZM63.4701 518.617V514.66H61.4701V518.617H63.4701ZM63.4701 510.702V506.745H61.4701V510.702H63.4701ZM63.4701 502.787V498.83H61.4701V502.787H63.4701ZM63.4701 494.872V490.915H61.4701V494.872H63.4701ZM63.4701 486.958V483H61.4701V486.958H63.4701ZM63.4701 479.043V475.085H61.4701V479.043H63.4701ZM63.4701 471.128V467.17H61.4701V471.128H63.4701ZM63.4701 463.213V459.255H61.4701V463.213H63.4701ZM63.4701 455.298V451.34H61.4701V455.298H63.4701ZM63.4701 447.383V443.426H61.4701V447.383H63.4701ZM63.4701 439.468V435.511H61.4701V439.468H63.4701ZM63.4701 431.553V427.596H61.4701V431.553H63.4701ZM63.4701 423.638V419.681H61.4701V423.638H63.4701ZM63.4701 415.723V411.766H61.4701V415.723H63.4701ZM63.4701 407.808V403.851H61.4701V407.808H63.4701ZM63.4701 399.893V395.936H61.4701V399.893H63.4701ZM63.4701 391.979V390H61.4701V391.979H63.4701ZM62.4701 391H64.6026V389H62.4701V391ZM68.8675 391H71V389H68.8675V391Z" fill="white"/>
<path d="M121 219V1H1" stroke="white" stroke-width="2" stroke-linecap="round" stroke-linejoin="round" stroke-dasharray="4 4"/>
</svg>
