<svg width="133" height="722" viewBox="0 0 133 722" fill="none" xmlns="http://www.w3.org/2000/svg">
<path d="M68.107 721V722H69.107V721H68.107ZM68.107 369.042V368.042H67.107V369.042H68.107ZM77.4188 370.042C77.971 370.042 78.4188 369.594 78.4188 369.042C78.4188 368.49 77.971 368.042 77.4188 368.042V370.042ZM34.8438 722H36.9227V720H34.8438V722ZM41.0806 722H45.2385V720H41.0806V722ZM49.3964 722H53.5543V720H49.3964V722ZM57.7122 722H61.8701V720H57.7122V722ZM66.028 722H68.107V720H66.028V722ZM69.107 721V719H67.107V721H69.107ZM69.107 715.001V711.001H67.107V715.001H69.107ZM69.107 707.002V703.002H67.107V707.002H69.107ZM69.107 699.003V695.003H67.107V699.003H69.107ZM69.107 691.004V687.004H67.107V691.004H69.107ZM69.107 683.005V679.005H67.107V683.005H69.107ZM69.107 675.006V671.006H67.107V675.006H69.107ZM69.107 667.006V663.007H67.107V667.006H69.107ZM69.107 659.007V655.008H67.107V659.007H69.107ZM69.107 651.008V647.009H67.107V651.008H69.107ZM69.107 643.009V639.01H67.107V643.009H69.107ZM69.107 635.01V631.011H67.107V635.01H69.107ZM69.107 627.011V623.012H67.107V627.011H69.107ZM69.107 619.012V615.013H67.107V619.012H69.107ZM69.107 611.013V607.014H67.107V611.013H69.107ZM69.107 603.014V599.015H67.107V603.014H69.107ZM69.107 595.015V591.016H67.107V595.015H69.107ZM69.107 587.016V583.016H67.107V587.016H69.107ZM69.107 579.017V575.017H67.107V579.017H69.107ZM69.107 571.018V567.018H67.107V571.018H69.107ZM69.107 563.019V559.019H67.107V563.019H69.107ZM69.107 555.02V551.02H67.107V555.02H69.107ZM69.107 547.021V543.021H67.107V547.021H69.107ZM69.107 539.022V535.022H67.107V539.022H69.107ZM69.107 531.023V527.023H67.107V531.023H69.107ZM69.107 523.024V519.024H67.107V523.024H69.107ZM69.107 515.024V511.025H67.107V515.024H69.107ZM69.107 507.025V503.026H67.107V507.025H69.107ZM69.107 499.026V495.027H67.107V499.026H69.107ZM69.107 491.027V487.028H67.107V491.027H69.107ZM69.107 483.028V479.029H67.107V483.028H69.107ZM69.107 475.029V471.03H67.107V475.029H69.107ZM69.107 467.03V463.031H67.107V467.03H69.107ZM69.107 459.031V455.032H67.107V459.031H69.107ZM69.107 451.032V447.033H67.107V451.032H69.107ZM69.107 443.033V439.034H67.107V443.033H69.107ZM69.107 435.034V431.035H67.107V435.034H69.107ZM69.107 427.035V423.036H67.107V427.035H69.107ZM69.107 419.036V415.036H67.107V419.036H69.107ZM69.107 411.037V407.037H67.107V411.037H69.107ZM69.107 403.038V399.038H67.107V403.038H69.107ZM69.107 395.039V391.039H67.107V395.039H69.107ZM69.107 387.04V383.04H67.107V387.04H69.107ZM69.107 379.041V375.041H67.107V379.041H69.107ZM69.107 371.042V369.042H67.107V371.042H69.107ZM68.107 370.042H70.4349V368.042H68.107V370.042ZM75.0908 370.042H77.4188V368.042H75.0908V370.042Z" fill="white"/>
<path d="M132 207.255V1H0.999993" stroke="white" stroke-width="2" stroke-linecap="round" stroke-linejoin="round" stroke-dasharray="4 4"/>
</svg>
