<svg width="32" height="32" viewBox="0 0 32 32" fill="none" xmlns="http://www.w3.org/2000/svg">
<path d="M25.3346 5.33301H6.66797C5.6071 5.33301 4.58969 5.75444 3.83954 6.50458C3.0894 7.25473 2.66797 8.27214 2.66797 9.33301V22.6663C2.66797 23.7272 3.0894 24.7446 3.83954 25.4948C4.58969 26.2449 5.6071 26.6663 6.66797 26.6663H25.3346C26.3955 26.6663 27.4129 26.2449 28.1631 25.4948C28.9132 24.7446 29.3346 23.7272 29.3346 22.6663V9.33301C29.3346 8.27214 28.9132 7.25473 28.1631 6.50458C27.4129 5.75444 26.3955 5.33301 25.3346 5.33301ZM24.4413 7.99967L16.0013 14.333L7.5613 7.99967H24.4413ZM25.3346 23.9997H6.66797C6.31435 23.9997 5.97521 23.8592 5.72516 23.6092C5.47511 23.3591 5.33464 23.02 5.33464 22.6663V9.66634L15.2013 17.0663C15.4321 17.2394 15.7128 17.333 16.0013 17.333C16.2898 17.333 16.5705 17.2394 16.8013 17.0663L26.668 9.66634V22.6663C26.668 23.02 26.5275 23.3591 26.2774 23.6092C26.0274 23.8592 25.6883 23.9997 25.3346 23.9997Z" fill="#5F6368" fill-opacity="0.57"/>
</svg>
