<svg width="32" height="32" viewBox="0 0 32 32" fill="none" xmlns="http://www.w3.org/2000/svg">
<g clip-path="url(#clip0_470_235)">
<path d="M25.3346 13.333C26.3955 13.333 27.4129 13.7544 28.1631 14.5046C28.9132 15.2547 29.3346 16.2721 29.3346 17.333V21.333C29.3346 22.3939 28.9132 23.4113 28.1631 24.1614C27.4129 24.9116 26.3955 25.333 25.3346 25.333V26.621C25.3346 28.0343 23.6866 28.8063 22.6013 27.901L19.5186 25.333H16.0013C14.9404 25.333 13.923 24.9116 13.1729 24.1614C12.4227 23.4113 12.0013 22.3939 12.0013 21.333V17.333C12.0013 16.2721 12.4227 15.2547 13.1729 14.5046C13.923 13.7544 14.9404 13.333 16.0013 13.333H25.3346ZM21.3346 5.33301C22.3955 5.33301 23.4129 5.75444 24.1631 6.50458C24.9132 7.25473 25.3346 8.27214 25.3346 9.33301V10.6663H14.668C13.2535 10.6663 11.8969 11.2282 10.8967 12.2284C9.89654 13.2286 9.33464 14.5852 9.33463 15.9997V21.333C9.33463 22.725 9.86797 23.9943 10.7426 24.9437L9.33463 25.9997C8.23597 26.8237 6.66797 26.0397 6.66797 24.6663V22.6663C5.6071 22.6663 4.58969 22.2449 3.83954 21.4948C3.0894 20.7446 2.66797 19.7272 2.66797 18.6663V9.33301C2.66797 8.27214 3.0894 7.25473 3.83954 6.50458C4.58969 5.75444 5.6071 5.33301 6.66797 5.33301H21.3346Z" fill="#113D66"/>
</g>
<defs>
<clipPath id="clip0_470_235">
<rect width="32" height="32" fill="white"/>
</clipPath>
</defs>
</svg>
