<svg width="28" height="28" viewBox="0 0 28 28" fill="none" xmlns="http://www.w3.org/2000/svg">
<path d="M12.668 7.33366H15.3346V10.0003H12.668V7.33366ZM12.668 12.667H15.3346V20.667H12.668V12.667ZM14.0013 0.666992C6.6413 0.666992 0.667969 6.64033 0.667969 14.0003C0.667969 21.3603 6.6413 27.3337 14.0013 27.3337C21.3613 27.3337 27.3346 21.3603 27.3346 14.0003C27.3346 6.64033 21.3613 0.666992 14.0013 0.666992ZM14.0013 24.667C8.1213 24.667 3.33464 19.8803 3.33464 14.0003C3.33464 8.12033 8.1213 3.33366 14.0013 3.33366C19.8813 3.33366 24.668 8.12033 24.668 14.0003C24.668 19.8803 19.8813 24.667 14.0013 24.667Z" fill="#505050"/>
</svg>
