<svg width="800" height="150" viewBox="0 0 800 150" fill="none" xmlns="http://www.w3.org/2000/svg">
<rect y="14" width="800" height="120" fill="#0F3057"/>
<rect width="800" height="8" fill="#0F3057"/>
<rect y="142" width="800" height="8" fill="#0F3057"/>
<g filter="url(#filter0_i_1084_284)">
<path d="M101.466 39.1818V109H88.7159L58.3409 65.0568H57.8295V109H43.0682V39.1818H56.0227L86.1591 83.0909H86.7727V39.1818H101.466ZM123.662 109V39.1818H170.707V51.3523H138.423V67.9886H168.287V80.1591H138.423V96.8295H170.844V109H123.662ZM208.159 109L188.182 39.1818H204.307L215.864 87.6932H216.443L229.193 39.1818H243L255.716 87.7955H256.33L267.886 39.1818H284.011L264.034 109H249.648L236.352 63.3523H235.807L222.545 109H208.159ZM339.131 59.2614C338.858 56.5114 337.688 54.375 335.619 52.8523C333.551 51.3295 330.744 50.5682 327.199 50.5682C324.79 50.5682 322.756 50.9091 321.097 51.5909C319.438 52.25 318.165 53.1705 317.278 54.3523C316.415 55.5341 315.983 56.875 315.983 58.375C315.938 59.625 316.199 60.7159 316.767 61.6477C317.358 62.5795 318.165 63.3864 319.188 64.0682C320.21 64.7273 321.392 65.3068 322.733 65.8068C324.074 66.2841 325.506 66.6932 327.028 67.0341L333.301 68.5341C336.347 69.2159 339.142 70.125 341.688 71.2614C344.233 72.3977 346.438 73.7955 348.301 75.4545C350.165 77.1136 351.608 79.0682 352.631 81.3182C353.676 83.5682 354.21 86.1477 354.233 89.0568C354.21 93.3295 353.119 97.0341 350.96 100.17C348.824 103.284 345.733 105.705 341.688 107.432C337.665 109.136 332.813 109.989 327.131 109.989C321.494 109.989 316.585 109.125 312.403 107.398C308.244 105.67 304.994 103.114 302.653 99.7273C300.335 96.3182 299.119 92.1023 299.006 87.0795H313.29C313.449 89.4205 314.119 91.375 315.301 92.9432C316.506 94.4886 318.108 95.6591 320.108 96.4545C322.131 97.2273 324.415 97.6136 326.96 97.6136C329.46 97.6136 331.631 97.25 333.472 96.5227C335.335 95.7955 336.778 94.7841 337.801 93.4886C338.824 92.1932 339.335 90.7045 339.335 89.0227C339.335 87.4545 338.869 86.1364 337.938 85.0682C337.028 84 335.688 83.0909 333.915 82.3409C332.165 81.5909 330.017 80.9091 327.472 80.2955L319.869 78.3864C313.983 76.9545 309.335 74.7159 305.926 71.6705C302.517 68.625 300.824 64.5227 300.847 59.3636C300.824 55.1364 301.949 51.4432 304.222 48.2841C306.517 45.125 309.665 42.6591 313.665 40.8864C317.665 39.1136 322.21 38.2273 327.301 38.2273C332.483 38.2273 337.006 39.1136 340.869 40.8864C344.756 42.6591 347.778 45.125 349.938 48.2841C352.097 51.4432 353.21 55.1023 353.278 59.2614H339.131ZM421.142 39.1818V109H406.381V39.1818H421.142ZM501.685 39.1818V109H488.935L458.56 65.0568H458.048V109H443.287V39.1818H456.241L486.378 83.0909H486.991V39.1818H501.685ZM561.756 59.2614C561.483 56.5114 560.313 54.375 558.244 52.8523C556.176 51.3295 553.369 50.5682 549.824 50.5682C547.415 50.5682 545.381 50.9091 543.722 51.5909C542.063 52.25 540.79 53.1705 539.903 54.3523C539.04 55.5341 538.608 56.875 538.608 58.375C538.563 59.625 538.824 60.7159 539.392 61.6477C539.983 62.5795 540.79 63.3864 541.812 64.0682C542.835 64.7273 544.017 65.3068 545.358 65.8068C546.699 66.2841 548.131 66.6932 549.653 67.0341L555.926 68.5341C558.972 69.2159 561.767 70.125 564.312 71.2614C566.858 72.3977 569.063 73.7955 570.926 75.4545C572.79 77.1136 574.233 79.0682 575.256 81.3182C576.301 83.5682 576.835 86.1477 576.858 89.0568C576.835 93.3295 575.744 97.0341 573.585 100.17C571.449 103.284 568.358 105.705 564.312 107.432C560.29 109.136 555.438 109.989 549.756 109.989C544.119 109.989 539.21 109.125 535.028 107.398C530.869 105.67 527.619 103.114 525.278 99.7273C522.96 96.3182 521.744 92.1023 521.631 87.0795H535.915C536.074 89.4205 536.744 91.375 537.926 92.9432C539.131 94.4886 540.733 95.6591 542.733 96.4545C544.756 97.2273 547.04 97.6136 549.585 97.6136C552.085 97.6136 554.256 97.25 556.097 96.5227C557.96 95.7955 559.403 94.7841 560.426 93.4886C561.449 92.1932 561.96 90.7045 561.96 89.0227C561.96 87.4545 561.494 86.1364 560.562 85.0682C559.653 84 558.313 83.0909 556.54 82.3409C554.79 81.5909 552.642 80.9091 550.097 80.2955L542.494 78.3864C536.608 76.9545 531.96 74.7159 528.551 71.6705C525.142 68.625 523.449 64.5227 523.472 59.3636C523.449 55.1364 524.574 51.4432 526.847 48.2841C529.142 45.125 532.29 42.6591 536.29 40.8864C540.29 39.1136 544.835 38.2273 549.926 38.2273C555.108 38.2273 559.631 39.1136 563.494 40.8864C567.381 42.6591 570.403 45.125 572.562 48.2841C574.722 51.4432 575.835 55.1023 575.903 59.2614H561.756ZM611.548 39.1818V109H596.787V39.1818H611.548ZM658.443 109H633.693V39.1818H658.648C665.67 39.1818 671.716 40.5795 676.784 43.375C681.852 46.1477 685.75 50.1364 688.477 55.3409C691.227 60.5455 692.602 66.7727 692.602 74.0227C692.602 81.2955 691.227 87.5455 688.477 92.7727C685.75 98 681.83 102.011 676.716 104.807C671.625 107.602 665.534 109 658.443 109ZM648.455 96.3523H657.83C662.193 96.3523 665.864 95.5795 668.841 94.0341C671.841 92.4659 674.091 90.0455 675.591 86.7727C677.114 83.4773 677.875 79.2273 677.875 74.0227C677.875 68.8636 677.114 64.6477 675.591 61.375C674.091 58.1023 671.852 55.6932 668.875 54.1477C665.898 52.6023 662.227 51.8295 657.864 51.8295H648.455V96.3523ZM713.537 109V39.1818H760.582V51.3523H728.298V67.9886H758.162V80.1591H728.298V96.8295H760.719V109H713.537Z" fill="white"/>
</g>
<g filter="url(#filter1_i_1084_284)">
<path fill-rule="evenodd" clip-rule="evenodd" d="M713.539 77.9198C721.448 78.4332 729.409 79.1959 737.58 80.1588H728.3V96.8292H760.721V109H713.539V77.9198ZM633.695 82.3258V109H658.445C665.536 109 671.627 107.602 676.718 104.806C681.832 102.011 685.752 97.9997 688.479 92.7724C690.824 88.3166 692.169 83.1177 692.515 77.1756C687.639 77.1553 682.732 77.2454 677.757 77.4572C677.487 81.1287 676.766 84.2338 675.593 86.7724C674.093 90.0451 671.843 92.4656 668.843 94.0338C665.866 95.5792 662.195 96.3519 657.832 96.3519H648.457V80.0543C643.654 80.694 638.743 81.4484 633.695 82.3258ZM596.789 90.0164C597.854 89.8529 598.924 89.6878 600.002 89.5213C603.938 88.5403 607.785 87.6253 611.55 86.7739V109H596.789V90.0164ZM558.101 95.5335C564.058 94.7814 570.174 93.9475 576.5 93.0412C576.016 95.6764 575.045 98.0528 573.587 100.17C571.451 103.284 568.36 105.704 564.315 107.431C560.292 109.136 555.44 109.988 549.758 109.988C544.121 109.988 539.212 109.125 535.031 107.397C530.871 105.67 527.621 103.113 525.281 99.7269C525.103 99.4652 524.931 99.1987 524.766 98.9275C531.342 98.4525 538.003 97.8368 544.835 97.0958C546.302 97.4408 547.887 97.6133 549.587 97.6133C552.087 97.6133 554.258 97.2497 556.099 96.5224C556.831 96.2366 557.498 95.907 558.101 95.5335ZM406.383 90.778C411.443 91.7516 416.357 92.6411 421.144 93.45V109H406.383V90.778ZM316.596 77.4649C328.073 78.0611 339.891 79.2331 352.483 80.9961C352.534 81.1027 352.584 81.2099 352.633 81.3179C353.678 83.5679 354.212 86.1474 354.235 89.0565C354.212 93.3292 353.121 97.0338 350.962 100.17C348.826 103.284 345.735 105.704 341.69 107.431C337.667 109.136 332.815 109.988 327.133 109.988C321.496 109.988 316.587 109.125 312.406 107.397C308.246 105.67 304.996 103.113 302.656 99.7269C300.337 96.3179 299.121 92.1019 299.008 87.0792H313.292C313.451 89.4201 314.121 91.3747 315.303 92.9429C316.508 94.4883 318.11 95.6588 320.11 96.4542C322.133 97.2269 324.417 97.6133 326.962 97.6133C329.462 97.6133 331.633 97.2497 333.474 96.5224C335.337 95.7951 336.781 94.7838 337.803 93.4883C338.826 92.1929 339.337 90.7042 339.337 89.0224C339.337 87.4542 338.871 86.136 337.94 85.0679C337.031 83.9997 335.69 83.0906 333.917 82.3406C332.167 81.5906 330.019 80.9088 327.474 80.2951L319.871 78.386C318.733 78.1092 317.641 77.8021 316.596 77.4649ZM258.326 79.4073C263.247 78.8396 268.096 78.3712 272.905 78.0033L264.036 109H249.65L241.685 81.6541C245.743 81.0313 249.733 80.4701 253.671 79.9709L255.718 87.7951H256.332L258.326 79.4073ZM215.532 86.2924L215.866 87.6929H216.445L216.883 86.0258C221.329 85.1529 225.672 84.3419 229.928 83.5935L222.548 109H208.161L202.438 88.9965C206.908 88.0391 211.268 87.1375 215.532 86.2924ZM123.664 98.5107C130.19 98.0832 136.918 97.5228 143.917 96.8292H170.846V109H123.664V98.5107ZM101.468 99.4658C94.8933 99.5906 88.4564 99.5638 82.0727 99.3859L88.718 109H101.468V99.4658ZM57.8317 97.9767V109H43.0703V96.4269C48.0477 97.0313 52.9555 97.548 57.8317 97.9767ZM443.289 96.7357C448.325 97.3712 453.236 97.9098 458.05 98.3563V109H443.289V96.7357ZM482.636 99.8845C489.053 100.081 495.377 100.114 501.687 99.9959V109H488.937L482.636 99.8845Z" fill="#7AC4FF"/>
</g>
<defs>
<filter id="filter0_i_1084_284" x="43.0664" y="38.2271" width="717.652" height="75.7617" filterUnits="userSpaceOnUse" color-interpolation-filters="sRGB">
<feFlood flood-opacity="0" result="BackgroundImageFix"/>
<feBlend mode="normal" in="SourceGraphic" in2="BackgroundImageFix" result="shape"/>
<feColorMatrix in="SourceAlpha" type="matrix" values="0 0 0 0 0 0 0 0 0 0 0 0 0 0 0 0 0 0 127 0" result="hardAlpha"/>
<feOffset dy="4"/>
<feGaussianBlur stdDeviation="2"/>
<feComposite in2="hardAlpha" operator="arithmetic" k2="-1" k3="1"/>
<feColorMatrix type="matrix" values="0 0 0 0 0 0 0 0 0 0 0 0 0 0 0 0 0 0 0.25 0"/>
<feBlend mode="normal" in2="shape" result="effect1_innerShadow_1084_284"/>
</filter>
<filter id="filter1_i_1084_284" x="43.0703" y="77.1729" width="717.652" height="36.8154" filterUnits="userSpaceOnUse" color-interpolation-filters="sRGB">
<feFlood flood-opacity="0" result="BackgroundImageFix"/>
<feBlend mode="normal" in="SourceGraphic" in2="BackgroundImageFix" result="shape"/>
<feColorMatrix in="SourceAlpha" type="matrix" values="0 0 0 0 0 0 0 0 0 0 0 0 0 0 0 0 0 0 127 0" result="hardAlpha"/>
<feOffset dy="4"/>
<feGaussianBlur stdDeviation="2"/>
<feComposite in2="hardAlpha" operator="arithmetic" k2="-1" k3="1"/>
<feColorMatrix type="matrix" values="0 0 0 0 0 0 0 0 0 0 0 0 0 0 0 0 0 0 0.25 0"/>
<feBlend mode="normal" in2="shape" result="effect1_innerShadow_1084_284"/>
</filter>
</defs>
</svg>
