<svg width="80" height="53" viewBox="0 0 80 53" fill="none" xmlns="http://www.w3.org/2000/svg">
<path d="M66 26L39.1558 51L13 26" stroke="white" stroke-width="2"/>
<path d="M8.65767 19.001H2.47017V1.54643H8.70881C10.4645 1.54643 11.9759 1.89586 13.2429 2.59473C14.5099 3.28791 15.4844 4.28507 16.1662 5.5862C16.8537 6.88734 17.1974 8.44416 17.1974 10.2567C17.1974 12.0748 16.8537 13.6373 16.1662 14.9442C15.4844 16.251 14.5043 17.2538 13.2259 17.9527C11.9531 18.6515 10.4304 19.001 8.65767 19.001ZM6.16051 15.839H8.50426C9.59517 15.839 10.5128 15.6459 11.2571 15.2595C12.0071 14.8675 12.5696 14.2623 12.9446 13.4442C13.3253 12.6203 13.5156 11.5578 13.5156 10.2567C13.5156 8.96689 13.3253 7.91291 12.9446 7.09473C12.5696 6.27654 12.0099 5.67427 11.2656 5.28791C10.5213 4.90154 9.60369 4.70836 8.51278 4.70836H6.16051V15.839ZM35.9709 10.2737C35.9709 12.1771 35.6101 13.7964 34.8885 15.1317C34.1726 16.4669 33.1953 17.4868 31.9567 18.1913C30.7237 18.8902 29.3374 19.2396 27.7976 19.2396C26.2464 19.2396 24.8544 18.8873 23.6214 18.1828C22.3885 17.4782 21.4141 16.4584 20.6982 15.1231C19.9822 13.7879 19.6243 12.1714 19.6243 10.2737C19.6243 8.37029 19.9822 6.75098 20.6982 5.41575C21.4141 4.08052 22.3885 3.06348 23.6214 2.36461C24.8544 1.66007 26.2464 1.30779 27.7976 1.30779C29.3374 1.30779 30.7237 1.66007 31.9567 2.36461C33.1953 3.06348 34.1726 4.08052 34.8885 5.41575C35.6101 6.75098 35.9709 8.37029 35.9709 10.2737ZM32.2294 10.2737C32.2294 9.04075 32.0447 8.00098 31.6754 7.15439C31.3118 6.30779 30.7976 5.66575 30.1328 5.22825C29.468 4.79075 28.6896 4.572 27.7976 4.572C26.9055 4.572 26.1271 4.79075 25.4624 5.22825C24.7976 5.66575 24.2805 6.30779 23.9112 7.15439C23.5476 8.00098 23.3658 9.04075 23.3658 10.2737C23.3658 11.5067 23.5476 12.5464 23.9112 13.393C24.2805 14.2396 24.7976 14.8817 25.4624 15.3192C26.1271 15.7567 26.9055 15.9754 27.7976 15.9754C28.6896 15.9754 29.468 15.7567 30.1328 15.3192C30.7976 14.8817 31.3118 14.2396 31.6754 13.393C32.0447 12.5464 32.2294 11.5067 32.2294 10.2737ZM41.9773 19.001L36.983 1.54643H41.0142L43.9034 13.6743H44.0483L47.2358 1.54643H50.6875L53.8665 13.6998H54.0199L56.9091 1.54643H60.9403L55.946 19.001H52.3494L49.0256 7.58904H48.8892L45.5739 19.001H41.9773ZM77.5149 1.54643V19.001H74.3274L66.7337 8.01518H66.6058V19.001H62.9155V1.54643H66.1541L73.6882 12.5237H73.8416V1.54643H77.5149Z" fill="white"/>
</svg>
