<svg width="63" height="53" viewBox="0 0 63 53" fill="none" xmlns="http://www.w3.org/2000/svg">
<path d="M5 27L31.8442 2L58 27" stroke="white" stroke-width="2"/>
<path d="M7.57884 37.5881V34.5455H21.9141V37.5881H16.5703V52H12.9226V37.5881H7.57884ZM39.5178 43.2727C39.5178 45.1761 39.157 46.7955 38.4354 48.1307C37.7195 49.4659 36.7422 50.4858 35.5036 51.1903C34.2706 51.8892 32.8842 52.2386 31.3445 52.2386C29.7933 52.2386 28.4013 51.8864 27.1683 51.1818C25.9354 50.4773 24.9609 49.4574 24.245 48.1222C23.5291 46.7869 23.1712 45.1705 23.1712 43.2727C23.1712 41.3693 23.5291 39.75 24.245 38.4148C24.9609 37.0795 25.9354 36.0625 27.1683 35.3636C28.4013 34.6591 29.7933 34.3068 31.3445 34.3068C32.8842 34.3068 34.2706 34.6591 35.5036 35.3636C36.7422 36.0625 37.7195 37.0795 38.4354 38.4148C39.157 39.75 39.5178 41.3693 39.5178 43.2727ZM35.7763 43.2727C35.7763 42.0398 35.5916 41 35.2223 40.1534C34.8587 39.3068 34.3445 38.6648 33.6797 38.2273C33.0149 37.7898 32.2365 37.571 31.3445 37.571C30.4524 37.571 29.674 37.7898 29.0092 38.2273C28.3445 38.6648 27.8274 39.3068 27.4581 40.1534C27.0945 41 26.9126 42.0398 26.9126 43.2727C26.9126 44.5057 27.0945 45.5455 27.4581 46.392C27.8274 47.2386 28.3445 47.8807 29.0092 48.3182C29.674 48.7557 30.4524 48.9744 31.3445 48.9744C32.2365 48.9744 33.0149 48.7557 33.6797 48.3182C34.3445 47.8807 34.8587 47.2386 35.2223 46.392C35.5916 45.5455 35.7763 44.5057 35.7763 43.2727ZM42.2514 52V34.5455H49.1378C50.4616 34.5455 51.5895 34.7983 52.5213 35.304C53.4531 35.804 54.1634 36.5 54.652 37.392C55.1463 38.2784 55.3935 39.3011 55.3935 40.4602C55.3935 41.6193 55.1435 42.642 54.6435 43.5284C54.1435 44.4148 53.419 45.1051 52.4702 45.5994C51.527 46.0937 50.3849 46.3409 49.044 46.3409H44.6548V43.3835H48.4474C49.1577 43.3835 49.7429 43.2614 50.2031 43.017C50.669 42.767 51.0156 42.4233 51.2429 41.9858C51.4759 41.5426 51.5923 41.0341 51.5923 40.4602C51.5923 39.8807 51.4759 39.375 51.2429 38.9432C51.0156 38.5057 50.669 38.1676 50.2031 37.929C49.7372 37.6847 49.1463 37.5625 48.4304 37.5625H45.9418V52H42.2514Z" fill="white"/>
</svg>
