<svg width="168" height="168" viewBox="0 0 168 168" fill="none" xmlns="http://www.w3.org/2000/svg">
<g filter="url(#filter0_d_470_422)">
<circle cx="84" cy="80" r="80" fill="url(#paint0_linear_470_422)"/>
</g>
<path d="M164 80.1196C164 124.236 128.183 160 84 160C39.8172 160 4 124.236 4 80.1196C4 49.9384 20.7632 23.6667 45.5 10.0807C56.9218 3.80762 83.5435 13.719 97.5 13.719C111.456 13.719 115.5 9.22568 122.5 10.0807C147.237 23.6667 164 49.9384 164 80.1196Z" fill="url(#paint1_linear_470_422)"/>
<path d="M59.0469 92.5781H59.3438C61.0104 92.5781 62.3646 92.3438 63.4062 91.875C64.4479 91.4062 65.25 90.776 65.8125 89.9844C66.375 89.1927 66.7604 88.3021 66.9688 87.3125C67.1771 86.3125 67.2812 85.2865 67.2812 84.2344V80.75C67.2812 79.7188 67.1615 78.8021 66.9219 78C66.6927 77.1979 66.3698 76.526 65.9531 75.9844C65.5469 75.4427 65.0833 75.0312 64.5625 74.75C64.0417 74.4688 63.4896 74.3281 62.9062 74.3281C62.2396 74.3281 61.6406 74.4635 61.1094 74.7344C60.5885 74.9948 60.1458 75.3646 59.7812 75.8438C59.4271 76.3229 59.1562 76.8854 58.9688 77.5312C58.7812 78.1771 58.6875 78.8802 58.6875 79.6406C58.6875 80.3177 58.7708 80.974 58.9375 81.6094C59.1042 82.2448 59.3594 82.8177 59.7031 83.3281C60.0469 83.8385 60.474 84.2448 60.9844 84.5469C61.5052 84.8385 62.1146 84.9844 62.8125 84.9844C63.4583 84.9844 64.0625 84.8594 64.625 84.6094C65.1979 84.349 65.7031 84 66.1406 83.5625C66.5885 83.1146 66.9427 82.6094 67.2031 82.0469C67.474 81.4844 67.6302 80.8958 67.6719 80.2812H69.0469C69.0469 81.1458 68.875 82 68.5312 82.8438C68.1979 83.6771 67.7292 84.4375 67.125 85.125C66.5208 85.8125 65.8125 86.3646 65 86.7812C64.1875 87.1875 63.3021 87.3906 62.3438 87.3906C61.2188 87.3906 60.2448 87.1719 59.4219 86.7344C58.599 86.2969 57.9219 85.7135 57.3906 84.9844C56.8698 84.2552 56.4792 83.4427 56.2188 82.5469C55.9688 81.6406 55.8438 80.724 55.8438 79.7969C55.8438 78.7135 55.9948 77.6979 56.2969 76.75C56.599 75.8021 57.0469 74.9688 57.6406 74.25C58.2344 73.5208 58.9688 72.9531 59.8438 72.5469C60.7292 72.1406 61.75 71.9375 62.9062 71.9375C64.2083 71.9375 65.3177 72.1979 66.2344 72.7188C67.151 73.2396 67.8958 73.9375 68.4688 74.8125C69.0521 75.6875 69.4792 76.6719 69.75 77.7656C70.0208 78.8594 70.1562 79.9844 70.1562 81.1406V82.1875C70.1562 83.3646 70.0781 84.5625 69.9219 85.7812C69.776 86.9896 69.4896 88.1458 69.0625 89.25C68.6458 90.3542 68.0365 91.3438 67.2344 92.2188C66.4323 93.0833 65.3854 93.7708 64.0938 94.2812C62.8125 94.7812 61.2292 95.0312 59.3438 95.0312H59.0469V92.5781ZM88.5156 88.8438C88.5156 90.2292 88.1927 91.4062 87.5469 92.375C86.9115 93.3333 86.0469 94.0625 84.9531 94.5625C83.8698 95.0625 82.6458 95.3125 81.2812 95.3125C79.9167 95.3125 78.6875 95.0625 77.5938 94.5625C76.5 94.0625 75.6354 93.3333 75 92.375C74.3646 91.4062 74.0469 90.2292 74.0469 88.8438C74.0469 87.9375 74.2188 87.1094 74.5625 86.3594C74.9167 85.599 75.4115 84.9375 76.0469 84.375C76.6927 83.8125 77.4531 83.3802 78.3281 83.0781C79.2135 82.7656 80.1875 82.6094 81.25 82.6094C82.6458 82.6094 83.8906 82.8802 84.9844 83.4219C86.0781 83.9531 86.9375 84.6875 87.5625 85.625C88.1979 86.5625 88.5156 87.6354 88.5156 88.8438ZM85.6094 88.7812C85.6094 87.9375 85.4271 87.1927 85.0625 86.5469C84.6979 85.8906 84.1875 85.3802 83.5312 85.0156C82.875 84.651 82.1146 84.4688 81.25 84.4688C80.3646 84.4688 79.599 84.651 78.9531 85.0156C78.3177 85.3802 77.8229 85.8906 77.4688 86.5469C77.1146 87.1927 76.9375 87.9375 76.9375 88.7812C76.9375 89.6562 77.1094 90.4062 77.4531 91.0312C77.8073 91.6458 78.3073 92.1198 78.9531 92.4531C79.6094 92.776 80.3854 92.9375 81.2812 92.9375C82.1771 92.9375 82.9479 92.776 83.5938 92.4531C84.2396 92.1198 84.7344 91.6458 85.0781 91.0312C85.4323 90.4062 85.6094 89.6562 85.6094 88.7812ZM87.9844 78.1719C87.9844 79.276 87.6927 80.2708 87.1094 81.1562C86.526 82.0417 85.7292 82.7396 84.7188 83.25C83.7083 83.7604 82.5625 84.0156 81.2812 84.0156C79.9792 84.0156 78.8177 83.7604 77.7969 83.25C76.7865 82.7396 75.9948 82.0417 75.4219 81.1562C74.849 80.2708 74.5625 79.276 74.5625 78.1719C74.5625 76.849 74.849 75.724 75.4219 74.7969C76.0052 73.8698 76.8021 73.1615 77.8125 72.6719C78.8229 72.1823 79.974 71.9375 81.2656 71.9375C82.5677 71.9375 83.724 72.1823 84.7344 72.6719C85.7448 73.1615 86.5365 73.8698 87.1094 74.7969C87.6927 75.724 87.9844 76.849 87.9844 78.1719ZM85.0938 78.2188C85.0938 77.4583 84.9323 76.7865 84.6094 76.2031C84.2865 75.6198 83.8385 75.1615 83.2656 74.8281C82.6927 74.4844 82.026 74.3125 81.2656 74.3125C80.5052 74.3125 79.8385 74.474 79.2656 74.7969C78.7031 75.1094 78.2604 75.5573 77.9375 76.1406C77.625 76.724 77.4688 77.4167 77.4688 78.2188C77.4688 79 77.625 79.6823 77.9375 80.2656C78.2604 80.849 78.7083 81.3021 79.2812 81.625C79.8542 81.9479 80.5208 82.1094 81.2812 82.1094C82.0417 82.1094 82.7031 81.9479 83.2656 81.625C83.8385 81.3021 84.2865 80.849 84.6094 80.2656C84.9323 79.6823 85.0938 79 85.0938 78.2188ZM91.9219 77.8281V76.625C91.9219 75.7604 92.1094 74.974 92.4844 74.2656C92.8594 73.5573 93.3958 72.9896 94.0938 72.5625C94.7917 72.1354 95.6198 71.9219 96.5781 71.9219C97.5573 71.9219 98.3906 72.1354 99.0781 72.5625C99.776 72.9896 100.312 73.5573 100.688 74.2656C101.062 74.974 101.25 75.7604 101.25 76.625V77.8281C101.25 78.6719 101.062 79.4479 100.688 80.1562C100.323 80.8646 99.7917 81.4323 99.0938 81.8594C98.4062 82.2865 97.5781 82.5 96.6094 82.5C95.6406 82.5 94.8021 82.2865 94.0938 81.8594C93.3958 81.4323 92.8594 80.8646 92.4844 80.1562C92.1094 79.4479 91.9219 78.6719 91.9219 77.8281ZM94.0938 76.625V77.8281C94.0938 78.3073 94.1823 78.7604 94.3594 79.1875C94.5469 79.6146 94.8281 79.9635 95.2031 80.2344C95.5781 80.4948 96.0469 80.625 96.6094 80.625C97.1719 80.625 97.6354 80.4948 98 80.2344C98.3646 79.9635 98.6354 79.6146 98.8125 79.1875C98.9896 78.7604 99.0781 78.3073 99.0781 77.8281V76.625C99.0781 76.1354 98.9844 75.6771 98.7969 75.25C98.6198 74.8125 98.3438 74.4635 97.9688 74.2031C97.6042 73.9323 97.1406 73.7969 96.5781 73.7969C96.026 73.7969 95.5625 73.9323 95.1875 74.2031C94.8229 74.4635 94.5469 74.8125 94.3594 75.25C94.1823 75.6771 94.0938 76.1354 94.0938 76.625ZM103 90.6406V89.4219C103 88.5677 103.188 87.7865 103.562 87.0781C103.938 86.3698 104.474 85.8021 105.172 85.375C105.87 84.9479 106.698 84.7344 107.656 84.7344C108.635 84.7344 109.469 84.9479 110.156 85.375C110.854 85.8021 111.391 86.3698 111.766 87.0781C112.141 87.7865 112.328 88.5677 112.328 89.4219V90.6406C112.328 91.4948 112.141 92.276 111.766 92.9844C111.401 93.6927 110.87 94.2604 110.172 94.6875C109.484 95.1146 108.656 95.3281 107.688 95.3281C106.719 95.3281 105.885 95.1146 105.188 94.6875C104.49 94.2604 103.948 93.6927 103.562 92.9844C103.188 92.276 103 91.4948 103 90.6406ZM105.172 89.4219V90.6406C105.172 91.1198 105.26 91.5781 105.438 92.0156C105.625 92.4427 105.906 92.7917 106.281 93.0625C106.656 93.3229 107.125 93.4531 107.688 93.4531C108.25 93.4531 108.714 93.3229 109.078 93.0625C109.453 92.7917 109.729 92.4427 109.906 92.0156C110.083 91.5885 110.172 91.1302 110.172 90.6406V89.4219C110.172 88.9323 110.078 88.474 109.891 88.0469C109.714 87.6198 109.438 87.276 109.062 87.0156C108.698 86.7448 108.229 86.6094 107.656 86.6094C107.104 86.6094 106.641 86.7448 106.266 87.0156C105.901 87.276 105.625 87.6198 105.438 88.0469C105.26 88.474 105.172 88.9323 105.172 89.4219ZM108.375 75.4844L97.2656 93.2656L95.6406 92.2344L106.75 74.4531L108.375 75.4844Z" fill="white"/>
<defs>
<filter id="filter0_d_470_422" x="0" y="0" width="168" height="168" filterUnits="userSpaceOnUse" color-interpolation-filters="sRGB">
<feFlood flood-opacity="0" result="BackgroundImageFix"/>
<feColorMatrix in="SourceAlpha" type="matrix" values="0 0 0 0 0 0 0 0 0 0 0 0 0 0 0 0 0 0 127 0" result="hardAlpha"/>
<feOffset dy="4"/>
<feGaussianBlur stdDeviation="2"/>
<feComposite in2="hardAlpha" operator="out"/>
<feColorMatrix type="matrix" values="0 0 0 0 0 0 0 0 0 0 0 0 0 0 0 0 0 0 0.25 0"/>
<feBlend mode="normal" in2="BackgroundImageFix" result="effect1_dropShadow_470_422"/>
<feBlend mode="normal" in="SourceGraphic" in2="effect1_dropShadow_470_422" result="shape"/>
</filter>
<linearGradient id="paint0_linear_470_422" x1="164" y1="80" x2="4" y2="80" gradientUnits="userSpaceOnUse">
<stop stop-color="#113D66"/>
<stop offset="1" stop-color="#106AAB"/>
</linearGradient>
<linearGradient id="paint1_linear_470_422" x1="4" y1="80.1196" x2="164" y2="80.1196" gradientUnits="userSpaceOnUse">
<stop stop-color="#379FFF"/>
<stop offset="1" stop-color="#647CF9"/>
</linearGradient>
</defs>
</svg>
