<svg width="41" height="44" viewBox="0 0 41 44" fill="none" xmlns="http://www.w3.org/2000/svg">
<path d="M33.1265 7.89119C37.9265 11.4162 40.4405 16.3137 40.5005 22.7037C40.5005 29.3862 39.092 34.2987 35.876 37.6437C37.22 38.6607 38.156 39.3912 38.156 39.3912C38.954 40.1262 39.422 41.5242 37.361 41.5242C36.6485 41.5242 36.0065 41.5332 35.417 41.5422C33.731 41.5662 32.4695 41.5857 31.2185 41.3592C30.9685 41.3145 30.7204 41.2605 30.4745 41.1972C30.3845 41.2332 30.2945 41.2707 30.2015 41.3052C20.897 37.9902 20.6645 36.8352 20.2505 29.5002C20.0045 25.1337 16.3835 22.9152 13.5005 22.7502C11.2595 22.6227 3.43847 22.2402 0.0679667 22.0752C0.0379667 21.4962 0.0319665 20.9157 0.0469665 20.3352C0.0469665 16.3452 5.22647 12.9852 8.75147 12.9852H18.5765C23.7665 12.9852 27.9815 17.2002 27.9815 22.3902C27.7265 26.0082 33.041 27.4992 33.7115 23.5602C34.4495 19.2177 33.1295 14.2422 30.3635 10.7502C30.071 10.6797 29.9015 10.6797 29.696 10.8207C27.809 12.7077 26.339 12.7887 23.801 12.1917C23.69 12.1197 23.5655 12.0792 23.4485 12.0402C23.12 11.9307 22.838 11.8377 22.9925 11.1477C23.2025 10.2102 24.821 8.64119 24.821 8.64119C25.9805 7.28069 27.68 7.00019 28.3835 7.08119C28.76 7.12619 28.943 7.18619 29.048 7.21919C29.138 7.24919 29.1695 7.25819 29.216 7.22219C29.3135 7.14419 29.087 6.67169 29.087 6.67169C28.841 5.35919 28.8755 4.56269 29.6315 3.50519C29.6315 3.50519 30.833 1.78469 31.9115 1.24019C32.9885 0.695688 33.422 1.24019 33.656 1.78469C34.3955 3.50369 34.4885 5.63969 33.1265 7.22219L33.119 7.24019C33.008 7.50419 32.9735 7.58669 32.9915 7.65569C32.999 7.68869 33.0185 7.71569 33.0455 7.75919C33.068 7.79219 33.095 7.83419 33.1265 7.89119Z" fill="#00A6ED"/>
<path d="M7.79452 35.5H18.3245L12.7295 39.76C11.2445 40.885 9.44452 41.5 7.58452 41.5H2.51152C1.74652 41.5 1.41652 40.525 2.03152 40.06L7.79452 35.5Z" fill="#00A6ED"/>
<path d="M28.8658 40.6001C22.2688 38.3486 22.1398 36.0386 21.7738 29.5001L21.7498 29.0786C21.5038 24.7121 16.1008 22.1636 13.2193 22.0001C10.3363 21.8351 0.0703125 22.0001 0.0703125 22.0001L0.119812 22.8581C1.03181 33.6506 9.55182 43.9376 21.0238 43.1426C24.7633 42.8831 27.8938 42.2441 30.4738 41.1971C29.918 41.0564 29.3788 40.8562 28.8658 40.6001Z" fill="#AEDDFF"/>
<path d="M20.2732 20.5003C20.0335 20.4983 19.8042 20.4022 19.6347 20.2327C19.4652 20.0633 19.3691 19.8339 19.3672 19.5943V18.4573C19.3672 17.9623 19.7782 17.5513 20.2732 17.5513C20.7682 17.5513 21.1792 17.9623 21.1792 18.4573V19.5943C21.1792 19.8346 21.0837 20.065 20.9138 20.2349C20.7439 20.4048 20.5135 20.5003 20.2732 20.5003Z" fill="#1C1C1C"/>
<path d="M24.1458 4.18762C24.63 4.18762 25.0943 3.99529 25.4366 3.65294C25.779 3.3106 25.9713 2.84627 25.9713 2.36212C25.9713 1.87797 25.779 1.41365 25.4366 1.0713C25.0943 0.72895 24.63 0.536621 24.1458 0.536621C23.6617 0.536621 23.1973 0.72895 22.855 1.0713C22.5126 1.41365 22.3203 1.87797 22.3203 2.36212C22.3203 2.84627 22.5126 3.3106 22.855 3.65294C23.1973 3.99529 23.6617 4.18762 24.1458 4.18762ZM3.00781 11.5001C3.40564 11.5001 3.78717 11.3421 4.06847 11.0608C4.34978 10.7795 4.50781 10.3979 4.50781 10.0001C4.50781 9.6023 4.34978 9.22077 4.06847 8.93946C3.78717 8.65816 3.40564 8.50012 3.00781 8.50012C2.60999 8.50012 2.22846 8.65816 1.94715 8.93946C1.66585 9.22077 1.50781 9.6023 1.50781 10.0001C1.50781 10.3979 1.66585 10.7795 1.94715 11.0608C2.22846 11.3421 2.60999 11.5001 3.00781 11.5001ZM13.5078 2.24512C14.3028 1.48012 15.3528 1.00012 16.5078 1.00012C18.9978 1.00012 21.0078 3.01012 21.0078 5.50012V6.20512C21.0078 7.46512 19.9728 8.53012 18.7128 8.50012C17.4978 8.47012 16.5078 7.48012 16.5078 6.25012C16.5078 5.84512 16.1628 5.50012 15.7578 5.50012C15.3678 5.50012 15.0528 5.78512 15.0078 6.14512L14.3628 10.7501C14.3028 11.1851 13.9428 11.5001 13.5078 11.5001C13.0728 11.5001 12.7128 11.1851 12.6528 10.7501L12.0078 6.14512C11.9826 5.96478 11.8926 5.7998 11.7545 5.68107C11.6165 5.56234 11.4399 5.49801 11.2578 5.50012C10.8528 5.50012 10.5078 5.84512 10.5078 6.25012C10.5078 7.48012 9.51781 8.47012 8.30281 8.50012C7.04281 8.53012 6.00781 7.46512 6.00781 6.20512V5.50012C6.00781 3.01012 8.01781 1.00012 10.5078 1.00012C11.6628 1.00012 12.7128 1.48012 13.5078 2.24512Z" fill="#26EAFC"/>
</svg>
