<svg width="1512" height="982" viewBox="0 0 1512 982" fill="none" xmlns="http://www.w3.org/2000/svg">
<g clip-path="url(#clip0_557_31)">
<rect width="1512" height="982" fill="url(#paint0_linear_557_31)"/>
<path d="M639.223 802.569C752.508 776.123 825.495 765.518 971.768 753.565C1097.22 752.73 1168.22 751.262 1301.84 737.973C1373.79 705.814 1421.09 695.908 1512 686V982H529.199L639.223 802.569Z" fill="#326696"/>
<path d="M1381.05 699.661C1384.08 703.398 1386.06 705.258 1390.28 708H1408.74C1408.74 708 1433.56 694.477 1434.57 680.899C1435.01 675.003 1431.59 671.944 1431.19 666.046C1430.8 660.342 1433.36 657.11 1432.42 651.453C1432.2 650.167 1431.79 648.825 1431.24 647.471C1430.06 649.063 1428.67 650.526 1427.24 651.974C1429.35 659.212 1424.28 664.155 1425.65 671.518C1426.43 675.716 1430.66 677.84 1429.34 681.941C1425.89 692.692 1415.19 699.776 1405.66 704.612C1403.53 705.69 1399.51 705.915 1399.51 705.915C1399.51 705.915 1400.01 703.356 1401.05 702.007C1403.27 699.103 1407.31 700.437 1410.58 698.358C1416.9 694.339 1418.54 689.802 1420.12 683.244C1421.71 676.636 1417.39 672.748 1418.27 666.046C1419.08 659.864 1423.3 655.977 1427.24 651.974C1426.56 649.61 1425.27 648.064 1423.96 646.589C1419.54 653.469 1412.58 658.817 1412.73 668.13C1412.81 672.548 1414.77 674.92 1414.58 679.336L1414.57 679.515C1414.34 684.768 1414.19 688.303 1410.58 692.625C1407.46 696.363 1399.51 699.661 1399.51 699.661C1399.51 699.661 1405.07 692.549 1405.66 687.153C1406.15 682.667 1403.22 681.638 1404.43 677.251C1405.35 673.921 1408.8 673.282 1410.58 670.215C1414 664.339 1413.09 660.082 1412.73 653.537C1412.24 644.488 1403.51 640.002 1405.66 631.127C1406.9 626 1411.11 624.189 1412.73 619.14C1414.91 612.366 1413.68 608.135 1412.73 601.16C1410.93 587.891 1400.16 582.191 1399.51 568.847C1399.1 560.636 1402.89 548 1402.89 548C1402.89 548 1390.34 556.693 1393.97 567.544C1397.6 578.395 1407.86 606.828 1405.66 613.147C1403.46 619.465 1400.92 619.013 1399.51 623.309C1398.53 626.276 1398.52 628.054 1398.28 631.127C1397.34 643.255 1408.46 649.694 1405.66 661.616C1404.21 667.789 1398.17 670.176 1398.28 676.469C1398.34 680.146 1400.96 681.913 1401.05 685.59C1401.18 691.449 1394.89 699.661 1394.89 699.661C1394.89 699.661 1390.63 691.285 1390.28 685.59C1390.06 682.019 1390.7 680.018 1391.2 676.469C1391.83 672.067 1393.7 669.688 1393.36 665.264C1392.92 659.511 1387.2 651.453 1387.2 651.453C1387.2 651.453 1393.45 639.896 1392.74 632.169C1392.2 626.298 1387.65 623.714 1387.2 617.837C1386.78 612.16 1392.48 608.88 1390.28 603.505C1389.36 601.262 1386.59 598.293 1386.59 598.293C1386.59 598.293 1387.31 602.416 1387.2 605.068C1386.98 610.769 1382.43 613.438 1382.59 619.14C1382.73 624.003 1385.91 626.296 1386.59 631.127C1387.77 639.517 1381.35 644.112 1382.59 652.495C1383.36 657.67 1386.17 660.124 1387.2 665.264C1388.79 673.09 1385.18 677.74 1386.59 685.59C1387.88 692.78 1393.36 703.309 1393.36 703.309C1393.36 703.309 1388.33 700.921 1386.59 698.358C1384.71 695.59 1385.93 693.388 1385.05 690.28C1383.56 684.986 1379.76 682.674 1379.21 677.251C1378.76 672.849 1381.91 670.403 1381.05 666.046C1380.21 661.781 1376.24 660.377 1375.21 656.143C1374.06 651.443 1376.44 643.896 1376.44 643.896C1376.44 643.896 1370.75 650.96 1370.29 656.143C1369.72 662.465 1375.6 665.218 1376.44 671.518C1377.17 676.994 1373.62 680.246 1375.21 685.59C1376.4 689.607 1381.05 692.104 1381.05 694.971V699.661Z" fill="#326696"/>
<path d="M1427.24 651.974C1428.67 650.526 1430.06 649.063 1431.24 647.471C1430.19 644.858 1428.62 642.198 1427 639.803C1426.39 642.304 1425.29 644.516 1423.96 646.589C1425.27 648.064 1426.56 649.61 1427.24 651.974Z" fill="#326696"/>
<path d="M1420.12 631.127C1420.12 631.127 1419.33 636.748 1420.12 640.248C1420.76 643.133 1422.38 644.809 1423.96 646.589C1425.29 644.516 1426.39 642.304 1427 639.803C1423.68 634.91 1420.12 631.127 1420.12 631.127Z" fill="#326696"/>
<path d="M1425.65 622.267C1424.8 627.647 1427.66 630.652 1427.5 636.078C1427.46 637.394 1427.28 638.63 1427 639.803C1428.62 642.198 1430.19 644.858 1431.24 647.471C1433.04 645.058 1434.35 642.348 1434.57 638.945C1435.01 632.347 1429.28 628.676 1431.19 622.267C1432.36 618.337 1435.89 617.082 1437.03 613.147C1439.57 604.391 1429.78 600.325 1427.5 591.518C1425.02 581.957 1425.65 566.502 1425.65 566.502C1425.65 566.502 1419.69 581.801 1421.65 591.518C1423.22 599.289 1431.78 602.152 1431.19 610.02C1430.8 615.131 1426.46 617.191 1425.65 622.267Z" fill="#326696"/>
<path d="M0 517.274C0 517.274 16.8 509.907 22.05 517.274C27.3 524.642 37.8 568.281 37.8 568.281C49.085 585.453 54.7188 595.859 61.95 617.587C97.5226 624.727 112.674 634.905 135.975 657.826C143.472 727.573 175.722 722.52 257.775 674.828C268.674 638.825 284.445 633.934 321.825 639.69C431.061 668.407 499.251 671.546 622.125 674.828L695.1 679.928L836.85 695.23C868.601 706.822 878.643 720.053 898.8 741.703C931.668 788.422 956.976 802.771 1008 818.213V982H0V517.274Z" fill="#2E5B84"/>
<path d="M0 808.743L61.425 773C133.75 778.461 194.809 834.42 222.075 818.672C249.341 802.924 355.703 783.745 412.125 818.672C442.185 834.666 459.447 836.625 490.875 829.097C538.296 814.523 564.008 803.485 615.825 803.283L681.975 818.672C734.207 781.178 796.165 789.977 932.4 829.097C1025.37 834.081 1097.77 791.368 1109.85 789.382C1121.92 787.397 1277.4 762.495 1357.12 803.283C1384.36 824.116 1408.57 831.777 1432.72 829.097C1456.87 826.418 1459.89 798.722 1512 803.283V982H0V808.743Z" fill="#113D66"/>
<path d="M267.299 770.509C271.183 775.069 296.707 808 296.707 808H349.974C349.974 808 359.962 796.855 362.181 790.774C364.401 784.694 369.949 765.443 371.614 754.803C373.279 744.163 349.974 749.23 349.974 759.869C349.974 770.509 348.865 784.187 347.755 789.254C346.645 794.321 339.987 794.321 339.987 790.774V738.084C339.987 729.471 321.676 732.51 322.231 742.644C322.785 752.777 323.896 765.442 325.005 782.161C326.115 798.881 317.792 798.881 316.127 780.642C314.463 762.402 310.578 716.805 310.024 710.219C309.469 703.633 287.829 712.752 290.048 723.898C292.268 735.044 302.81 774.055 302.81 774.055C304.692 780.854 303.565 782.011 300.036 782.161C300.036 782.161 293.377 775.575 291.158 772.535C288.939 769.496 288.383 765.949 283.945 758.856C279.506 751.763 263.415 765.949 267.299 770.509Z" fill="#113D66"/>
<path d="M658.36 805.636C663.8 807.372 676.972 811.631 677.702 823H690.395C690.395 823 690.396 818.37 690.395 815.476C690.393 812.581 692.209 812.582 695.23 809.688C698.251 806.793 700.066 808.529 707.319 808.53C714.572 808.53 711.551 802.742 707.319 803.321C703.086 803.899 704.9 803.899 702.483 803.9C700.067 803.9 700.067 802.742 702.483 801.006C704.9 799.269 717.595 794.639 721.825 792.323C726.054 790.008 720.823 785.821 718.803 787.693C716.782 789.565 717.592 788.85 716.989 789.429C716.386 790.009 713.364 790.009 714.572 786.535C715.779 783.062 719.408 779.59 722.429 776.117C725.45 772.644 721.219 766.856 716.989 773.223C712.76 779.59 708.526 788.271 707.923 790.008C707.32 791.745 703.692 792.903 703.692 789.429C703.692 785.956 703.693 788.851 703.692 786.535C703.691 784.22 700.064 783.063 699.461 786.535C698.858 790.008 698.857 789.429 698.252 791.745C697.648 794.06 695.229 798.111 693.417 800.427C691.605 802.742 687.374 804.479 687.373 800.427C687.371 796.375 687.978 790.588 687.977 787.114C687.976 783.641 699.461 779.012 701.274 777.853C703.088 776.695 703.691 774.38 700.67 776.117C697.649 777.854 698.857 777.274 697.648 777.853C696.439 778.433 694.627 776.117 696.439 774.959C698.251 773.802 699.461 773.802 703.692 770.329C707.923 766.856 703.692 763.962 700.67 766.856C697.648 769.751 695.229 772.644 694.021 773.802C692.814 774.96 688.583 776.117 690.395 773.802C692.207 771.487 703.089 750.65 706.11 746.019C709.131 741.388 704.9 737.916 702.483 742.546C700.067 747.177 700.669 748.334 699.461 750.071C698.254 751.808 695.836 752.965 696.439 750.071C697.042 747.176 696.439 729.813 696.439 726.34C696.439 722.867 692.811 720.552 692.812 727.498C692.814 734.443 691.602 761.647 690.395 765.12C689.187 768.593 686.767 771.487 685.559 773.802C684.352 776.117 682.539 775.538 682.537 772.644C682.536 769.75 684.352 745.44 685.559 735.601C686.767 725.761 680.12 728.655 680.12 735.601V750.071C680.12 754.123 676.494 754.701 675.284 751.229C674.074 747.756 673.472 746.019 672.262 740.81C671.052 735.601 664.403 737.337 668.031 746.019C671.659 754.701 675.887 763.962 677.702 770.329C679.516 776.696 675.284 779.011 672.262 774.959C669.24 770.908 661.987 758.174 660.174 754.701C658.36 751.229 654.128 755.859 655.943 758.174C657.757 760.489 661.381 765.699 661.987 766.856C662.593 768.014 663.197 769.75 661.382 769.171C659.572 768.594 659.571 768.593 655.966 765.142L655.943 765.12C652.315 761.647 651.71 768.014 654.129 769.171C656.548 770.329 662.59 774.959 663.8 776.696C665.01 778.432 671.656 784.22 675.284 791.745C678.912 799.269 674.681 801.006 672.262 799.269C669.843 797.533 661.988 791.166 661.382 790.008C660.777 788.851 661.384 784.22 661.382 780.747C661.381 777.275 657.15 778.432 657.152 780.747C657.153 783.063 657.152 784.799 657.152 784.799C657.152 784.799 654.131 782.484 652.921 780.747C651.71 779.011 648.084 780.747 649.898 783.063C651.713 785.378 658.36 791.745 658.36 791.745H649.898C647.48 791.745 646.876 794.639 649.898 794.639C652.921 794.639 658.965 794.06 661.382 796.375C663.8 798.69 668.031 803.9 668.031 803.9C668.031 803.9 664.405 802.163 660.174 801.006C655.943 799.848 652.921 803.9 658.36 805.636Z" fill="#113D66"/>
<path d="M61.4276 705.678C59.9687 703.944 54.5842 707.21 54.131 711.746C48.8299 712.369 46.8343 716.514 47.3207 717.815C47.8072 719.115 53.6445 720.849 55.5899 721.282C57.5352 721.715 60.9407 721.716 60.9407 721.716C50.7467 725.032 63.3738 734.72 64.8327 734.72C66.2916 734.72 71.2827 734.955 74.5612 735.154C76.1107 744.176 80.4191 742.088 88.182 741.656C99.0414 743.742 105.559 745.675 112.991 741.656L112.018 739.922H114.45C112.005 729.881 108.594 726.097 102.289 719.549C102.289 719.549 103.261 717.381 103.262 715.214C103.262 713.047 91.5876 706.544 89.6414 708.278C87.6951 710.012 84.2905 713.047 84.2905 713.047C84.2905 713.047 81.8578 706.978 80.3989 704.377C78.94 701.776 67.2645 713.48 67.2645 713.48C67.2645 713.48 62.8865 707.411 61.4276 705.678Z" fill="#0F3057"/>
<path d="M1055.81 767.702C1053.63 766.895 1050.69 772.288 1052.67 776.432C1048.41 779.496 1048.86 784.036 1049.96 784.93C1051.07 785.825 1057.03 784.547 1058.94 783.995C1060.86 783.444 1063.81 781.823 1063.81 781.823C1056.72 789.549 1072.74 791.926 1074 791.232C1075.27 790.537 1079.71 788.364 1082.66 786.975C1088.73 794.05 1091.37 790.191 1097.87 786.119C1108.37 782.755 1115.02 781.325 1119.35 774.306L1117.6 773.267L1119.7 772.109C1112.32 764.579 1107.38 762.925 1098.48 760.257C1098.48 760.257 1098.18 757.916 1097.04 756.039C1095.91 754.162 1082.38 754.09 1081.61 756.519C1080.83 758.947 1079.48 763.196 1079.48 763.196C1079.48 763.196 1074.18 759.099 1071.55 757.541C1068.93 755.984 1064.96 771.679 1064.96 771.679C1064.96 771.679 1057.98 768.508 1055.81 767.702Z" fill="#0F3057"/>
<path d="M1001.11 747.099C999.437 746.419 997.311 750.605 998.922 753.909C995.741 756.234 996.185 759.819 997.047 760.546C997.909 761.273 1002.43 760.39 1003.87 759.995C1005.32 759.6 1007.53 758.384 1007.53 758.384C1002.3 764.323 1014.57 766.525 1015.52 766.004C1016.47 765.483 1019.81 763.863 1022.02 762.83C1026.82 768.527 1028.74 765.542 1033.6 762.47C1041.53 760.037 1046.58 759.049 1049.71 753.61L1048.35 752.756L1049.93 751.887C1044.13 745.805 1040.32 744.401 1033.48 742.116C1033.48 742.116 1033.2 740.267 1032.29 738.765C1031.38 737.263 1021.07 736.928 1020.53 738.824C1019.99 740.721 1019.06 744.039 1019.06 744.039C1019.06 744.039 1014.93 740.703 1012.89 739.422C1010.85 738.142 1008.18 750.42 1008.18 750.42C1008.18 750.42 1002.79 747.779 1001.11 747.099Z" fill="#0F3057"/>
<path d="M0 882.004C85.3673 896.908 138.6 854.504 192.675 854.004C246.75 853.504 392.7 905.004 392.7 905.004C392.7 905.004 526.05 905.004 572.25 905.004C618.45 905.004 756 913.004 756 913.004C816.303 890 851.828 884.331 919.8 893.004C1032.6 852.779 1088.13 867.111 1185.45 901.004C1256.84 907.882 1291.45 905.114 1347.15 893.004C1419.5 881.036 1453.74 886.3 1512 901.004V982.004H0V882.004Z" fill="#0F3057"/>
<path d="M1247.07 859.011C1251.73 864.482 1282.36 904 1282.36 904H1346.28C1346.28 904 1358.27 890.625 1360.93 883.329C1363.59 876.033 1370.25 852.932 1372.25 840.164C1374.25 827.396 1346.28 833.476 1346.28 846.243C1346.28 859.011 1344.95 875.425 1343.62 881.505C1342.29 887.586 1334.3 887.586 1334.3 883.329V820.101C1334.3 809.765 1312.32 813.412 1312.99 825.572C1313.66 837.733 1314.99 852.93 1316.32 872.994C1317.65 893.057 1307.66 893.057 1305.67 871.17C1303.67 849.282 1299.01 794.566 1298.34 786.663C1297.68 778.759 1271.71 789.703 1274.37 803.078C1277.03 816.453 1289.68 863.266 1289.68 863.266C1291.94 871.425 1290.59 872.814 1286.36 872.994C1286.36 872.994 1278.37 865.09 1275.7 861.442C1273.04 857.795 1272.37 853.539 1267.05 845.027C1261.72 836.516 1242.41 853.539 1247.07 859.011Z" fill="#0F3057"/>
<path d="M140.596 835.732C148.151 838.059 166.444 843.765 167.459 859H185.088C185.088 859 185.09 852.796 185.088 848.917C185.086 845.039 187.608 845.04 191.804 841.161C195.999 837.283 198.519 839.609 208.593 839.61C218.667 839.611 214.471 831.855 208.593 832.63C202.715 833.405 205.233 833.405 201.877 833.405C198.521 833.406 198.521 831.855 201.877 829.527C205.233 827.2 222.866 820.997 228.741 817.893C234.615 814.79 227.35 809.18 224.543 811.689C221.737 814.198 222.862 813.239 222.025 814.015C221.187 814.792 216.99 814.792 218.667 810.138C220.344 805.483 225.384 800.831 229.58 796.177C233.776 791.522 227.899 783.767 222.025 792.299C216.15 800.831 210.27 812.464 209.433 814.791C208.595 817.119 203.556 818.67 203.556 814.015C203.556 809.361 203.558 813.241 203.556 810.138C203.554 807.034 198.518 805.484 197.68 810.138C196.842 814.791 196.84 814.015 196.001 817.118C195.162 820.221 191.802 825.649 189.285 828.752C186.769 831.855 180.892 834.182 180.89 828.752C180.889 823.322 181.732 815.567 181.73 810.913C181.728 806.259 197.68 800.055 200.198 798.504C202.717 796.952 203.554 793.849 199.359 796.177C195.163 798.504 196.84 797.727 195.162 798.504C193.483 799.28 190.966 796.177 193.483 794.626C195.999 793.074 197.68 793.074 203.556 788.421C209.433 783.767 203.556 779.889 199.359 783.767C195.162 787.646 191.802 791.522 190.125 793.074C188.448 794.626 182.571 796.177 185.088 793.074C187.604 789.972 202.719 762.051 206.914 755.846C211.11 749.64 205.233 744.987 201.877 751.192C198.521 757.398 199.357 758.947 197.68 761.275C196.003 763.603 192.645 765.154 193.483 761.275C194.32 757.396 193.483 734.129 193.483 729.476C193.483 724.822 188.444 721.72 188.446 731.027C188.448 740.334 186.765 776.787 185.088 781.44C183.411 786.094 180.049 789.972 178.372 793.074C176.695 796.177 174.176 795.401 174.175 791.523C174.173 787.645 176.695 755.07 178.372 741.885C180.049 728.7 170.817 732.578 170.817 741.885V761.275C170.817 766.704 165.782 767.48 164.101 762.826C162.42 758.173 161.584 755.846 159.904 748.865C158.223 741.885 148.988 744.212 154.027 755.846C159.066 767.48 164.939 779.889 167.459 788.421C169.979 796.952 164.101 800.055 159.904 794.626C155.706 789.196 145.632 772.133 143.114 767.48C140.596 762.826 134.717 769.031 137.238 772.133C139.758 775.236 144.791 782.216 145.632 783.767C146.474 785.318 147.313 787.645 144.793 786.87C142.278 786.096 142.276 786.094 137.27 781.471L137.238 781.44C132.199 776.787 131.359 785.318 134.719 786.87C138.079 788.421 146.47 794.626 148.151 796.952C149.832 799.279 159.062 807.035 164.101 817.118C169.14 827.201 163.263 829.527 159.904 827.201C156.544 824.874 145.634 816.342 144.793 814.791C143.952 813.24 144.795 807.035 144.793 802.382C144.791 797.728 138.915 799.279 138.917 802.382C138.918 805.484 138.917 807.811 138.917 807.811C138.917 807.811 134.721 804.708 133.04 802.382C131.359 800.055 126.323 802.382 128.843 805.484C131.363 808.586 140.596 817.118 140.596 817.118H128.843C125.483 817.118 124.644 820.996 128.843 820.996C133.041 820.996 141.435 820.22 144.793 823.323C148.151 826.425 154.027 833.405 154.027 833.405C154.027 833.405 148.99 831.079 143.114 829.527C137.238 827.976 133.04 833.405 140.596 835.732Z" fill="#0F3057"/>
<path d="M764.783 903.992L763.676 914H757.587C757.587 914 759.249 905.193 758.694 903.992C758.14 902.791 754.268 900.389 749.285 897.987C744.301 895.585 744.304 893.984 742.089 889.58C739.873 885.177 742.642 883.576 746.517 887.179C750.392 890.781 754.82 893.584 755.373 894.384C755.927 895.185 758.141 894.785 757.587 893.183C757.034 891.582 752.052 881.574 750.392 877.971C748.731 874.368 750.392 866.362 750.152 863.159C749.911 859.957 755.927 855.954 756.48 863.159C757.034 870.365 757.034 878.372 757.587 880.773C758.141 883.175 760.909 885.177 760.909 885.177L766.444 855.954C766.444 855.954 758.696 849.548 755.927 847.547C753.158 845.545 750.946 841.942 749.838 839.14C748.73 836.338 747.625 834.336 748.177 830.733C748.73 827.131 753.711 828.331 754.266 830.733C754.821 833.135 755.925 837.539 756.48 838.74C757.035 839.941 761.462 844.344 762.016 845.145C762.569 845.946 764.785 845.946 764.23 843.944C763.675 841.942 762.569 838.34 762.016 833.936C761.462 829.532 762.571 826.73 762.569 823.528C762.568 820.325 768.103 819.925 768.104 823.528C768.106 827.131 768.658 840.741 768.658 840.741H769.765C769.765 840.741 774.195 812.719 771.979 813.119C769.764 813.52 759.803 808.315 757.587 805.914C755.372 803.512 751.5 799.909 749.285 796.706C747.069 793.504 751.497 792.703 754.266 794.705C757.035 796.706 766.443 803.512 766.997 804.312C767.552 805.113 768.659 804.312 768.104 803.512C767.55 802.711 760.91 794.304 760.355 793.504C759.8 792.703 759.803 792.303 759.248 788.7C758.693 785.097 762.017 784.697 764.785 787.499C767.552 790.301 767.551 791.102 768.106 791.502C768.661 791.902 771.979 801.51 771.979 801.51C771.979 801.51 770.32 779.893 769.765 779.092C769.21 778.291 760.355 775.889 757.587 774.288C754.82 772.687 753.161 770.685 750.945 767.883C748.73 765.081 754.266 763.88 755.927 765.882C757.587 767.883 757.587 768.684 759.802 769.885C762.016 771.086 765.337 772.687 765.337 772.687C765.337 772.687 758.696 759.877 757.034 757.075C755.372 754.272 760.907 752.671 762.016 755.473C763.124 758.275 769.765 771.486 769.765 771.486C769.765 771.486 771.981 764.28 771.979 761.878C771.978 759.476 771.427 759.877 770.872 756.274C770.317 752.671 775.854 753.872 776.407 756.274C776.957 758.659 776.96 761.043 776.961 762.253L776.961 762.279C776.962 763.48 774.747 771.886 774.747 771.886C774.747 771.886 779.176 766.682 780.282 764.28C781.388 761.878 781.391 761.878 782.496 759.476C783.602 757.075 789.137 757.075 786.924 759.877C784.712 762.679 784.155 763.48 783.603 767.083C783.051 770.685 773.64 779.893 773.64 779.893L776.407 802.711C776.407 802.711 779.73 788.7 780.282 786.298C780.834 783.896 785.817 781.894 785.817 786.298C785.817 790.701 783.603 802.711 783.603 802.711C783.603 802.711 788.033 797.507 788.585 795.505C789.137 793.504 791.906 788.7 791.906 785.497C791.906 782.295 797.44 783.896 797.441 786.298C797.443 788.7 797.441 789.901 796.334 792.303C795.227 794.705 791.906 800.309 790.246 802.711C788.585 805.113 784.712 808.716 781.943 811.118C779.174 813.52 776.407 813.92 776.407 813.92L775.3 840.741C775.3 840.741 783.605 828.732 785.817 824.729C788.03 820.725 794.119 822.727 791.906 826.33C789.704 829.916 789.144 830.726 787.502 833.101L787.478 833.135C785.817 835.537 779.729 844.745 779.729 844.745C779.729 844.745 785.816 841.942 787.478 840.741C789.14 839.54 792.46 833.936 795.227 831.534C797.995 829.132 801.316 833.135 799.656 835.137C797.995 837.139 795.227 840.741 793.013 843.143C790.799 845.545 783.051 851.55 779.729 853.151C776.406 854.753 771.979 855.954 771.979 855.954L766.997 887.579C766.997 887.579 770.872 880.373 771.979 877.571C773.086 874.769 774.193 871.966 774.193 867.963C774.193 863.96 779.175 863.56 779.729 867.963C780.282 872.367 780.282 871.166 779.729 873.167C779.175 875.169 776.961 879.172 776.407 880.773C775.854 882.375 771.979 893.183 771.979 893.183C771.979 893.183 779.175 886.378 781.389 883.976C783.603 881.574 790.246 870.365 790.799 867.963C791.353 865.561 791.353 864.36 790.799 861.958C790.246 859.556 797.441 857.955 797.995 861.958C798.549 865.962 798.549 870.365 797.995 871.966C797.441 873.568 778.622 897.987 776.407 899.588C774.193 901.19 769.742 902.814 764.783 903.992Z" fill="#0F3057"/>
<path d="M938.441 902C938.441 902 963.824 879.403 967.257 876.579C970.69 873.754 974.116 866.694 976.862 863.162C979.609 859.63 973.434 857.513 970.687 860.337C967.941 863.162 961.77 873.754 959.024 876.579C956.277 879.403 950.107 882.933 948.046 884.346C945.986 885.76 943.241 883.641 945.302 881.522C947.362 879.402 958.336 867.4 961.082 863.162C963.829 858.924 970.687 849.04 972.746 843.39C974.804 837.739 972.746 819.382 972.746 815.144C972.746 810.905 967.257 811.612 967.257 815.144C967.257 818.676 966.573 829.971 965.885 834.21C965.196 838.448 941.646 879.347 939.813 879.403C937.98 879.459 936.38 879.403 938.441 876.579C940.501 873.754 951.214 857.911 954.907 843.39C958.6 828.868 951.475 795.373 949.418 791.134C947.362 786.896 938.443 786.896 939.813 794.665C941.183 802.434 943.246 821.499 943.244 827.854C943.241 834.21 939.815 848.331 938.441 851.863C937.067 855.395 928.836 881.522 928.836 881.522C928.836 881.522 935.694 827.149 935.697 820.087C935.699 813.024 933.636 803.846 932.952 799.608C932.268 795.37 926.779 798.195 926.777 801.021C926.775 803.846 922.661 884.346 922.661 884.346C922.661 884.346 919.914 843.391 919.916 839.859C919.918 836.327 912.367 808.083 910.995 805.259C909.623 802.434 901.39 784.78 899.333 782.661C897.277 780.541 891.992 783.259 893.845 794.665C893.845 794.665 906.883 829.267 908.253 836.328C909.623 843.39 915.114 879.403 915.114 879.403C915.114 879.403 902.762 853.982 901.392 850.451C900.022 846.92 895.901 829.267 895.217 824.323C894.533 819.38 888.358 820.087 888.356 824.323C888.354 828.56 889.38 842.431 893.845 856.1C898.73 867.501 902.13 873.564 908.253 884.346C907.309 885.409 882.144 862.573 878.064 858.219C873.985 853.864 870.519 858.925 873.948 863.162C877.377 867.399 885.612 876.579 886.984 877.991C888.356 879.403 908.955 893.153 910.311 894.938C911.667 896.724 911.683 899.175 910.311 898.469C908.939 897.763 891.1 887.877 886.984 884.346C882.867 880.816 877.378 883.64 881.495 887.877C885.612 892.114 889.707 895.988 899.333 902H938.441Z" fill="#0F3057"/>
<path d="M805.956 893.552L805.155 902H800.748C800.748 902 801.951 894.565 801.549 893.552C801.148 892.538 798.201 890.579 795.541 888.096C792.88 885.613 792.07 885.261 789.522 881.641C786.973 878.02 789.932 876.317 792.737 879.358C795.541 882.4 798.745 884.765 799.146 885.441C799.547 886.117 801.149 885.779 800.748 884.427C800.348 883.076 796.241 875.185 795.541 871.586C794.841 867.987 795.541 861.786 795.367 859.082C795.193 856.379 799.547 853 799.947 859.082C800.348 865.165 800.348 871.924 800.748 873.951C801.149 875.979 803.152 877.669 803.152 877.669L807.158 853C807.158 853 801.55 847.593 799.547 845.903C797.543 844.213 795.942 841.172 795.14 838.806C794.338 836.441 793.539 834.751 793.938 831.71C794.338 828.668 797.943 829.682 798.345 831.71C798.746 833.737 799.04 836.69 800.16 838.806C801.28 840.922 803.552 843.199 803.953 843.875C804.354 844.551 805.957 844.551 805.555 842.862C805.154 841.172 804.354 838.13 803.953 834.413C803.552 830.696 804.355 828.33 804.354 825.627C804.353 822.923 808.358 822.586 808.359 825.627C808.36 828.668 808.76 840.158 808.76 840.158H809.561C809.561 840.158 812.767 816.503 811.164 816.841C809.56 817.179 803.553 813.156 801.95 811.128C800.347 809.101 796.343 805.689 794.74 802.985C793.136 800.282 796.341 799.606 798.345 801.296C800.349 802.985 807.157 808.73 807.558 809.406C807.96 810.082 808.761 809.406 808.359 808.73C807.958 808.054 803.921 801.376 803.519 800.701C803.118 800.025 802.352 799.268 801.95 796.227C801.549 793.185 803.954 792.847 805.957 795.213C807.96 797.578 807.602 797.477 808.36 798.592C809.119 799.707 813.038 808.646 813.038 808.646C813.038 808.646 816.773 796.227 817.172 794.199C817.572 792.171 821.178 790.482 821.178 794.199C821.178 797.916 819.576 808.054 819.576 808.054C819.576 808.054 822.38 803.661 822.78 801.972C823.179 800.282 824.236 796.728 824.796 794.245C825.356 791.762 829.346 792.167 829.591 794.199C829.835 796.231 829.423 796.842 828.789 799.268C828.158 801.686 825.602 805.998 824.395 808.034L824.383 808.054C823.181 810.082 820.378 813.123 818.374 815.151C816.37 817.179 814.368 817.517 814.368 817.517L813.567 840.158C813.567 840.158 819.577 830.02 821.178 826.641C822.78 823.261 827.186 824.951 825.585 827.992C823.991 831.019 823.586 831.703 822.397 833.708L822.38 833.737C821.178 835.765 816.772 843.537 816.772 843.537C816.772 843.537 822.173 841.686 824.236 839.433C826.299 837.179 825.985 834.413 827.988 832.386C829.991 830.358 830.955 832.977 830.392 835.157C829.828 837.336 828.319 840.834 826.716 842.862C825.114 844.889 819.176 849.282 816.772 850.634C814.367 851.986 811.164 853 811.164 853L807.558 879.696C807.558 879.696 809.119 874.689 811.164 871.248C813.209 867.807 812.766 866.517 812.766 863.138C812.766 859.758 816.772 859.035 816.772 863.138C816.772 867.24 816.957 864.757 816.772 867.531C816.586 870.304 815.971 871.228 814.368 873.951C812.766 876.675 811.164 884.427 811.164 884.427C811.164 884.427 815.174 879.634 817.517 876.178C819.861 872.722 821.997 868.73 823.676 865.75C825.356 862.771 825.184 860.096 824.783 858.069C824.383 856.041 829.991 854.359 829.991 858.069C829.991 861.778 830.235 862.771 828.715 866.247C827.196 869.723 818.077 888.096 814.368 889.834C810.659 891.573 809.545 892.557 805.956 893.552Z" fill="#0F3057"/>
</g>
<defs>
<linearGradient id="paint0_linear_557_31" x1="756" y1="0" x2="756" y2="982" gradientUnits="userSpaceOnUse">
<stop stop-color="#64BBF9"/>
<stop offset="1" stop-color="#106AAB"/>
</linearGradient>
<clipPath id="clip0_557_31">
<rect width="1512" height="982" fill="white"/>
</clipPath>
</defs>
</svg>
