<svg width="1440" height="1024" viewBox="0 0 1440 1024" fill="none" xmlns="http://www.w3.org/2000/svg">
<g clip-path="url(#clip0_295_467)">
<rect width="1440" height="1024" fill="url(#paint0_linear_295_467)"/>
<path d="M608.785 844.569C716.675 818.123 786.187 807.518 925.494 795.565C1044.97 794.73 1112.59 793.262 1239.85 779.973C1308.37 747.814 1353.42 737.908 1440 728V1024H504L608.785 844.569Z" fill="#326696"/>
<path d="M1315.29 741.661C1318.17 745.398 1320.06 747.258 1324.08 750H1341.65C1341.65 750 1365.29 736.477 1366.26 722.899C1366.68 717.003 1363.42 713.944 1363.04 708.046C1362.67 702.342 1365.1 699.11 1364.21 693.453C1364 692.167 1363.61 690.825 1363.09 689.471C1361.96 691.063 1360.64 692.526 1359.28 693.974C1361.28 701.212 1356.46 706.155 1357.76 713.518C1358.51 717.716 1362.53 719.84 1361.28 723.941C1357.99 734.692 1347.8 741.776 1338.72 746.612C1336.7 747.69 1332.86 747.915 1332.86 747.915C1332.86 747.915 1333.34 745.356 1334.33 744.007C1336.45 741.103 1340.3 742.437 1343.41 740.358C1349.43 736.339 1350.99 731.802 1352.49 725.244C1354.01 718.636 1349.89 714.748 1350.73 708.046C1351.51 701.864 1355.52 697.977 1359.28 693.974C1358.63 691.61 1357.4 690.064 1356.15 688.589C1351.94 695.469 1345.31 700.817 1345.46 710.13C1345.53 714.548 1347.4 716.92 1347.22 721.336L1347.21 721.515C1346.99 726.768 1346.85 730.303 1343.41 734.625C1340.44 738.363 1332.86 741.661 1332.86 741.661C1332.86 741.661 1338.16 734.549 1338.72 729.153C1339.19 724.667 1336.4 723.638 1337.55 719.251C1338.42 715.921 1341.71 715.282 1343.41 712.215C1346.67 706.339 1345.8 702.082 1345.46 695.537C1344.99 686.488 1336.68 682.002 1338.72 673.127C1339.91 668 1343.91 666.189 1345.46 661.14C1347.54 654.366 1346.36 650.135 1345.46 643.16C1343.74 629.891 1333.49 624.191 1332.86 610.847C1332.48 602.636 1336.09 590 1336.09 590C1336.09 590 1324.14 598.693 1327.59 609.544C1331.05 620.395 1340.82 648.828 1338.72 655.147C1336.62 661.465 1334.21 661.013 1332.86 665.309C1331.94 668.276 1331.92 670.054 1331.69 673.127C1330.8 685.255 1341.39 691.694 1338.72 703.616C1337.34 709.789 1331.59 712.176 1331.69 718.469C1331.75 722.146 1334.25 723.913 1334.33 727.59C1334.46 733.449 1328.47 741.661 1328.47 741.661C1328.47 741.661 1324.41 733.285 1324.08 727.59C1323.87 724.019 1324.48 722.018 1324.96 718.469C1325.55 714.067 1327.33 711.688 1327.01 707.264C1326.59 701.511 1321.15 693.453 1321.15 693.453C1321.15 693.453 1327.1 681.896 1326.42 674.169C1325.91 668.298 1321.57 665.714 1321.15 659.837C1320.74 654.16 1326.17 650.88 1324.08 645.505C1323.2 643.262 1320.56 640.293 1320.56 640.293C1320.56 640.293 1321.25 644.416 1321.15 647.068C1320.94 652.769 1316.6 655.438 1316.75 661.14C1316.89 666.003 1319.92 668.296 1320.56 673.127C1321.68 681.517 1315.57 686.112 1316.75 694.495C1317.48 699.67 1320.16 702.124 1321.15 707.264C1322.65 715.09 1319.22 719.74 1320.56 727.59C1321.79 734.78 1327.01 745.309 1327.01 745.309C1327.01 745.309 1322.22 742.921 1320.56 740.358C1318.77 737.59 1319.93 735.388 1319.1 732.28C1317.67 726.986 1314.05 724.674 1313.53 719.251C1313.11 714.849 1316.11 712.403 1315.29 708.046C1314.49 703.781 1310.71 702.377 1309.72 698.143C1308.63 693.443 1310.89 685.896 1310.89 685.896C1310.89 685.896 1305.48 692.96 1305.04 698.143C1304.5 704.465 1310.1 707.218 1310.89 713.518C1311.59 718.994 1308.21 722.246 1309.72 727.59C1310.86 731.607 1315.29 734.104 1315.29 736.971V741.661Z" fill="#326696"/>
<path d="M1359.28 693.974C1360.64 692.526 1361.96 691.063 1363.09 689.471C1362.08 686.858 1360.59 684.198 1359.05 681.803C1358.47 684.304 1357.42 686.516 1356.15 688.589C1357.4 690.064 1358.63 691.61 1359.28 693.974Z" fill="#326696"/>
<path d="M1352.49 673.127C1352.49 673.127 1351.74 678.748 1352.49 682.248C1353.11 685.133 1354.65 686.809 1356.15 688.589C1357.42 686.516 1358.47 684.304 1359.05 681.803C1355.89 676.91 1352.49 673.127 1352.49 673.127Z" fill="#326696"/>
<path d="M1357.76 664.267C1356.95 669.647 1359.67 672.652 1359.52 678.078C1359.48 679.394 1359.32 680.63 1359.05 681.803C1360.59 684.198 1362.08 686.858 1363.09 689.471C1364.8 687.058 1366.04 684.348 1366.26 680.945C1366.68 674.347 1361.22 670.676 1363.04 664.267C1364.15 660.337 1367.51 659.082 1368.6 655.147C1371.02 646.391 1361.69 642.325 1359.52 633.518C1357.16 623.957 1357.76 608.502 1357.76 608.502C1357.76 608.502 1352.08 623.801 1353.96 633.518C1355.45 641.289 1363.6 644.152 1363.04 652.02C1362.67 657.131 1358.53 659.191 1357.76 664.267Z" fill="#326696"/>
<path d="M0 559.274C0 559.274 16 551.907 21 559.274C26 566.642 36 610.281 36 610.281C46.7476 627.453 52.1131 637.859 59 659.587C92.8787 666.727 107.309 676.905 129.5 699.826C136.64 769.573 167.354 764.52 245.5 716.828C255.88 680.825 270.9 675.934 306.5 681.69C410.534 710.407 475.477 713.546 592.5 716.828L662 721.928L797 737.23C827.239 748.822 836.803 762.053 856 783.703C887.303 830.422 911.406 844.771 960 860.213V1024H0V559.274Z" fill="#2E5B84"/>
<path d="M0 850.743L58.5 815C127.381 820.461 185.533 876.42 211.5 860.672C237.467 844.924 338.765 825.745 392.5 860.672C421.129 876.666 437.568 878.625 467.5 871.097C512.663 856.523 537.151 845.485 586.5 845.283L649.5 860.672C699.245 823.178 758.252 831.977 888 871.097C976.544 876.081 1045.5 833.368 1057 831.382C1068.5 829.397 1216.57 804.495 1292.5 845.283C1318.44 866.116 1341.5 873.777 1364.5 871.097C1387.5 868.418 1390.37 840.722 1440 845.283V1024H0V850.743Z" fill="#113D66"/>
<path d="M254.571 812.509C258.27 817.069 282.579 850 282.579 850H333.31C333.31 850 342.821 838.855 344.935 832.774C347.049 826.694 352.333 807.443 353.919 796.803C355.504 786.163 333.31 791.23 333.31 801.869C333.31 812.509 332.253 826.187 331.196 831.254C330.139 836.321 323.797 836.321 323.797 832.774V780.084C323.797 771.471 306.359 774.51 306.887 784.644C307.415 794.777 308.473 807.442 309.529 824.161C310.586 840.881 302.659 840.881 301.074 822.642C299.489 804.402 295.79 758.805 295.261 752.219C294.733 745.633 274.124 754.752 276.237 765.898C278.351 777.044 288.392 816.055 288.392 816.055C290.184 822.854 289.111 824.011 285.749 824.161C285.749 824.161 279.408 817.575 277.294 814.535C275.181 811.496 274.652 807.949 270.424 800.856C266.197 793.763 250.872 807.949 254.571 812.509Z" fill="#113D66"/>
<path d="M627.008 847.636C632.189 849.372 644.733 853.631 645.429 865H657.517C657.517 865 657.519 860.37 657.517 857.476C657.516 854.581 659.246 854.582 662.122 851.688C664.999 848.793 666.728 850.529 673.635 850.53C680.543 850.53 677.666 844.742 673.635 845.321C669.605 845.899 671.331 845.899 669.03 845.9C666.729 845.9 666.729 844.742 669.03 843.006C671.331 841.269 683.422 836.639 687.451 834.323C691.479 832.008 686.497 827.821 684.572 829.693C682.648 831.565 683.42 830.85 682.846 831.429C682.271 832.009 679.393 832.009 680.543 828.535C681.693 825.062 685.149 821.59 688.026 818.117C690.903 814.644 686.874 808.856 682.846 815.223C678.817 821.59 674.785 830.271 674.211 832.008C673.637 833.745 670.181 834.903 670.181 831.429C670.181 827.956 670.183 830.851 670.181 828.535C670.18 826.22 666.726 825.063 666.152 828.535C665.578 832.008 665.576 831.429 665.001 833.745C664.425 836.06 662.121 840.111 660.396 842.427C658.67 844.742 654.64 846.479 654.639 842.427C654.638 838.375 655.216 832.588 655.215 829.114C655.214 825.641 666.152 821.012 667.879 819.853C669.606 818.695 670.18 816.38 667.303 818.117C664.426 819.854 665.576 819.274 664.425 819.853C663.274 820.433 661.548 818.117 663.274 816.959C664.999 815.802 666.152 815.802 670.181 812.329C674.211 808.856 670.181 805.962 667.303 808.856C664.425 811.751 662.121 814.644 660.971 815.802C659.821 816.96 655.792 818.117 657.517 815.802C659.243 813.487 669.607 792.65 672.484 788.019C675.361 783.388 671.331 779.916 669.03 784.546C666.729 789.177 667.302 790.334 666.152 792.071C665.002 793.808 662.699 794.965 663.274 792.071C663.848 789.176 663.274 771.813 663.274 768.34C663.274 764.867 659.819 762.552 659.82 769.498C659.821 776.443 658.667 803.647 657.517 807.12C656.367 810.593 654.062 813.487 652.912 815.802C651.762 818.117 650.035 817.538 650.034 814.644C650.033 811.75 651.762 787.44 652.912 777.601C654.062 767.761 647.731 770.655 647.731 777.601V792.071C647.731 796.123 644.279 796.701 643.126 793.229C641.974 789.756 641.401 788.019 640.248 782.81C639.096 777.601 632.764 779.337 636.219 788.019C639.674 796.701 643.701 805.962 645.429 812.329C647.157 818.696 643.126 821.011 640.248 816.959C637.37 812.908 630.462 800.174 628.735 796.701C627.008 793.229 622.978 797.859 624.706 800.174C626.434 802.489 629.885 807.699 630.462 808.856C631.039 810.014 631.615 811.75 629.887 811.171C628.162 810.594 628.161 810.593 624.728 807.142L624.706 807.12C621.251 803.647 620.675 810.014 622.979 811.171C625.283 812.329 631.037 816.959 632.189 818.696C633.342 820.432 639.671 826.22 643.126 833.745C646.581 841.269 642.552 843.006 640.248 841.269C637.944 839.533 630.463 833.166 629.887 832.008C629.31 830.851 629.888 826.22 629.887 822.747C629.885 819.275 625.856 820.432 625.857 822.747C625.858 825.063 625.857 826.799 625.857 826.799C625.857 826.799 622.98 824.484 621.828 822.747C620.675 821.011 617.221 822.747 618.949 825.063C620.678 827.378 627.008 833.745 627.008 833.745H618.949C616.646 833.745 616.07 836.639 618.949 836.639C621.828 836.639 627.584 836.06 629.887 838.375C632.189 840.69 636.219 845.9 636.219 845.9C636.219 845.9 632.765 844.163 628.735 843.006C624.706 841.848 621.828 845.9 627.008 847.636Z" fill="#113D66"/>
<path d="M58.5025 747.678C57.1131 745.944 51.985 749.21 51.5533 753.746C46.5047 754.369 44.6041 758.514 45.0674 759.815C45.5307 761.115 51.09 762.849 52.9427 763.282C54.7954 763.715 58.0388 763.716 58.0388 763.716C48.3302 767.032 60.356 776.72 61.7455 776.72C63.1349 776.72 67.8883 776.955 71.0106 777.154C72.4864 786.176 76.5897 784.088 83.9829 783.656C94.3251 785.742 100.532 787.675 107.61 783.656L106.684 781.922H109C106.671 771.881 103.423 768.097 97.418 761.549C97.418 761.549 98.3441 759.381 98.3446 757.214C98.345 755.047 87.2263 748.544 85.3727 750.278C83.5192 752.012 80.2766 755.047 80.2766 755.047C80.2766 755.047 77.9598 748.978 76.5704 746.377C75.181 743.776 64.0614 755.48 64.0614 755.48C64.0614 755.48 59.8919 749.411 58.5025 747.678Z" fill="#0F3057"/>
<path d="M1005.53 809.702C1003.46 808.895 1000.65 814.288 1002.55 818.432C998.488 821.496 998.914 826.036 999.966 826.93C1001.02 827.825 1006.7 826.547 1008.52 825.995C1010.34 825.444 1013.15 823.823 1013.15 823.823C1006.4 831.549 1021.66 833.926 1022.86 833.232C1024.07 832.537 1028.3 830.364 1031.1 828.975C1036.89 836.05 1039.4 832.191 1045.59 828.119C1055.59 824.755 1061.93 823.325 1066.05 816.306L1064.38 815.267L1066.39 814.109C1059.35 806.579 1054.64 804.925 1046.17 802.257C1046.17 802.257 1045.89 799.916 1044.8 798.039C1043.72 796.162 1030.84 796.09 1030.1 798.519C1029.36 800.947 1028.07 805.196 1028.07 805.196C1028.07 805.196 1023.03 801.099 1020.53 799.541C1018.03 797.984 1014.25 813.679 1014.25 813.679C1014.25 813.679 1007.6 810.508 1005.53 809.702Z" fill="#0F3057"/>
<path d="M953.441 789.099C951.845 788.419 949.821 792.605 951.355 795.909C948.325 798.234 948.749 801.819 949.57 802.546C950.391 803.273 954.695 802.39 956.072 801.995C957.448 801.6 959.555 800.384 959.555 800.384C954.576 806.323 966.262 808.525 967.165 808.004C968.067 807.483 971.248 805.863 973.356 804.83C977.923 810.527 979.753 807.542 984.382 804.47C991.934 802.037 996.739 801.049 999.729 795.61L998.433 794.756L999.938 793.887C994.409 787.805 990.786 786.401 984.266 784.116C984.266 784.116 984.001 782.267 983.134 780.765C982.267 779.263 972.445 778.928 971.934 780.824C971.424 782.721 970.531 786.039 970.531 786.039C970.531 786.039 966.599 782.703 964.656 781.422C962.714 780.142 960.173 792.42 960.173 792.42C960.173 792.42 955.037 789.779 953.441 789.099Z" fill="#0F3057"/>
<path d="M0 924.004C81.3022 938.908 132 896.504 183.5 896.004C235 895.504 374 947.004 374 947.004C374 947.004 501 947.004 545 947.004C589 947.004 720 955.004 720 955.004C777.431 932 811.264 926.331 876 935.004C983.424 894.779 1036.31 909.111 1129 943.004C1196.99 949.882 1229.95 947.114 1283 935.004C1351.9 923.036 1384.51 928.3 1440 943.004V1024H0V924.004Z" fill="#0F3057"/>
<path d="M1187.69 901.011C1192.12 906.482 1221.29 946 1221.29 946H1282.17C1282.17 946 1293.59 932.625 1296.12 925.329C1298.66 918.033 1305 894.932 1306.9 882.164C1308.81 869.396 1282.17 875.476 1282.17 888.243C1282.17 901.011 1280.9 917.425 1279.63 923.505C1278.37 929.586 1270.76 929.586 1270.76 925.329V862.101C1270.76 851.765 1249.83 855.412 1250.46 867.572C1251.1 879.733 1252.37 894.93 1253.64 914.994C1254.9 935.057 1245.39 935.057 1243.49 913.17C1241.59 891.282 1237.15 836.566 1236.51 828.663C1235.88 820.759 1211.15 831.703 1213.68 845.078C1216.22 858.453 1228.27 905.266 1228.27 905.266C1230.42 913.425 1229.13 914.814 1225.1 914.994C1225.1 914.994 1217.49 907.09 1214.95 903.442C1212.42 899.795 1211.78 895.539 1206.71 887.027C1201.64 878.516 1183.25 895.539 1187.69 901.011Z" fill="#0F3057"/>
<path d="M133.901 877.732C141.096 880.059 158.518 885.765 159.485 901H176.274C176.274 901 176.276 894.796 176.274 890.917C176.272 887.039 178.674 887.04 182.67 883.161C186.666 879.283 189.066 881.609 198.66 881.61C208.254 881.611 204.258 873.855 198.66 874.63C193.062 875.405 195.46 875.405 192.264 875.405C189.068 875.406 189.068 873.855 192.264 871.527C195.46 869.2 212.253 862.997 217.848 859.893C223.443 856.79 216.523 851.18 213.851 853.689C211.178 856.198 212.25 855.239 211.452 856.015C210.654 856.792 206.657 856.792 208.254 852.138C209.851 847.483 214.652 842.831 218.648 838.177C222.643 833.522 217.047 825.767 211.452 834.299C205.857 842.831 200.257 854.464 199.46 856.791C198.662 859.119 193.863 860.67 193.863 856.015C193.863 851.361 193.865 855.241 193.863 852.138C193.861 849.034 189.064 847.484 188.267 852.138C187.469 856.791 187.467 856.015 186.668 859.118C185.868 862.221 182.668 867.649 180.272 870.752C177.875 873.855 172.278 876.182 172.277 870.752C172.275 865.322 173.078 857.567 173.076 852.913C173.074 848.259 188.267 842.055 190.665 840.504C193.064 838.952 193.861 835.849 189.866 838.177C185.87 840.504 187.467 839.727 185.868 840.504C184.269 841.28 181.872 838.177 184.269 836.626C186.666 835.074 188.267 835.074 193.863 830.421C199.46 825.767 193.863 821.889 189.866 825.767C185.868 829.646 182.668 833.522 181.071 835.074C179.474 836.626 173.877 838.177 176.274 835.074C178.671 831.972 193.065 804.051 197.061 797.846C201.057 791.64 195.46 786.987 192.264 793.192C189.068 799.398 189.864 800.947 188.267 803.275C186.669 805.603 183.471 807.154 184.269 803.275C185.067 799.396 184.269 776.129 184.269 771.476C184.269 766.822 179.47 763.72 179.472 773.027C179.474 782.334 177.871 818.787 176.274 823.44C174.677 828.094 171.475 831.972 169.878 835.074C168.281 838.177 165.882 837.401 165.881 833.523C165.879 829.645 168.281 797.07 169.878 783.885C171.475 770.7 162.683 774.578 162.683 783.885V803.275C162.683 808.704 157.887 809.48 156.287 804.826C154.686 800.173 153.89 797.846 152.289 790.865C150.688 783.885 141.894 786.212 146.693 797.846C151.491 809.48 157.084 821.889 159.485 830.421C161.885 838.952 156.287 842.055 152.289 836.626C148.292 831.196 138.698 814.133 136.299 809.48C133.901 804.826 128.302 811.031 130.703 814.133C133.103 817.236 137.896 824.216 138.698 825.767C139.499 827.318 140.298 829.645 137.898 828.87C135.503 828.096 135.501 828.094 130.734 823.471L130.703 823.44C125.904 818.787 125.104 827.318 128.304 828.87C131.504 830.421 139.495 836.626 141.096 838.952C142.697 841.279 151.488 849.035 156.287 859.118C161.085 869.201 155.489 871.527 152.289 869.201C149.089 866.874 138.699 858.342 137.898 856.791C137.097 855.24 137.9 849.035 137.898 844.382C137.896 839.728 132.3 841.279 132.302 844.382C132.303 847.484 132.302 849.811 132.302 849.811C132.302 849.811 128.306 846.708 126.705 844.382C125.104 842.055 120.307 844.382 122.708 847.484C125.108 850.586 133.901 859.118 133.901 859.118H122.708C119.508 859.118 118.709 862.996 122.708 862.996C126.706 862.996 134.7 862.22 137.898 865.323C141.096 868.425 146.693 875.405 146.693 875.405C146.693 875.405 141.896 873.079 136.299 871.527C130.703 869.976 126.705 875.405 133.901 877.732Z" fill="#0F3057"/>
<path d="M728.364 945.992L727.31 956H721.511C721.511 956 723.094 947.193 722.565 945.992C722.037 944.791 718.349 942.389 713.604 939.987C708.858 937.585 708.86 935.984 706.75 931.58C704.64 927.177 707.278 925.576 710.968 929.179C714.658 932.781 718.875 935.584 719.402 936.384C719.93 937.185 722.038 936.785 721.511 935.183C720.984 933.582 716.239 923.574 714.658 919.971C713.076 916.368 714.658 908.362 714.429 905.159C714.201 901.957 719.93 897.954 720.457 905.159C720.984 912.365 720.984 920.372 721.511 922.773C722.038 925.175 724.674 927.177 724.674 927.177L729.946 897.954C729.946 897.954 722.567 891.548 719.93 889.547C717.292 887.545 715.186 883.942 714.131 881.14C713.075 878.338 712.023 876.336 712.549 872.733C713.075 869.131 717.82 870.331 718.348 872.733C718.877 875.135 719.928 879.539 720.457 880.74C720.985 881.941 725.201 886.344 725.728 887.145C726.256 887.946 728.366 887.946 727.837 885.944C727.309 883.942 726.256 880.34 725.728 875.936C725.201 871.532 726.257 868.73 726.256 865.528C726.254 862.325 731.526 861.925 731.527 865.528C731.529 869.131 732.054 882.741 732.054 882.741H733.109C733.109 882.741 737.327 854.719 735.218 855.119C733.108 855.52 723.621 850.315 721.511 847.914C719.401 845.512 715.714 841.909 713.604 838.706C711.494 835.504 715.711 834.703 718.348 836.705C720.985 838.706 729.945 845.512 730.473 846.312C731.001 847.113 732.056 846.312 731.527 845.512C730.999 844.711 724.675 836.304 724.147 835.504C723.618 834.703 723.621 834.303 723.093 830.7C722.564 827.097 725.73 826.697 728.366 829.499C731.001 832.301 731 833.102 731.529 833.502C732.057 833.902 735.218 843.51 735.218 843.51C735.218 843.51 733.637 821.893 733.109 821.092C732.58 820.291 724.147 817.889 721.511 816.288C718.875 814.687 717.295 812.685 715.185 809.883C713.075 807.081 718.348 805.88 719.93 807.882C721.511 809.883 721.511 810.684 723.62 811.885C725.728 813.086 728.891 814.687 728.891 814.687C728.891 814.687 722.567 801.877 720.984 799.075C719.401 796.272 724.673 794.671 725.728 797.473C726.784 800.275 733.109 813.486 733.109 813.486C733.109 813.486 735.219 806.28 735.218 803.878C735.216 801.476 734.692 801.877 734.163 798.274C733.635 794.671 738.908 795.872 739.435 798.274C739.958 800.659 739.961 803.043 739.962 804.253L739.962 804.279C739.963 805.48 737.853 813.886 737.853 813.886C737.853 813.886 742.072 808.682 743.125 806.28C744.178 803.878 744.181 803.878 745.234 801.476C746.287 799.075 751.559 799.075 749.451 801.877C747.344 804.679 746.814 805.48 746.288 809.083C745.762 812.685 736.799 821.893 736.799 821.893L739.435 844.711C739.435 844.711 742.599 830.7 743.125 828.298C743.651 825.896 748.397 823.894 748.397 828.298C748.397 832.701 746.288 844.711 746.288 844.711C746.288 844.711 750.507 839.507 751.033 837.505C751.559 835.504 754.196 830.7 754.196 827.497C754.196 824.295 759.466 825.896 759.467 828.298C759.469 830.7 759.467 831.901 758.413 834.303C757.359 836.705 754.196 842.309 752.614 844.711C751.033 847.113 747.344 850.716 744.707 853.118C742.069 855.52 739.435 855.92 739.435 855.92L738.381 882.741C738.381 882.741 746.289 870.732 748.397 866.729C750.504 862.725 756.303 864.727 754.196 868.33C752.098 871.915 751.565 872.726 750.001 875.101L749.978 875.135C748.397 877.537 742.598 886.745 742.598 886.745C742.598 886.745 748.395 883.942 749.978 882.741C751.561 881.54 754.723 875.936 757.359 873.534C759.995 871.132 763.158 875.135 761.576 877.137C759.995 879.139 757.359 882.741 755.25 885.143C753.141 887.545 745.762 893.55 742.598 895.151C739.434 896.753 735.218 897.954 735.218 897.954L730.473 929.579C730.473 929.579 734.163 922.373 735.218 919.571C736.272 916.769 737.326 913.966 737.326 909.963C737.326 905.96 742.071 905.56 742.598 909.963C743.125 914.367 743.125 913.166 742.598 915.167C742.071 917.169 739.962 921.172 739.435 922.773C738.908 924.375 735.218 935.183 735.218 935.183C735.218 935.183 742.071 928.378 744.179 925.976C746.288 923.574 752.614 912.365 753.141 909.963C753.668 907.561 753.668 906.36 753.141 903.958C752.614 901.556 759.467 899.955 759.995 903.958C760.522 907.962 760.522 912.365 759.995 913.966C759.467 915.568 741.544 939.987 739.435 941.588C737.326 943.19 733.087 944.814 728.364 945.992Z" fill="#0F3057"/>
<path d="M893.753 944C893.753 944 917.927 921.403 921.196 918.579C924.466 915.754 927.729 908.694 930.344 905.162C932.96 901.63 927.079 899.513 924.463 902.337C921.848 905.162 915.971 915.754 913.355 918.579C910.739 921.403 904.863 924.933 902.9 926.346C900.938 927.76 898.324 925.641 900.287 923.522C902.249 921.402 912.7 909.4 915.316 905.162C917.931 900.924 924.463 891.04 926.424 885.39C928.384 879.739 926.424 861.382 926.424 857.144C926.424 852.905 921.196 853.612 921.196 857.144C921.196 860.676 920.545 871.971 919.89 876.21C919.234 880.448 896.805 921.347 895.059 921.403C893.314 921.459 891.79 921.403 893.753 918.579C895.715 915.754 905.918 899.911 909.435 885.39C912.952 870.868 906.166 837.373 904.207 833.134C902.249 828.896 893.755 828.896 895.059 836.665C896.364 844.434 898.329 863.499 898.326 869.854C898.324 876.21 895.061 890.331 893.753 893.863C892.444 897.395 884.605 923.522 884.605 923.522C884.605 923.522 891.137 869.149 891.139 862.087C891.141 855.024 889.176 845.846 888.525 841.608C887.874 837.37 882.646 840.195 882.644 843.021C882.642 845.846 878.724 926.346 878.724 926.346C878.724 926.346 876.108 885.391 876.11 881.859C876.112 878.327 868.92 850.083 867.613 847.259C866.307 844.434 858.466 826.78 856.507 824.661C854.549 822.541 849.516 825.259 851.28 836.665C851.28 836.665 863.697 871.267 865.002 878.328C866.307 885.39 871.536 921.403 871.536 921.403C871.536 921.403 859.772 895.982 858.468 892.451C857.163 888.92 853.238 871.267 852.587 866.323C851.935 861.38 846.055 862.087 846.053 866.323C846.05 870.56 847.028 884.431 851.28 898.1C855.932 909.501 859.171 915.564 865.002 926.346C864.103 927.409 840.137 904.573 836.251 900.219C832.365 895.864 829.065 900.925 832.331 905.162C835.596 909.399 843.439 918.579 844.746 919.991C846.053 921.403 865.671 935.153 866.962 936.938C868.254 938.724 868.269 941.175 866.962 940.469C865.655 939.763 848.666 929.877 844.746 926.346C840.825 922.816 835.598 925.64 839.518 929.877C843.439 934.114 847.339 937.988 856.507 944H893.753Z" fill="#0F3057"/>
<path d="M767.576 935.552L766.813 944H762.617C762.617 944 763.762 936.565 763.38 935.552C762.997 934.538 760.191 932.579 757.657 930.096C755.123 927.613 754.352 927.261 751.925 923.641C749.498 920.02 752.316 918.317 754.986 921.358C757.657 924.4 760.709 926.765 761.091 927.441C761.472 928.117 762.998 927.779 762.617 926.427C762.235 925.076 758.324 917.185 757.657 913.586C756.99 909.987 757.657 903.786 757.492 901.082C757.326 898.379 761.472 895 761.854 901.082C762.235 907.165 762.235 913.924 762.617 915.951C762.998 917.979 764.906 919.669 764.906 919.669L768.721 895C768.721 895 763.381 889.593 761.472 887.903C759.564 886.213 758.039 883.172 757.276 880.806C756.512 878.441 755.75 876.751 756.131 873.71C756.512 870.668 759.945 871.682 760.328 873.71C760.71 875.737 760.99 878.69 762.056 880.806C763.123 882.922 765.287 885.199 765.669 885.875C766.05 886.551 767.577 886.551 767.195 884.862C766.812 883.172 766.05 880.13 765.669 876.413C765.287 872.696 766.051 870.33 766.05 867.627C766.049 864.923 769.864 864.586 769.865 867.627C769.866 870.668 770.247 882.158 770.247 882.158H771.01C771.01 882.158 774.063 858.503 772.536 858.841C771.009 859.179 765.288 855.156 763.761 853.128C762.234 851.101 758.421 847.689 756.894 844.985C755.367 842.282 758.419 841.606 760.328 843.296C762.236 844.985 768.72 850.73 769.102 851.406C769.485 852.082 770.248 851.406 769.865 850.73C769.483 850.054 765.638 843.376 765.256 842.701C764.873 842.025 764.144 841.268 763.761 838.227C763.379 835.185 765.67 834.847 767.577 837.213C769.485 839.578 769.144 839.477 769.866 840.592C770.588 841.707 774.321 850.646 774.321 850.646C774.321 850.646 777.878 838.227 778.259 836.199C778.639 834.171 782.074 832.482 782.074 836.199C782.074 839.916 780.548 850.054 780.548 850.054C780.548 850.054 783.218 845.661 783.599 843.972C783.98 842.282 784.986 838.728 785.519 836.245C786.053 833.762 789.852 834.167 790.085 836.199C790.319 838.231 789.926 838.842 789.322 841.268C788.721 843.686 786.286 847.998 785.137 850.034L785.126 850.054C783.981 852.082 781.312 855.123 779.403 857.151C777.495 859.179 775.588 859.517 775.588 859.517L774.825 882.158C774.825 882.158 780.549 872.02 782.074 868.641C783.599 865.261 787.795 866.951 786.27 869.992C784.753 873.019 784.367 873.703 783.235 875.708L783.218 875.737C782.074 877.765 777.877 885.537 777.877 885.537C777.877 885.537 783.021 883.686 784.986 881.433C786.951 879.179 786.652 876.413 788.559 874.386C790.467 872.358 791.385 874.977 790.848 877.157C790.312 879.336 788.874 882.834 787.348 884.862C785.822 886.889 780.167 891.282 777.877 892.634C775.587 893.986 772.536 895 772.536 895L769.102 921.696C769.102 921.696 770.588 916.689 772.536 913.248C774.484 909.807 774.062 908.517 774.062 905.138C774.062 901.758 777.877 901.035 777.877 905.138C777.877 909.24 778.054 906.757 777.877 909.531C777.7 912.304 777.114 913.228 775.588 915.951C774.062 918.675 772.536 926.427 772.536 926.427C772.536 926.427 776.355 921.634 778.587 918.178C780.819 914.722 782.853 910.73 784.453 907.75C786.053 904.771 785.889 902.096 785.507 900.069C785.126 898.041 790.467 896.359 790.467 900.069C790.467 903.778 790.699 904.771 789.252 908.247C787.805 911.723 779.121 930.096 775.588 931.834C772.056 933.573 770.994 934.557 767.576 935.552Z" fill="#0F3057"/>
</g>
<defs>
<linearGradient id="paint0_linear_295_467" x1="720" y1="0" x2="720" y2="1024" gradientUnits="userSpaceOnUse">
<stop stop-color="#64BBF9"/>
<stop offset="1" stop-color="#106AAB"/>
</linearGradient>
<clipPath id="clip0_295_467">
<rect width="1440" height="1024" fill="white"/>
</clipPath>
</defs>
</svg>
