<svg width="480" height="1024" viewBox="0 0 480 1024" fill="none" xmlns="http://www.w3.org/2000/svg">
<rect width="480" height="1023.51" fill="url(#paint0_linear_462_60)"/>
<path fill-rule="evenodd" clip-rule="evenodd" d="M269 1023.3H0V724.655L106 736.664C133.447 747.181 143.86 759.047 159.903 777.329C161.536 779.189 163.227 781.116 165 783.115C196.303 829.812 220.406 844.154 269 859.588V1023.3Z" fill="#2E5B84"/>
<path fill-rule="evenodd" clip-rule="evenodd" d="M0 1024H480V786.626C393.065 793.923 330.533 795.002 234.494 795.673C133.332 804.349 68.975 812.315 0 826.149V1024Z" fill="#326696"/>
<path fill-rule="evenodd" clip-rule="evenodd" d="M0 1023.47H480V821.621C423.405 821.249 372.55 829.81 366 830.941C363.583 831.358 358.627 833.574 351.484 836.767C324.646 848.767 266.932 874.571 197 870.637C100.795 841.644 43.4823 829.313 0 840.152V1023.47Z" fill="#113D66"/>
<path d="M314.532 808.317C312.462 807.511 309.654 812.901 311.548 817.043C307.488 820.106 307.914 824.644 308.966 825.538C310.017 826.432 315.699 825.154 317.52 824.603C319.341 824.052 322.15 822.432 322.15 822.432C315.4 830.155 330.659 832.531 331.862 831.836C333.065 831.142 337.299 828.97 340.103 827.581C345.892 834.654 348.402 830.796 354.588 826.726C364.588 823.364 370.93 821.935 375.05 814.918L373.38 813.881L375.387 812.723C368.349 805.196 363.644 803.543 355.17 800.876C355.17 800.876 354.888 798.537 353.805 796.661C352.721 794.784 339.841 794.713 339.103 797.14C338.365 799.567 337.074 803.814 337.074 803.814C337.074 803.814 332.033 799.719 329.529 798.162C327.026 796.605 323.248 812.293 323.248 812.293C323.248 812.293 316.602 809.124 314.532 808.317Z" fill="#0F3057"/>
<path d="M262.441 787.724C260.845 787.044 258.821 791.228 260.355 794.531C257.325 796.855 257.749 800.438 258.57 801.164C259.391 801.891 263.695 801.008 265.072 800.614C266.448 800.219 268.555 799.004 268.555 799.004C263.576 804.939 275.262 807.141 276.165 806.62C277.067 806.099 280.248 804.48 282.356 803.447C286.923 809.142 288.753 806.158 293.382 803.088C300.934 800.656 305.739 799.668 308.729 794.232L307.433 793.378L308.938 792.51C303.409 786.43 299.786 785.027 293.266 782.743C293.266 782.743 293.001 780.895 292.134 779.394C291.267 777.893 281.445 777.558 280.934 779.453C280.424 781.349 279.531 784.665 279.531 784.665C279.531 784.665 275.599 781.331 273.656 780.051C271.714 778.771 269.173 791.043 269.173 791.043C269.173 791.043 264.037 788.404 262.441 787.724Z" fill="#0F3057"/>
<path d="M37.3643 944.543L36.31 954.546H30.5111C30.5111 954.546 32.0939 945.743 31.5654 944.543C31.037 943.342 27.3494 940.942 22.6035 938.541C17.8577 936.14 17.8604 934.54 15.7503 930.138C13.6403 925.737 16.2775 924.136 19.9677 927.737C23.6579 931.339 27.8752 934.139 28.4024 934.94C28.9296 935.74 31.0383 935.34 30.5111 933.739C29.9839 932.139 25.2394 922.136 23.6579 918.534C22.0764 914.933 23.6579 906.931 23.4293 903.73C23.2006 900.529 28.9296 896.527 29.4568 903.73C29.9839 910.932 29.9839 918.935 30.5111 921.335C31.0383 923.736 33.6741 925.737 33.6741 925.737L38.9458 896.527C38.9458 896.527 31.5667 890.125 28.9296 888.124C26.2924 886.124 24.1863 882.523 23.1307 879.722C22.0751 876.921 21.0233 874.92 21.5492 871.319C22.0751 867.718 26.8196 868.918 27.3481 871.319C27.8765 873.72 28.9283 878.121 29.4568 879.322C29.9852 880.522 34.2013 884.923 34.7285 885.724C35.2556 886.524 37.3656 886.524 36.8371 884.523C36.3087 882.523 35.2556 878.922 34.7285 874.52C34.2013 870.119 35.2569 867.318 35.2556 864.117C35.2543 860.916 40.526 860.516 40.5273 864.117C40.5286 867.718 41.0545 881.322 41.0545 881.322H42.1088C42.1088 881.322 46.3275 853.313 44.2175 853.713C42.1076 854.113 32.6211 848.912 30.5111 846.511C28.4011 844.11 24.7135 840.509 22.6035 837.308C20.4936 834.107 24.7109 833.307 27.3481 835.307C29.9852 837.308 38.9445 844.11 39.473 844.91C40.0014 845.711 41.0558 844.91 40.5273 844.11C39.9989 843.31 33.6754 834.907 33.1469 834.107C32.6185 833.307 32.6211 832.907 32.0926 829.305C31.5641 825.704 34.7297 825.304 37.3656 828.105C40.0014 830.906 40.0002 831.706 40.5286 832.106C41.0571 832.506 44.2175 842.11 44.2175 842.11C44.2175 842.11 42.6373 820.503 42.1088 819.702C41.5804 818.902 33.1469 816.501 30.5111 814.901C27.8752 813.3 26.295 811.299 24.1851 808.499C22.0751 805.698 27.3481 804.497 28.9296 806.498C30.5111 808.499 30.5111 809.299 32.6198 810.499C34.7285 811.699 37.8915 813.3 37.8915 813.3C37.8915 813.3 31.5667 800.496 29.9839 797.695C28.4011 794.894 33.6728 793.294 34.7285 796.095C35.7841 798.895 42.1088 812.1 42.1088 812.1C42.1088 812.1 44.2188 804.897 44.2175 802.497C44.2162 800.096 43.6916 800.496 43.1632 796.895C42.6347 793.294 47.9077 794.494 48.4349 796.895C48.9583 799.278 48.9608 801.662 48.962 802.871L48.962 802.897C48.9633 804.097 46.8534 812.5 46.8534 812.5C46.8534 812.5 51.072 807.298 52.1251 804.897C53.1781 802.497 53.1807 802.497 54.2338 800.096C55.2868 797.695 60.5585 797.695 58.4511 800.496C56.3437 803.297 55.814 804.097 55.2881 807.698C54.7622 811.3 45.799 820.503 45.799 820.503L48.4349 843.31C48.4349 843.31 51.5992 829.305 52.1251 826.905C52.651 824.504 57.3968 822.503 57.3968 826.905C57.3968 831.306 55.2881 843.31 55.2881 843.31C55.2881 843.31 59.5067 838.108 60.0326 836.108C60.5585 834.107 63.1956 829.305 63.1956 826.104C63.1956 822.903 68.4661 824.504 68.4673 826.905C68.4686 829.305 68.4673 830.506 67.413 832.907C66.3587 835.307 63.1956 840.909 61.6141 843.31C60.0326 845.711 56.3437 849.312 53.7066 851.713C51.0695 854.113 48.4349 854.514 48.4349 854.514L47.3805 881.322C47.3805 881.322 55.2894 869.318 57.3968 865.317C59.5042 861.316 65.303 863.316 63.1956 866.918C61.0984 870.501 60.5649 871.311 59.001 873.685L58.9783 873.72C57.3968 876.121 51.5979 885.324 51.5979 885.324C51.5979 885.324 57.3955 882.523 58.9783 881.322C60.5611 880.122 63.7228 874.52 66.3587 872.119C68.9945 869.719 72.1575 873.72 70.576 875.72C68.9945 877.721 66.3587 881.322 64.25 883.723C62.1413 886.124 54.7622 892.126 51.5979 893.726C48.4336 895.327 44.2175 896.527 44.2175 896.527L39.473 928.137C39.473 928.137 43.1632 920.935 44.2175 918.134C45.2719 915.333 46.3262 912.532 46.3262 908.531C46.3262 904.53 51.0707 904.13 51.5979 908.531C52.1251 912.933 52.1251 911.732 51.5979 913.733C51.0707 915.733 48.962 919.735 48.4349 921.335C47.9077 922.936 44.2175 933.739 44.2175 933.739C44.2175 933.739 51.0707 926.937 53.1794 924.536C55.2881 922.136 61.6141 910.932 62.1413 908.531C62.6685 906.13 62.6685 904.93 62.1413 902.529C61.6141 900.128 68.4673 898.528 68.9945 902.529C69.5217 906.53 69.5217 910.932 68.9945 912.532C68.4673 914.133 50.5436 938.541 48.4349 940.141C46.3262 941.742 42.0871 943.365 37.3643 944.543Z" fill="#0F3057"/>
<path d="M202.753 942.551C202.753 942.551 226.927 919.965 230.196 917.142C233.466 914.319 236.729 907.262 239.344 903.732C241.96 900.201 236.079 898.085 233.463 900.908C230.848 903.732 224.971 914.319 222.355 917.142C219.739 919.965 213.863 923.493 211.9 924.906C209.938 926.319 207.324 924.201 209.287 922.083C211.249 919.964 221.7 907.968 224.316 903.732C226.931 899.495 233.463 889.617 235.424 883.969C237.384 878.321 235.424 859.972 235.424 855.736C235.424 851.5 230.196 852.206 230.196 855.736C230.196 859.267 229.545 870.557 228.89 874.793C228.234 879.029 205.805 919.91 204.059 919.965C202.314 920.021 200.79 919.965 202.753 917.142C204.715 914.319 214.918 898.483 218.435 883.969C221.952 869.455 215.166 835.975 213.207 831.739C211.249 827.502 202.755 827.502 204.059 835.268C205.364 843.033 207.329 862.089 207.326 868.441C207.324 874.793 204.061 888.908 202.753 892.439C201.444 895.969 193.605 922.083 193.605 922.083C193.605 922.083 200.137 867.736 200.139 860.677C200.141 853.618 198.176 844.444 197.525 840.208C196.874 835.972 191.646 838.795 191.644 841.62C191.642 844.444 187.724 924.906 187.724 924.906C187.724 924.906 185.108 883.97 185.11 880.44C185.112 876.909 177.92 848.679 176.613 845.856C175.307 843.033 167.466 825.387 165.507 823.269C163.549 821.15 158.516 823.866 160.28 835.268C160.28 835.268 172.697 869.852 174.002 876.911C175.307 883.969 180.536 919.965 180.536 919.965C180.536 919.965 168.772 894.556 167.468 891.027C166.163 887.498 162.238 869.852 161.587 864.912C160.935 859.971 155.055 860.677 155.053 864.912C155.05 869.147 156.028 883.011 160.28 896.673C164.932 908.069 168.171 914.129 174.002 924.906C173.103 925.968 149.137 903.143 145.251 898.791C141.365 894.439 138.065 899.497 141.331 903.732C144.596 907.966 152.439 917.142 153.746 918.554C155.053 919.965 174.671 933.709 175.962 935.493C177.254 937.277 177.269 939.728 175.962 939.022C174.655 938.317 157.666 928.435 153.746 924.906C149.825 921.377 144.598 924.2 148.518 928.435C152.439 932.67 156.339 936.542 165.507 942.551H202.753Z" fill="#0F3057"/>
<path d="M76.5763 934.107L75.8133 942.551H71.6167C71.6167 942.551 72.7622 935.12 72.3797 934.107C71.9973 933.094 69.1907 931.135 66.6571 928.654C64.1234 926.172 63.352 925.82 60.9249 922.201C58.4977 918.583 61.3159 916.88 63.9865 919.92C66.6571 922.96 69.7091 925.325 70.0906 926C70.4722 926.676 71.9982 926.338 71.6167 924.987C71.2352 923.636 67.3236 915.749 66.6571 912.152C65.9905 908.554 66.6571 902.356 66.4916 899.654C66.3261 896.952 70.4722 893.574 70.8537 899.654C71.2352 905.734 71.2352 912.489 71.6167 914.516C71.9982 916.543 73.9058 918.232 73.9058 918.232L77.7209 893.574C77.7209 893.574 72.3806 888.17 70.4722 886.481C68.5637 884.792 67.0395 881.752 66.2755 879.388C65.5116 877.023 64.7504 875.334 65.131 872.294C65.5116 869.254 68.9452 870.268 69.3276 872.294C69.7101 874.321 69.9899 877.273 71.0564 879.388C72.1229 881.503 74.2873 883.779 74.6688 884.454C75.0503 885.13 76.5773 885.13 76.1948 883.441C75.8124 881.752 75.0503 878.712 74.6688 874.997C74.2873 871.281 75.0512 868.917 75.0503 866.214C75.0494 863.512 78.8645 863.175 78.8654 866.214C78.8663 869.254 79.2469 880.739 79.2469 880.739H80.0099C80.0099 880.739 83.0629 857.095 81.536 857.432C80.009 857.77 74.2882 853.749 72.7612 851.723C71.2342 849.696 67.421 846.286 65.894 843.584C64.3671 840.881 67.4191 840.206 69.3276 841.895C71.2361 843.584 77.7199 849.326 78.1024 850.001C78.4848 850.677 79.2478 850.001 78.8654 849.326C78.483 848.65 74.6383 841.975 74.2559 841.3C73.8734 840.624 73.1437 839.868 72.7612 836.828C72.3788 833.788 74.6697 833.45 76.5773 835.815C78.4848 838.179 78.1443 838.078 78.8663 839.193C79.5884 840.307 83.3211 849.241 83.3211 849.241C83.3211 849.241 86.878 836.828 87.2586 834.802C87.6392 832.775 91.0737 831.086 91.0737 834.802C91.0737 838.517 89.5477 848.65 89.5477 848.65C89.5477 848.65 92.2184 844.259 92.599 842.57C92.9796 840.881 93.9861 837.329 94.5193 834.848C95.0526 832.366 98.8523 832.77 99.0855 834.802C99.3186 836.833 98.926 837.444 98.3224 839.868C97.7208 842.285 95.2865 846.595 94.1372 848.63L94.1258 848.65C92.9813 850.677 90.3116 853.717 88.4032 855.744C86.4947 857.77 84.5881 858.108 84.5881 858.108L83.825 880.739C83.825 880.739 89.5486 870.606 91.0737 867.228C92.5989 863.85 96.7955 865.539 95.2704 868.579C93.7526 871.604 93.3665 872.288 92.2347 874.292L92.2183 874.321C91.0737 876.348 86.8771 884.116 86.8771 884.116C86.8771 884.116 92.0212 882.266 93.9861 880.014C95.951 877.761 95.6519 874.997 97.5594 872.97C99.467 870.943 100.385 873.561 99.8485 875.74C99.3119 877.918 97.8742 881.414 96.3481 883.441C94.8221 885.468 89.1671 889.859 86.8771 891.21C84.5871 892.561 81.536 893.574 81.536 893.574L78.1024 920.258C78.1024 920.258 79.5884 915.253 81.536 911.814C83.4836 908.375 83.062 907.085 83.062 903.707C83.062 900.33 86.8771 899.607 86.8771 903.707C86.8771 907.808 87.0539 905.326 86.8771 908.098C86.7004 910.87 86.1141 911.794 84.5881 914.516C83.062 917.238 81.536 924.987 81.536 924.987C81.536 924.987 85.3554 920.196 87.5871 916.742C89.8188 913.287 91.8531 909.297 93.4528 906.319C95.0526 903.341 94.8888 900.667 94.5073 898.641C94.1258 896.614 99.467 894.933 99.467 898.641C99.467 902.348 99.6991 903.341 98.2521 906.815C96.805 910.29 88.1206 928.654 84.5881 930.391C81.0555 932.129 79.9942 933.113 76.5763 934.107Z" fill="#0F3057"/>
<path fill-rule="evenodd" clip-rule="evenodd" d="M480 946.178V1023.92H0V953.257C17.4247 954.249 29 954.956 29 954.956C86.4311 931.963 120.264 926.297 185 934.966C292.424 894.76 345.313 909.085 438 942.962C453.628 944.542 467.404 945.613 480 946.178Z" fill="#0F3057"/>
<defs>
<linearGradient id="paint0_linear_462_60" x1="240" y1="0" x2="240" y2="1023.51" gradientUnits="userSpaceOnUse">
<stop stop-color="#5CB3F2"/>
<stop offset="1" stop-color="#1871B2"/>
</linearGradient>
</defs>
</svg>
